<svg width="75" height="25" viewBox="0 0 75 25" fill="none" xmlns="http://www.w3.org/2000/svg">
<path d="M6.125 19.625L9.64062 7.09375H12.5L11.5781 12.0156L8.0625 24H5.67188L6.125 19.625ZM4.34375 7.09375L6.85938 19.6094L7.09375 24H4.28125L0 7.09375H4.34375ZM15.7188 19.4062L18.1719 7.09375H22.5312L18.25 24H15.4531L15.7188 19.4062ZM12.8906 7.09375L16.3906 19.5312L16.875 24H14.4688L10.9531 12.0312L10.0625 7.09375H12.8906ZM32.5781 24.3125C31.2656 24.3125 30.0885 24.1042 29.0469 23.6875C28.0052 23.2604 27.1198 22.6719 26.3906 21.9219C25.6719 21.1719 25.1198 20.3021 24.7344 19.3125C24.349 18.3125 24.1562 17.25 24.1562 16.125V15.5C24.1562 14.2188 24.3385 13.0469 24.7031 11.9844C25.0677 10.9219 25.5885 10 26.2656 9.21875C26.9531 8.4375 27.7865 7.83854 28.7656 7.42188C29.7448 6.99479 30.849 6.78125 32.0781 6.78125C33.276 6.78125 34.3385 6.97917 35.2656 7.375C36.1927 7.77083 36.9688 8.33333 37.5938 9.0625C38.2292 9.79167 38.7083 10.6667 39.0312 11.6875C39.3542 12.6979 39.5156 13.8229 39.5156 15.0625V16.9375H26.0781V13.9375H35.0938V13.5938C35.0938 12.9688 34.9792 12.4115 34.75 11.9219C34.5312 11.4219 34.1979 11.026 33.75 10.7344C33.3021 10.4427 32.7292 10.2969 32.0312 10.2969C31.4375 10.2969 30.9271 10.4271 30.5 10.6875C30.0729 10.9479 29.724 11.3125 29.4531 11.7812C29.1927 12.25 28.9948 12.8021 28.8594 13.4375C28.7344 14.0625 28.6719 14.75 28.6719 15.5V16.125C28.6719 16.8021 28.7656 17.4271 28.9531 18C29.151 18.5729 29.4271 19.0677 29.7812 19.4844C30.1458 19.901 30.5833 20.224 31.0938 20.4531C31.6146 20.6823 32.2031 20.7969 32.8594 20.7969C33.6719 20.7969 34.4271 20.6406 35.125 20.3281C35.8333 20.0052 36.4427 19.5208 36.9531 18.875L39.1406 21.25C38.7865 21.7604 38.3021 22.25 37.6875 22.7188C37.0833 23.1875 36.3542 23.5729 35.5 23.875C34.6458 24.1667 33.6719 24.3125 32.5781 24.3125ZM49.8594 24.3125C48.5469 24.3125 47.3698 24.1042 46.3281 23.6875C45.2865 23.2604 44.401 22.6719 43.6719 21.9219C42.9531 21.1719 42.401 20.3021 42.0156 19.3125C41.6302 18.3125 41.4375 17.25 41.4375 16.125V15.5C41.4375 14.2188 41.6198 13.0469 41.9844 11.9844C42.349 10.9219 42.8698 10 43.5469 9.21875C44.2344 8.4375 45.0677 7.83854 46.0469 7.42188C47.026 6.99479 48.1302 6.78125 49.3594 6.78125C50.5573 6.78125 51.6198 6.97917 52.5469 7.375C53.474 7.77083 54.25 8.33333 54.875 9.0625C55.5104 9.79167 55.9896 10.6667 56.3125 11.6875C56.6354 12.6979 56.7969 13.8229 56.7969 15.0625V16.9375H43.3594V13.9375H52.375V13.5938C52.375 12.9688 52.2604 12.4115 52.0312 11.9219C51.8125 11.4219 51.4792 11.026 51.0312 10.7344C50.5833 10.4427 50.0104 10.2969 49.3125 10.2969C48.7188 10.2969 48.2083 10.4271 47.7812 10.6875C47.3542 10.9479 47.0052 11.3125 46.7344 11.7812C46.474 12.25 46.276 12.8021 46.1406 13.4375C46.0156 14.0625 45.9531 14.75 45.9531 15.5V16.125C45.9531 16.8021 46.0469 17.4271 46.2344 18C46.4323 18.5729 46.7083 19.0677 47.0625 19.4844C47.4271 19.901 47.8646 20.224 48.375 20.4531C48.8958 20.6823 49.4844 20.7969 50.1406 20.7969C50.9531 20.7969 51.7083 20.6406 52.4062 20.3281C53.1146 20.0052 53.724 19.5208 54.2344 18.875L56.4219 21.25C56.0677 21.7604 55.5833 22.25 54.9688 22.7188C54.3646 23.1875 53.6354 23.5729 52.7812 23.875C51.9271 24.1667 50.9531 24.3125 49.8594 24.3125ZM59.3594 0H63.8594V20.125L63.4062 24H59.3594V0ZM74.5625 15.375V15.7031C74.5625 16.9635 74.4271 18.1198 74.1562 19.1719C73.8958 20.224 73.4896 21.1354 72.9375 21.9062C72.3854 22.6667 71.6979 23.2604 70.875 23.6875C70.0625 24.1042 69.1042 24.3125 68 24.3125C66.9688 24.3125 66.0729 24.1042 65.3125 23.6875C64.5625 23.2708 63.9323 22.6823 63.4219 21.9219C62.9115 21.1615 62.5 20.2708 62.1875 19.25C61.875 18.2292 61.6406 17.1146 61.4844 15.9062V15.1875C61.6406 13.9792 61.875 12.8646 62.1875 11.8438C62.5 10.8229 62.9115 9.93229 63.4219 9.17188C63.9323 8.41146 64.5625 7.82292 65.3125 7.40625C66.0625 6.98958 66.9479 6.78125 67.9688 6.78125C69.0833 6.78125 70.0521 6.99479 70.875 7.42188C71.7083 7.83854 72.3958 8.43229 72.9375 9.20312C73.4896 9.96354 73.8958 10.8698 74.1562 11.9219C74.4271 12.9635 74.5625 14.1146 74.5625 15.375ZM70.0625 15.7031V15.375C70.0625 14.6875 70.0104 14.0417 69.9062 13.4375C69.8125 12.8229 69.6458 12.2865 69.4062 11.8281C69.1667 11.3594 68.8385 10.9896 68.4219 10.7188C68.0156 10.4479 67.4896 10.3125 66.8438 10.3125C66.2292 10.3125 65.7083 10.4167 65.2812 10.625C64.8542 10.8333 64.5 11.125 64.2188 11.5C63.9479 11.875 63.7448 12.3229 63.6094 12.8438C63.474 13.3542 63.3906 13.9167 63.3594 14.5312V16.5781C63.3906 17.401 63.526 18.1302 63.7656 18.7656C64.0156 19.3906 64.3906 19.8854 64.8906 20.25C65.401 20.6042 66.0625 20.7812 66.875 20.7812C67.5104 20.7812 68.0365 20.6562 68.4531 20.4062C68.8698 20.1562 69.1927 19.8021 69.4219 19.3438C69.6615 18.8854 69.8281 18.349 69.9219 17.7344C70.0156 17.1094 70.0625 16.4323 70.0625 15.7031Z" fill="#0F172A"/>
</svg>
