<svg width="76" height="76" viewBox="0 0 76 76" fill="none" xmlns="http://www.w3.org/2000/svg">
<path opacity="0.06" d="M54.6848 0H20.9089C9.36124 0 0 9.36124 0 20.9089V54.6848C0 66.2325 9.36124 75.5938 20.9089 75.5938H54.6848C66.2325 75.5938 75.5938 66.2325 75.5938 54.6848V20.9089C75.5938 9.36124 66.2325 0 54.6848 0Z" fill="#FF6F35"/>
<path d="M37.7969 63.5373C52.013 63.5373 63.5373 52.013 63.5373 37.7969C63.5373 23.5809 52.013 12.0565 37.7969 12.0565C23.5809 12.0565 12.0565 23.5809 12.0565 37.7969C12.0565 52.013 23.5809 63.5373 37.7969 63.5373Z" fill="#FFCD1D"/>
<path d="M37.7969 21.5791V54.0148" stroke="white" stroke-width="2.41257" stroke-linecap="round" stroke-linejoin="round"/>
<path d="M45.1686 27.4764H34.111C32.7425 27.4764 31.43 28.0201 30.4622 28.9878C29.4944 29.9555 28.9508 31.268 28.9508 32.6366C28.9508 34.0052 29.4944 35.3177 30.4622 36.2854C31.43 37.2531 32.7425 37.7968 34.111 37.7968H41.4827C42.8513 37.7968 44.1638 38.3405 45.1316 39.3082C46.0993 40.2759 46.643 41.5884 46.643 42.9571C46.643 44.3256 46.0993 45.6382 45.1316 46.6058C44.1638 47.5736 42.8513 48.1172 41.4827 48.1172H28.9508" stroke="white" stroke-width="2.41257" stroke-linecap="round" stroke-linejoin="round"/>
</svg>
