<svg width="76" height="76" viewBox="0 0 76 76" fill="none" xmlns="http://www.w3.org/2000/svg">
<path opacity="0.06" d="M54.9787 -0.265625H21.0213C9.41155 -0.265625 0 9.14592 0 20.7557V54.7131C0 66.3228 9.41155 75.7344 21.0213 75.7344H54.9787C66.5885 75.7344 76 66.3228 76 54.7131V20.7557C76 9.14592 66.5885 -0.265625 54.9787 -0.265625Z" fill="#F6CA4F"/>
<path d="M38.0001 63.6132C52.2925 63.6132 63.8788 52.0269 63.8788 37.7344C63.8788 23.442 52.2925 11.8557 38.0001 11.8557C23.7076 11.8557 12.1213 23.442 12.1213 37.7344C12.1213 52.0269 23.7076 63.6132 38.0001 63.6132Z" fill="#FF6D35"/>
<path d="M47.5505 49.4073H28.4495C26.1149 49.4073 24.2048 47.4972 24.2048 45.1626V30.3062C24.2048 27.9716 26.1149 26.0615 28.4495 26.0615H47.5505C49.8851 26.0615 51.7952 27.9716 51.7952 30.3062V45.1626C51.7952 47.4972 49.8851 49.4073 47.5505 49.4073Z" stroke="white" stroke-width="2" stroke-miterlimit="10" stroke-linecap="round" stroke-linejoin="round"/>
<path d="M24.2048 31.3673L38 39.8567L51.7952 31.3673" stroke="white" stroke-width="2" stroke-miterlimit="10" stroke-linecap="round" stroke-linejoin="round"/>
</svg>
