<svg width="76" height="76" viewBox="0 0 76 76" fill="none" xmlns="http://www.w3.org/2000/svg">
<path opacity="0.06" d="M54.6848 0H20.9089C9.36124 0 0 9.36124 0 20.9089V54.6848C0 66.2325 9.36124 75.5938 20.9089 75.5938H54.6848C66.2325 75.5938 75.5938 66.2325 75.5938 54.6848V20.9089C75.5938 9.36124 66.2325 0 54.6848 0Z" fill="#5CC97B"/>
<path d="M37.7969 63.5373C52.013 63.5373 63.5373 52.013 63.5373 37.7969C63.5373 23.5809 52.013 12.0565 37.7969 12.0565C23.5809 12.0565 12.0565 23.5809 12.0565 37.7969C12.0565 52.013 23.5809 63.5373 37.7969 63.5373Z" fill="#5CC97B"/>
<path fill-rule="evenodd" clip-rule="evenodd" d="M40.5539 44.1698C38.7109 45.3886 36.4812 46.0595 34.1054 45.9614C28.0962 45.7132 23.4258 40.6402 23.674 34.6308C23.9222 28.6213 28.995 23.9517 35.0041 24.1999C41.0123 24.448 45.6838 29.5201 45.4356 35.5295C45.3481 37.6478 44.661 39.5998 43.5447 41.2286L50.8813 48.3521C51.7865 49.3335 51.7541 50.8505 50.8241 51.7906L50.7813 51.8299L50.7361 51.869C49.7251 52.7185 48.2105 52.6275 47.3062 51.6452L40.5539 44.1698ZM34.2091 43.4497C29.5869 43.2588 25.9941 39.3563 26.185 34.7341C26.3759 30.1119 30.2782 26.5191 34.9005 26.71C39.5227 26.9009 43.1156 30.8032 42.9247 35.4255C42.7338 40.0477 38.8314 43.6405 34.2091 43.4497Z" fill="white"/>
</svg>
