<svg viewBox="0 0 267 289" fill="none" xmlns="http://www.w3.org/2000/svg">
<path d="M245.525 177.531C220.997 169.51 194.822 167.917 169.502 172.903L169.924 171.36C170.026 171.019 169.492 170.825 169.366 171.158L168.534 173.092C122.848 182.134 81.0892 210.597 51.9927 248.127C65.2695 222.298 80.1687 197.336 96.6009 173.39C96.6691 173.348 96.728 173.292 96.774 173.226C96.8201 173.16 96.8525 173.086 96.8691 173.007C106.09 159.603 115.787 146.545 125.962 133.833C126.099 134.027 126.294 134.172 126.519 134.247C126.744 134.323 126.987 134.325 127.213 134.254C192.807 117.315 246.378 65.7268 266.974 1.40247C267.017 1.20422 267.007 0.998084 266.945 0.804824C266.883 0.61155 266.772 0.437919 266.622 0.301355C266.472 0.164765 266.289 0.0700622 266.09 0.0267327C265.892 -0.0166104 265.686 -0.00705314 265.493 0.0544572C246.469 5.32613 227.337 10.3389 208.321 15.7524C203.634 17.0944 199.022 18.687 194.506 20.5232C194.424 19.8972 194.368 19.2796 194.228 18.5782C194.088 17.8769 193.42 18.0834 193.452 18.6092L193.545 20.8122C182.611 25.1126 172.681 31.6198 164.373 39.9277C164.26 38.6507 164.173 37.3822 164.035 36.0968C163.978 35.6461 163.302 35.669 163.317 36.1196C163.371 37.7385 163.399 39.3489 163.419 40.9426C154.866 50.0781 147.836 60.5271 142.595 71.891L142.5 70.3137C142.489 70.2414 142.451 70.1759 142.395 70.1295C142.338 70.0831 142.267 70.059 142.193 70.0618C142.12 70.0647 142.051 70.0943 141.998 70.145C141.945 70.1956 141.913 70.2639 141.908 70.3368L141.856 73.5073C133.505 91.7289 128.568 111.839 124.661 131.209C114.888 143.221 105.552 155.566 96.6505 168.242C96.6801 166.791 96.6513 165.347 96.589 163.92C103.884 142.041 104.36 118.462 97.9538 96.306C89.0803 65.8231 63.7388 45.0922 51.8226 16.3685L51.7255 15.417C51.7224 15.3821 51.7085 15.3491 51.6857 15.3225C51.6629 15.2959 51.6324 15.2772 51.5984 15.2688C51.5644 15.2604 51.5286 15.2628 51.4961 15.2758C51.4636 15.2887 51.4359 15.3115 51.417 15.3409L50.672 13.4613C50.5893 13.226 50.4409 13.0192 50.2445 12.8656C50.048 12.7119 49.8117 12.6177 49.5634 12.5941C49.3152 12.5705 49.0653 12.6185 48.8434 12.7324C48.6215 12.8463 48.4369 13.0213 48.3114 13.2369C42.8327 24.8091 39.7716 37.3771 39.3152 50.1726C38.8588 62.9681 41.0167 75.7222 45.6569 87.6554C50.8707 101.231 58.5579 113.662 66.1369 126.001C74.8367 140.097 83.6036 154.117 92.571 168.038C92.4112 168.429 92.2849 168.804 92.1419 169.188C91.6036 170.538 93.3607 171.645 94.1569 170.521L94.4885 171.189C82.9159 187.857 72.1232 205.047 62.1103 222.76C67.7689 206.416 69.294 188.498 63.9894 171.969C59.668 158.514 51.1187 146.947 43.2117 135.416L36.019 124.947C36.1723 124.788 36.2893 124.597 36.3619 124.389C36.4346 124.18 36.4612 123.958 36.44 123.738C36.386 122.328 35.269 122.008 34.1669 122.221L17.3231 97.6704L17.2264 96.5937C17.2148 96.5165 17.1767 96.4457 17.1186 96.3935C17.0605 96.3413 16.986 96.3111 16.908 96.3078C16.83 96.3046 16.7533 96.3287 16.6911 96.3759C16.6289 96.4232 16.5851 96.4906 16.5673 96.5666L15.8032 95.4461C15.6694 95.2523 15.4829 95.101 15.2657 95.01C15.0485 94.919 14.8097 94.8921 14.5778 94.9327C14.3458 94.9732 14.1303 95.0794 13.9569 95.2387C13.7834 95.398 13.6593 95.6037 13.5992 95.8313C10.751 104.7 8.25297 113.659 6.1051 122.708L5.5313 122.097C5.10714 121.662 4.52926 122.344 4.9117 122.78L5.85122 123.834C4.33672 130.479 2.95554 137.183 1.79149 143.821C-0.513297 157.648 -1.36294 170.42 4.02733 183.595C4.49098 184.739 5.00476 185.859 5.53513 187.012C5.23428 187.162 5.17413 187.712 5.5575 187.855L5.98245 188.04C11.5804 199.283 18.4268 209.859 26.3921 219.569C31.894 226.462 38.7786 234.085 47.3214 237.157C48.4757 238.503 50.0471 239.424 51.7854 239.774L51.5001 240.291C51.3624 240.499 51.3103 240.752 51.3546 240.998C51.3989 241.244 51.5362 241.463 51.7379 241.61C44.0039 256.36 36.8782 271.384 30.3607 286.682C29.6378 288.374 32.1784 289.717 32.9347 288.009C37.512 277.644 42.3198 267.393 47.3581 257.257L48.6149 255.593C48.7864 255.682 48.9785 255.725 49.1719 255.717C49.3653 255.709 49.5531 255.65 49.7164 255.546C50.2011 255.306 50.6361 254.965 51.1042 254.691C71.5739 264.551 94.7277 262.021 115.488 253.826C115.627 253.789 115.758 253.724 115.872 253.635C121.356 251.483 126.691 248.969 131.841 246.109C150.222 235.679 166.269 221.762 183.346 209.459C199.862 197.196 218.376 187.885 238.069 181.938C239.136 182.075 240.246 182.129 241.238 182.324C241.347 182.334 241.455 182.305 241.544 182.241C241.632 182.177 241.694 182.083 241.718 181.976C241.742 181.87 241.726 181.758 241.674 181.662C241.621 181.567 241.535 181.494 241.433 181.457C241.141 181.372 240.849 181.33 240.54 181.254C242.227 180.792 243.948 180.355 245.659 179.943C246.937 179.58 246.584 177.86 245.525 177.531ZM177.309 110.34C171.869 108.816 166.223 108.159 160.578 108.393C155.687 108.737 149.62 111.747 145.132 111.599L144.823 111.565C151.656 103.871 158.641 96.3584 165.779 89.0272C178.396 87.9927 191.098 88.9137 203.434 91.7576C195.222 98.621 186.487 104.834 177.309 110.34ZM260.521 12.8299C248.601 42.8907 229.46 69.5529 204.79 90.4602C204.738 90.338 204.658 90.2304 204.555 90.1471C204.451 90.0638 204.329 90.0073 204.199 89.9828C193.015 87.0894 181.447 85.9689 169.916 86.6623C169.132 86.7182 168.389 86.816 167.721 86.8973C175.924 78.6628 184.291 70.5901 192.821 62.6792C204.555 61.69 215.128 63.8176 226.508 67.0242C227.291 67.2603 227.746 66.0352 227.004 65.674C221.768 63.2915 216.199 61.7209 210.49 61.0162C207.446 60.5894 199.082 61.4891 194.929 60.7585C204.491 52.0443 214.236 43.5588 224.163 35.3019C232.211 34.0819 240.382 33.8917 248.479 34.7361C249.613 34.8398 250.011 33.1222 248.86 32.9851C241.458 32.1691 233.985 32.2605 226.606 33.257C238.591 23.3824 250.839 13.7449 263.351 4.34476C263.761 6.72405 261.454 10.5549 260.554 12.8967L260.521 12.8299ZM248.892 6.93579C250.47 6.5069 261.823 2.27067 262.746 3.12466L262.887 3.40879C248.183 12.9669 233.994 23.294 220.378 34.3471L219.301 34.569C222.058 27.9119 223.777 20.8709 224.398 13.6921C232.599 11.4707 240.774 9.2409 248.925 7.00266L248.892 6.93579ZM221.166 14.5664C221.968 14.3353 222.778 14.1209 223.58 13.8898C222.601 21.2844 220.508 28.488 217.371 35.2554C217.316 35.362 217.287 35.4799 217.287 35.5997C217.286 35.7195 217.313 35.8379 217.366 35.9452C217.419 36.0525 217.497 36.1459 217.593 36.2177C217.689 36.2894 217.8 36.3377 217.918 36.3586C209.163 43.4788 200.626 50.9001 192.308 58.6225C191.786 54.716 194.737 44.9213 195.047 41.8935C195.586 35.5618 195.503 29.1925 194.799 22.8771C203.438 19.6377 212.252 16.8854 221.199 14.6332L221.166 14.5664ZM169.377 38.1746C176.51 31.7883 184.73 26.7305 193.646 23.2406C194.163 35.9536 192.873 48.6757 189.814 61.026C180.876 69.375 172.177 77.9668 163.716 86.8012C163.316 86.4469 162.996 86.0106 162.779 85.5219C162.561 85.0332 162.452 84.5035 162.457 83.9687C161.651 77.5581 164.515 69.0982 164.87 62.4242C165.202 55.9546 165.15 49.4711 164.714 43.0076C166.229 41.4021 167.811 39.8468 169.451 38.325L169.377 38.1746ZM163.442 44.1384C163.666 59.0073 162.412 73.8616 159.698 88.4823C159.669 88.6194 159.672 88.7611 159.706 88.8968C159.74 89.0326 159.804 89.159 159.894 89.2667C159.983 89.3743 160.096 89.4605 160.223 89.5188C160.35 89.577 160.489 89.606 160.629 89.6034L161.088 89.5631C154.697 96.2736 148.485 103.09 142.45 110.013C141.987 108.535 142.654 106.226 142.719 103.923C142.863 100.561 142.991 97.2074 143.043 93.8283C143.127 88.2882 143.078 82.7311 142.895 77.2403C147.889 65.1862 154.858 54.0495 163.517 44.2888L163.442 44.1384ZM141.828 79.7484C141.652 90.5197 141.401 101.266 140.741 112.027C136.007 117.514 131.35 123.017 126.772 128.537L126.554 128.812C130.953 112.363 135.287 95.4893 141.828 79.7484ZM128.777 130.354C133.158 124.995 137.638 119.71 142.185 114.56C152.562 110.001 164.142 108.951 175.169 111.568C160.306 120.227 144.382 126.922 127.797 131.486L128.777 130.354ZM96.0171 157.435C94.9937 150.285 93.183 143.269 90.6179 136.517C90.7425 136.564 90.877 136.58 91.0092 136.563C91.1414 136.545 91.2671 136.495 91.3751 136.416C91.483 136.338 91.5697 136.234 91.6273 136.114C91.6849 135.994 91.7116 135.861 91.705 135.728C92.1504 121.511 93.5299 107.414 94.409 93.2326C101.253 114.009 101.813 136.343 96.0171 157.435ZM92.9368 89.0895L93.5158 90.7183C91.7467 103.147 90.6765 115.665 90.3103 128.214C90.1763 131.008 89.8134 132.334 89.1861 132.791C85.1463 122.674 80.0458 112.854 75.3287 103.177C73.9192 100.335 72.6433 97.4694 71.4338 94.6955C73.7766 84.6819 76.8112 74.9292 80.0293 65.1687C85.2302 72.6238 89.5609 80.6496 92.9368 89.0895ZM79.2823 63.9148C77.7126 67.7758 76.2763 71.6818 74.9733 75.6326C74.1311 78.1331 71.9087 89.6489 70.0257 91.4369C65.4335 80.3888 61.7062 69.0008 58.8773 57.3756C61.0936 53.0689 63.26 48.7452 65.443 44.4133C69.995 50.9025 74.7975 57.309 79.2823 63.9148ZM64.4793 43.1003L60.1212 51.8643C59.5418 53.0473 59.0286 54.364 58.3659 55.505C55.9224 45.154 54.0612 34.6741 52.7911 24.1146C56.2608 30.6959 60.1656 37.0386 64.4793 43.1003ZM49.5421 17.1874C50.1798 18.7246 50.8842 20.2287 51.6054 21.7245C52.0317 33.8428 53.7191 45.8837 56.6403 57.6523C56.0229 57.3187 55.4566 56.8982 54.9587 56.4037C50.4565 52.6598 46.6839 47.7418 42.6091 43.4318C43.5662 34.3857 45.8722 25.5337 49.4504 17.1704L49.5421 17.1874ZM42.4802 44.5996C47.1364 49.7875 52.0351 54.7925 56.7247 59.9638C56.7889 60.0281 56.8693 60.0737 56.9574 60.096C57.0455 60.1184 57.1379 60.1165 57.225 60.0905C59.9367 70.5781 63.4239 80.8496 67.6579 90.8204C64.327 88.7239 58.5531 83.424 57.2463 82.427C53.1336 79.5104 48.8701 76.8352 44.5058 74.335C42.2033 64.5961 41.4884 54.5494 42.3885 44.5826L42.4802 44.5996ZM66.0974 122.647C60.3631 113.113 55.1927 103.251 50.6126 93.1112C48.295 87.8936 46.4224 82.4895 45.0148 76.9566C53.5447 82.0272 61.6047 87.8496 69.0986 94.3543L69.8448 95.8586C75.3135 107.974 81.601 119.767 86.4853 131.965C85.328 131.185 83.9047 130.079 82.1473 129.097C77.2927 126.438 72.2294 124.178 67.0078 122.341C66.9287 122.298 66.8415 122.271 66.7516 122.263C66.6617 122.255 66.5711 122.266 66.4856 122.295C66.4 122.323 66.3214 122.37 66.2546 122.43C66.1877 122.491 66.1342 122.565 66.0974 122.647ZM67.0435 124.26C74.1853 126.846 81.0036 130.25 87.3621 134.404C91.0421 143.546 93.389 153.169 94.3308 162.978C93.9517 164.145 93.5642 165.296 93.1518 166.437C84.7104 152.401 75.5092 138.513 67.0685 124.269L67.0435 124.26ZM36.1973 129.253C44.0125 140.767 52.7714 152.042 58.622 164.76C60.555 168.983 62.0454 173.394 63.0694 177.924C56.9698 180.675 51.4971 184.644 46.9875 189.588C45.0461 191.762 43.3019 194.105 41.7755 196.588C40.3581 198.895 39.349 204.04 37.4747 205.72C37.2407 205.836 37.1066 206.027 36.9476 206.169C36.51 204.699 36.1635 203.454 35.8577 202.544C32.6182 192.627 29.8018 182.597 27.4085 172.455C27.5129 172.429 27.6112 172.383 27.6974 172.319C27.7836 172.254 27.856 172.173 27.9103 172.081C32.9968 162.518 39.9577 156.566 48.4967 150.226C48.9313 150.011 48.6253 149.142 48.0739 149.374C39.5511 153.185 34.7986 160.021 29.0363 166.919C27.671 168.575 27.2183 169.258 26.6094 169.206L26.4684 168.922C24.617 160.698 23.1495 152.449 21.9573 144.21C21.9573 144.21 21.9573 144.21 22.0409 144.169C22.8211 142.803 30.7816 129.419 33.2979 125.255L36.1973 129.253ZM32.1773 123.416C30.1013 125.571 28.5353 130.013 27.1592 132.445C26.3872 133.828 23.6301 140.277 21.6908 141.406C19.921 128.476 18.752 115.497 17.7337 102.403L32.1773 123.416ZM15.2667 98.8571L16.5957 100.78C16.5319 113.587 17.4006 126.381 19.195 139.062C18.4645 137.883 17.7757 136.704 17.6095 136.495C16.43 134.789 15.2087 133.125 13.9206 131.494C12.1339 129.194 10.2299 127.077 8.22591 124.884C10.2281 116.157 12.5611 107.496 15.2249 98.8987L15.2667 98.8571ZM4.86105 178.516C0.299093 164.618 3.04779 150.258 5.76186 136.291C6.41502 132.905 7.1349 129.528 7.88807 126.177C12.1787 131.118 16.0894 136.377 19.5866 141.908C20.8358 150.598 22.469 159.222 24.3445 167.747L23.9532 167.462C21.8387 165.929 20.0598 163.812 17.9458 162.112C13.8112 158.634 9.44457 155.442 4.87617 152.559C4.41819 152.265 3.89005 153.048 4.31461 153.358C11.5331 158.663 18.4173 164.408 24.928 170.561C25.7099 173.984 26.5084 177.4 27.3739 180.782C29.4913 189.332 32.0012 197.751 34.7535 206.07C34.1386 205.218 33.4812 204.397 32.7838 203.611C30.0303 200.654 26.9925 197.975 23.7142 195.614C19.1051 192.328 14.0466 189.724 8.6947 187.882C7.20062 184.853 5.91963 181.723 4.86105 178.516ZM25.0088 213.716C19.2589 206.024 14.078 197.923 9.50735 189.478C20.0404 193.991 29.2292 201.147 36.1838 210.255C37.5647 214.214 38.9791 218.157 40.502 222.066C41.6981 225.88 43.1098 229.623 44.7303 233.277C37.0028 228.033 30.3157 221.4 25.0088 213.716ZM37.9046 209.609C39.7536 203.073 42.983 197.009 47.3751 191.826C51.7671 186.644 57.2196 182.464 63.3646 179.568C67.3157 199.331 62.5359 220.092 52.8761 237.859C46.2304 236.511 40.992 220.157 37.9461 209.693L37.9046 209.609ZM200.86 172.509L193.852 180.047C182.627 182.1 171.628 185.234 161.006 189.405C161.849 186.905 164.921 183.735 166.138 181.361C167.138 179.408 167.992 177.383 168.694 175.303C179.313 173.315 190.107 172.412 200.91 172.61L200.86 172.509ZM184.009 205.715C183.979 205.59 183.923 205.473 183.844 205.372C183.765 205.271 183.666 205.188 183.552 205.129L171.042 198.048C168.526 196.629 163.334 194.811 161.473 192.277C171.49 188.526 181.808 185.63 192.314 183.621C197.044 185.981 201.564 188.742 205.822 191.874C205.918 191.948 206.028 192 206.147 192.026C201.918 194.248 197.772 196.638 193.725 199.229C190.439 201.338 187.245 203.547 184.059 205.815L184.009 205.715ZM138.988 183.812C148.176 180.24 157.661 177.486 167.333 175.583C164.949 181.017 161.804 186.084 157.99 190.63C154.415 192.071 150.88 193.595 147.438 195.178C140.36 198.418 133.39 201.959 126.462 205.583C125.917 203.771 127.284 201.656 129.422 198.2C132.291 193.57 135.217 188.89 137.91 184.242C138.336 184.219 138.67 184.053 139.038 183.912L138.988 183.812ZM136.223 184.955C131.477 192.182 127.09 199.503 122.32 206.638C122.226 206.819 122.198 207.027 122.244 207.226C122.289 207.425 122.404 207.602 122.567 207.724C109.879 214.684 97.4563 222.263 85.1748 230.001C85.4865 226.43 91.3346 221.426 93.2035 218.812C96.5948 214.03 99.5565 208.958 102.054 203.654C112.756 196.238 124.229 190.002 136.272 185.055L136.223 184.955ZM100.398 204.808C95.0218 213.99 88.6545 222.554 81.4107 230.347C81.3231 230.445 81.2592 230.562 81.2236 230.688C81.1881 230.814 81.182 230.947 81.2058 231.076C81.2295 231.205 81.2825 231.327 81.3607 231.432C81.4389 231.537 81.5402 231.623 81.6568 231.683L82.1566 231.935C72.0821 238.328 62.0658 244.796 52.1001 251.115C65.9918 233.54 82.261 217.983 100.44 204.892L100.398 204.808ZM53.5207 253.055C63.8791 246.604 74.2801 239.862 84.7977 233.187C94.7911 238.356 104.182 244.614 112.799 251.848C93.5761 259.406 72.8091 261.793 53.5202 253.222L53.5207 253.055ZM144.726 234.886C135.417 241.341 125.451 246.794 114.996 251.154C111.072 247.799 106.983 244.642 102.743 241.696C100.004 239.826 97.198 238.032 94.3247 236.354C93.3336 235.784 88.3672 233.707 86.3355 232.382C99.194 224.212 112.236 216.202 125.558 209.01C136.858 213.417 147.721 218.871 158.006 225.299C153.632 228.573 149.216 231.805 144.726 234.886ZM159.562 224.027C150.628 218.326 141.219 213.406 131.44 209.32C130.262 208.869 129.143 208.277 128.108 207.558C138.1 202.198 148.399 197.43 158.95 193.278C166.779 197.851 174.708 202.289 182.596 206.77C174.793 212.452 167.24 218.344 159.562 224.027ZM207.233 191.445C207.294 191.295 207.3 191.128 207.25 190.974C207.2 190.819 207.098 190.688 206.96 190.601C203.175 187.757 199.146 185.254 194.919 183.121C207.079 180.978 219.457 180.35 231.771 181.251C223.329 183.978 215.122 187.387 207.233 191.445ZM235.646 180.037C222.652 177.58 209.323 177.471 196.29 179.712L202.369 172.823C202.42 172.759 202.462 172.689 202.495 172.615C215.456 172.943 228.32 174.964 240.757 178.626C239.037 179.063 237.342 179.55 235.646 180.037Z" fill="#3A250B"/>
</svg>
