<svg viewBox="0 0 307 357" fill="none" xmlns="http://www.w3.org/2000/svg">
<path d="M304.31 50.0006C305.282 61.1019 303.307 71.9279 301.39 82.448C300.228 88.8495 299.05 95.4285 298.469 102.106C296.755 122.482 298.133 143 302.556 162.964L303.318 166.344C306.57 180.669 310.251 196.909 301.898 209.236C295.568 218.581 283.668 223.672 265.469 224.851C253.583 225.615 244.489 226.991 236.824 229.217C226.699 232.154 219.336 236.618 214.919 242.49C209.781 249.335 208.373 258.377 210.814 269.343C211.84 273.985 213.349 278.671 214.847 283.181C217.602 291.612 220.448 300.323 220.14 309.211C220.109 309.984 220.057 310.75 219.984 311.523C219.177 318.701 216.411 325.518 211.987 331.227C207.571 337.024 201.997 341.839 195.619 345.364C182.093 352.916 166.372 354.934 154.186 355.854C137.484 357.196 120.703 357.261 103.991 356.049C84.7918 354.548 68.3289 351.117 55.0365 345.854C42.5159 340.901 31.4224 332.914 22.7531 322.612C13.7055 311.658 8.95613 299.239 9.03411 286.732C9.10273 274.713 13.5043 263.24 17.7457 252.168C19.4903 247.621 21.2951 242.925 22.775 238.265C26.7967 225.444 28.5853 212.027 28.0625 198.601C27.5835 185.17 24.9093 171.909 20.146 159.343C17.6786 153.134 14.8834 147.061 11.7719 141.149C3.54316 124.85 -4.23199 109.438 2.64606 88.572C6.50357 76.8575 15.1628 66.9098 27.6453 59.8432C38.6326 53.6061 52.3263 49.7534 66.1946 48.998C80.784 48.1968 95.528 49.9624 109.796 51.6758C121.364 52.9734 133.281 54.3971 144.996 54.4943C158.141 54.5709 177.227 52.591 193.414 42.6513C200.768 38.1385 206.788 31.8027 212.616 25.67C217.567 20.4721 222.697 15.0858 228.666 10.7058C235.791 5.51873 246.988 -0.546393 259.869 0.0394208C270.206 0.510154 279.974 5.27899 288.164 13.8818C295.79 22.0016 301.035 32.0629 303.325 42.9645C303.791 45.2886 304.12 47.638 304.31 50.0006ZM297.425 136.894C296.414 125.292 296.393 113.625 297.362 102.02C297.928 95.3142 299.133 88.6779 300.301 82.255C302.712 69.0107 304.986 56.5062 302.189 43.1266C299.946 32.4377 294.809 22.5706 287.339 14.603C279.388 6.25632 269.878 1.59451 259.832 1.13794C247.278 0.572499 236.311 6.51165 229.333 11.6031C223.425 15.9037 218.343 21.2534 213.427 26.4292C207.544 32.6058 201.468 38.9853 194.003 43.6C177.586 53.6657 158.295 55.6719 145.009 55.5987C133.202 55.5249 121.278 54.0944 109.737 52.7111C95.518 51.0036 80.8237 49.2439 66.3053 50.0576C52.5859 50.8164 39.1165 54.5787 28.2135 60.7854C15.9481 67.7546 7.46776 77.4855 3.70279 88.9287C-3.0299 109.367 4.63411 124.575 12.7586 140.665C15.8866 146.612 18.6993 152.72 21.1848 158.963C25.9943 171.641 28.6907 185.022 29.1665 198.574C29.6925 212.125 27.8879 225.666 23.8314 238.607C22.3384 243.31 20.534 248.021 18.7972 252.602C14.5824 263.603 10.2206 274.962 10.1544 286.789C10.0771 299.035 14.7354 311.201 23.6373 321.989C32.1878 332.142 43.1277 340.01 55.4732 344.887C68.6518 350.125 85.0148 353.53 104.107 355.012C120.752 356.206 137.463 356.13 154.096 354.787C166.183 353.856 181.749 351.883 195.073 344.442C201.313 340.985 206.77 336.273 211.101 330.604C215.398 325.053 218.088 318.427 218.878 311.451C218.959 310.713 219.004 309.954 219.028 309.203C219.334 300.52 216.511 291.9 213.787 283.554C212.303 279.015 210.765 274.315 209.73 269.61C207.231 258.298 208.667 248.951 214.012 241.888C218.573 235.822 226.138 231.219 236.489 228.219C244.265 225.948 253.409 224.579 265.38 223.813C283.19 222.678 294.832 217.728 300.964 208.678C304.596 203.413 306.142 196.839 305.824 188.696C305.521 181.494 303.836 173.944 302.186 166.676L301.424 163.296C299.515 154.592 298.179 145.773 297.425 136.894Z" fill="black"/>
</svg>
