<svg width="96" height="23" viewBox="0 0 96 23" fill="none" xmlns="http://www.w3.org/2000/svg">
<path opacity="0.8" d="M21.3835 15.3631V20.3216C19.581 21.9067 15.2739 22.8496 12.0672 22.8496C8.86463 22.8496 0 20.8662 0 11.5467C0 2.22725 8.43762 0.219473 11.8414 0.219473C15.2493 0.219473 18.8789 0.83725 20.9811 2.22725V6.58827C20.9811 7.13289 20.2298 7.08411 20.2298 6.58827C20.1805 5.8445 18.1768 1.38593 13.1676 1.48348C7.76015 1.59321 4.1059 5.79979 4.1059 11.3476C4.1059 16.8954 7.6575 21.6588 13.0198 21.5084C14.7607 21.4596 16.5755 20.915 17.4542 20.1916L17.4747 15.3631C17.4747 13.9772 16.6248 13.4814 15.7749 13.4814C15.2206 13.4814 15.2206 12.6888 15.7749 12.6888H23.0834C23.6335 12.6888 23.6335 13.5301 23.0834 13.4814C22.2375 13.4814 21.3835 13.9772 21.3835 15.3631ZM70.6584 6.59233C70.6584 7.13695 70.1082 7.08818 70.1082 6.59233C70.0548 5.84856 68.0553 1.23962 63.0461 1.34123C57.6386 1.4469 53.9802 5.80385 53.9802 11.3517C53.9802 16.8995 57.4867 21.8092 62.8449 21.6628C68.2031 21.5125 70.7569 16.2614 70.9581 15.5664C71.1593 14.8714 71.5083 14.973 71.5083 15.5176V19.5819C69.3076 21.167 65.1483 22.8537 61.9457 22.8537C58.7431 22.8537 49.8784 20.8703 49.8784 11.5508C49.8784 2.22725 58.2914 0 61.6952 0C65.1031 0 68.5562 0.841315 70.6625 2.22725V6.59233H70.6584ZM47.9733 0.544619C48.774 0.544619 48.774 1.28839 47.9733 1.28839C47.1234 1.28839 46.2735 1.78424 46.2735 3.17017L46.1749 14.0016C46.1749 19.1877 41.9253 23 36.6821 23C31.4389 23 27.3453 19.1877 27.3453 14.0016V3.17017C27.3453 1.78017 26.4913 1.28839 25.6413 1.28839C24.8407 1.28839 24.8407 0.544619 25.6413 0.544619H33.0525C33.8531 0.544619 33.8531 1.28839 33.0525 1.28839C32.1985 1.28839 31.3485 1.78424 31.3485 3.17017L31.3403 15.2656C31.3403 18.9235 34.3623 21.8904 38.0576 21.8904C41.7529 21.8904 44.7502 18.1797 44.7502 14.5259L44.5695 3.17017C44.5695 1.78017 43.7196 1.28839 42.8656 1.28839C42.069 1.28839 42.069 0.544619 42.8656 0.544619H47.9733ZM95.146 6.59233C95.146 7.13695 94.5958 7.08818 94.5958 6.59233C94.5465 5.84856 92.5428 1.23962 87.5336 1.34123C82.1262 1.4469 78.4678 5.80385 78.4678 11.3517C78.4678 16.8995 81.9743 21.8092 87.3325 21.6628C92.6906 21.5165 95.2445 16.2614 95.4457 15.5664C95.6469 14.8714 96 14.973 96 15.5176V19.5819C93.7951 21.167 89.64 22.8537 86.4333 22.8537C83.2307 22.8537 74.366 20.8703 74.366 11.5508C74.366 2.22725 82.779 0 86.1869 0C89.5907 0 93.0479 0.841315 95.1501 2.22725V6.59233H95.146Z" fill="#718087"/>
</svg>
