<svg width="66" height="66" viewBox="0 0 66 66" fill="none" xmlns="http://www.w3.org/2000/svg">
<path d="M53.625 30.9375H12.375V57.75H53.625V30.9375Z" stroke="white" stroke-width="2" stroke-miterlimit="10" stroke-linecap="round" stroke-linejoin="round"/>
<path d="M55.6875 20.625H10.3125V30.9375H55.6875V20.625Z" stroke="white" stroke-width="2" stroke-miterlimit="10" stroke-linecap="round" stroke-linejoin="round"/>
<path d="M41.25 20.625H24.75V30.9375H41.25V20.625Z" stroke="white" stroke-width="2" stroke-miterlimit="10" stroke-linecap="round" stroke-linejoin="round"/>
<path d="M39.1875 30.9375H26.8125V57.75H39.1875V30.9375Z" stroke="white" stroke-width="2" stroke-miterlimit="10" stroke-linecap="round" stroke-linejoin="round"/>
<path d="M48.8813 11.1375C46.8188 7.01254 41.0438 7.21879 38.5688 11.55L33 20.625H42.9C47.6437 20.4188 50.9438 15.2625 48.8813 11.1375Z" stroke="white" stroke-width="2" stroke-miterlimit="10" stroke-linecap="round" stroke-linejoin="round"/>
<path d="M17.1187 11.1375C19.1812 7.01254 24.9562 7.21879 27.4312 11.55L33 20.625H23.1C18.3562 20.4188 15.0562 15.2625 17.1187 11.1375Z" stroke="white" stroke-width="2" stroke-miterlimit="10" stroke-linecap="round" stroke-linejoin="round"/>
</svg>
