<svg width="57" height="57" viewBox="0 0 57 57" fill="none" xmlns="http://www.w3.org/2000/svg">
<path d="M49.9144 22.6253C47.5873 17.8853 43.7533 14.0513 39.0134 11.7243L39.0021 11.713C39.0021 11.713 40.8241 9.83437 41.4578 9.24589C41.6696 9.03228 41.7877 8.74314 41.786 8.44239C41.7597 8.18338 41.6703 7.93469 41.5257 7.71811L35.4373 0.407409C35.2218 0.148819 34.9024 -0.000564242 34.5658 1.60172e-06H22.4115C22.0788 0.0159867 21.7658 0.162399 21.5401 0.407409L15.463 7.69548C15.3088 7.9071 15.2184 8.15848 15.2027 8.41976C15.2212 8.71626 15.3365 8.99847 15.5309 9.22326L17.9866 11.7243C6.15978 17.5307 1.27924 31.8252 7.08564 43.652C12.892 55.4789 27.1865 60.3594 39.0134 54.553C50.8402 48.7467 55.7208 34.4521 49.9144 22.6253ZM35.0412 3.45165L38.2438 7.27675H33.8529L35.0412 3.45165ZM37.9609 9.54013L30.9558 16.6698L33.1626 9.54013H37.9609ZM27.6852 21.5813C27.9022 21.7894 28.1882 21.9103 28.4887 21.9208C28.7858 21.8959 29.0673 21.7769 29.2922 21.5813L33.3097 17.4959C41.9191 20.1616 46.7376 29.3019 44.0719 37.9114C41.4062 46.5209 32.2658 51.3393 23.6564 48.6736C15.0469 46.0079 10.2285 36.8676 12.8942 28.2581C14.4866 23.115 18.5133 19.0883 23.6564 17.4959L27.6852 21.5813ZM26.2253 9.54013H30.7521L28.4887 16.9527L26.2253 9.54013ZM33.0154 2.25206L32.0196 5.45474L30.356 2.26338L33.0154 2.25206ZM30.4239 7.27675H26.5309L28.4887 3.58745L30.4239 7.27675ZM26.6214 2.26338L24.9352 5.46605L23.9619 2.26338H26.6214ZM26.0329 16.6811L20.7253 11.2716L19.0278 9.55145H23.8261L26.0329 16.6811ZM21.9362 3.45165L23.0679 7.27675H18.7449L21.9362 3.45165ZM28.4887 54.7058C16.5696 54.7032 6.90952 45.0388 6.91207 33.1198C6.91391 24.6194 11.9055 16.9118 19.6615 13.4331L21.9249 15.6965C12.3285 19.334 7.49786 30.0624 11.1354 39.6589C14.7729 49.2553 25.5013 54.0859 35.0977 50.4484C44.6942 46.8108 49.5248 36.0825 45.8873 26.486C44.0013 21.5107 40.0731 17.5825 35.0977 15.6965L37.3611 13.4331C48.2364 18.3109 53.0984 31.0811 48.2208 41.9563C44.7353 49.7273 37.0056 54.7218 28.4887 54.7058Z" fill="white"/>
</svg>
