<svg width="19" height="16" viewBox="0 0 19 16" fill="none" xmlns="http://www.w3.org/2000/svg">
<path d="M17.5 14.2501C17.9142 14.2501 18.25 14.5859 18.25 15.0001C18.25 15.4143 17.9142 15.7501 17.5 15.7501H1.5C1.08579 15.7501 0.75 15.4143 0.75 15.0001C0.75 14.5859 1.08579 14.2501 1.5 14.2501H17.5ZM9.02637 0.418043C9.32095 0.177734 9.75567 0.195197 10.0303 0.469801L13.5 3.93953L16.9697 0.469801C17.1842 0.255322 17.5069 0.190672 17.7871 0.306715C18.0674 0.422801 18.25 0.696728 18.25 1.00007V12.0001C18.25 12.4143 17.9142 12.7501 17.5 12.7501H1.5C1.08579 12.7501 0.75 12.4143 0.75 12.0001V1.00007C0.75 0.696728 0.932635 0.422801 1.21289 0.306715C1.49313 0.190673 1.81579 0.255322 2.03027 0.469801L5.5 3.93953L8.96973 0.469801L9.02637 0.418043ZM6.03027 5.53035C5.73738 5.82324 5.26262 5.82324 4.96973 5.53035L2.25 2.81062V11.2501H16.75V2.81062L14.0303 5.53035C13.7374 5.82324 13.2626 5.82324 12.9697 5.53035L9.5 2.06062L6.03027 5.53035Z" fill="#7E74F1"/>
</svg>
