<svg width="21" height="20" viewBox="0 0 21 20" fill="none" xmlns="http://www.w3.org/2000/svg">
<path d="M10.5 0.25C15.8848 0.25 20.25 4.61522 20.25 10C20.25 15.3848 15.8848 19.75 10.5 19.75C5.11522 19.75 0.75 15.3848 0.75 10C0.75 4.61522 5.11522 0.25 10.5 0.25ZM2.28613 10.75C2.60388 14.2749 5.13667 17.159 8.4834 18C8.28565 17.7513 8.08078 17.4732 7.87598 17.166C6.89624 15.6964 5.92291 13.5548 5.77246 10.75H2.28613ZM15.2275 10.75C15.0771 13.5548 14.1038 15.6964 13.124 17.166C12.9191 17.4734 12.7135 17.7512 12.5156 18C15.8628 17.1593 18.3961 14.2752 18.7139 10.75H15.2275ZM7.27539 10.75C7.42316 13.2003 8.27404 15.059 9.12402 16.334C9.59233 17.0364 10.0593 17.5612 10.4053 17.9072C10.4375 17.9395 10.47 17.9689 10.5 17.998C10.53 17.9689 10.5625 17.9395 10.5947 17.9072C10.9407 17.5612 11.4077 17.0364 11.876 16.334C12.726 15.059 13.5768 13.2003 13.7246 10.75H7.27539ZM12.5156 1.99902C12.7136 2.24802 12.9189 2.52633 13.124 2.83398C14.1038 4.3036 15.0771 6.44519 15.2275 9.25H18.7139C18.3961 5.72469 15.8629 2.83962 12.5156 1.99902ZM10.4053 2.09277C10.0593 2.43879 9.59233 2.96356 9.12402 3.66602C8.27404 4.94099 7.42316 6.7997 7.27539 9.25H13.7246C13.5768 6.7997 12.726 4.94099 11.876 3.66602C11.4077 2.96356 10.9407 2.43879 10.5947 2.09277C10.5623 2.06033 10.5302 2.03024 10.5 2.00098C10.4698 2.03024 10.4377 2.06033 10.4053 2.09277ZM8.4834 1.99902C5.13655 2.83992 2.60388 5.72501 2.28613 9.25H5.77246C5.92291 6.44519 6.89624 4.3036 7.87598 2.83398C8.08095 2.52653 8.2855 2.2479 8.4834 1.99902Z" fill="#7E74F1"/>
</svg>
