<svg width="72" height="40" viewBox="0 0 72 40" fill="none" xmlns="http://www.w3.org/2000/svg">
<path d="M38.6798 10.3L55.9798 25.1375C55.7798 25.25 55.5798 25.3875 55.3798 25.5125C53.1298 27.0625 50.3673 28.05 47.9798 28.05C45.5298 28.05 42.8798 27.0875 40.5798 25.5125C37.8173 23.575 34.1298 23.575 31.3673 25.5125C29.2298 26.9875 26.6173 28.05 23.9673 28.05C22.7048 28.05 21.3298 27.775 19.9798 27.275C20.3798 12.15 32.7673 0 47.9923 0H55.9923C58.2048 0 59.9923 1.7875 59.9923 4C59.9923 6.2125 58.2048 8 55.9923 8H47.9923C44.6298 8 41.4548 8.825 38.6798 10.3ZM19.9923 8C19.9923 10.1217 19.1494 12.1566 17.6491 13.6569C16.1488 15.1571 14.114 16 11.9923 16C9.87055 16 7.83572 15.1571 6.33543 13.6569C4.83514 12.1566 3.99228 10.1217 3.99228 8C3.99228 5.87827 4.83514 3.84344 6.33543 2.34315C7.83572 0.842854 9.87055 0 11.9923 0C14.114 0 16.1488 0.842854 17.6491 2.34315C19.1494 3.84344 19.9923 5.87827 19.9923 8ZM38.3048 28.7375C41.1173 30.675 44.5548 32 47.9923 32C51.3548 32 54.9173 30.65 57.6673 28.7375C59.1548 27.675 61.1798 27.7625 62.5673 28.95C64.3673 30.4375 66.6298 31.575 68.8923 32.1C71.0423 32.6 72.3798 34.75 71.8798 36.9C71.3798 39.05 69.2298 40.3875 67.0798 39.8875C64.0173 39.175 61.4673 37.825 59.8048 36.7625C56.1798 38.7125 52.1173 40 47.9923 40C44.0048 40 40.4173 38.7625 37.9423 37.6375C37.2173 37.3 36.5548 36.975 35.9923 36.675C35.4298 36.975 34.7798 37.3125 34.0423 37.6375C31.5673 38.7625 27.9798 40 23.9923 40C19.8673 40 15.8048 38.7125 12.1798 36.775C10.5048 37.825 7.96728 39.1875 4.90478 39.9C2.75478 40.4 0.604781 39.0625 0.104781 36.9125C-0.395219 34.7625 0.942281 32.6125 3.09228 32.1125C5.35478 31.5875 7.61728 30.45 9.41728 28.9625C10.8048 27.7875 12.8298 27.7 14.3173 28.75C17.0798 30.65 20.6298 32 23.9923 32C27.4298 32 30.8673 30.675 33.6798 28.7375C35.0673 27.75 36.9173 27.75 38.3048 28.7375Z" fill="#D8AE5E"/>
</svg>
