<svg width="64" height="64" viewBox="0 0 64 64" fill="none" xmlns="http://www.w3.org/2000/svg">
<path d="M26.2125 0.425C28.1875 -0.5625 30.5875 0.2375 31.575 2.2125L34.7 8.4625L40 9.525C42.4375 10.0125 44.725 11.0625 46.6875 12.5875L62.45 24.85C64.2 26.2125 64.5125 28.725 63.15 30.4625C61.7875 32.2 59.275 32.525 57.5375 31.1625L48.525 24.15L39.5875 28.125L43.725 31.575C46.625 33.9875 47.9125 37.825 47.0625 41.5L44.8875 50.9C44.6125 52.075 43.8625 53 42.875 53.525L53.6875 57.6625C54.2625 57.8875 54.8625 57.9875 55.475 57.9875H59C60.6625 57.9875 62 59.325 62 60.9875C62 62.65 60.6625 63.9875 59 63.9875H55.475C54.125 63.9875 52.8 63.7375 51.5375 63.2625L7.5125 46.4125C6.075 45.8625 4.7625 45.0125 3.6625 43.9125L0.875001 41.125C-0.299998 39.95 -0.299998 38.05 0.875001 36.8875C2.05 35.725 3.95 35.7125 5.1125 36.8875L7.9125 39.6875C8.4125 40.1875 9 40.575 9.6625 40.825L12.4625 41.9C12.3625 41.7 12.275 41.5 12.2 41.2875C11.5 39.1875 12.6375 36.925 14.725 36.225L24 33.1125V26.4625C24 23.4375 25.7125 20.6625 28.425 19.3125L34.075 16.4875L33.1375 16.3C30.7125 15.8125 28.65 14.2375 27.55 12.0375L24.425 5.7875C23.4375 3.8125 24.2375 1.4125 26.2125 0.425ZM17.375 43.7625L37.25 51.375C36.9875 50.675 36.925 49.8875 37.1125 49.1L39.2875 39.7C39.4625 38.9625 39.2 38.2 38.625 37.7125L32.025 32.2125V34.5625C32.025 37.15 30.375 39.4375 27.925 40.25L17.375 43.7625ZM54 0C55.5913 0 57.1174 0.632141 58.2426 1.75736C59.3679 2.88258 60 4.4087 60 6C60 7.5913 59.3679 9.11742 58.2426 10.2426C57.1174 11.3679 55.5913 12 54 12C52.4087 12 50.8826 11.3679 49.7574 10.2426C48.6321 9.11742 48 7.5913 48 6C48 4.4087 48.6321 2.88258 49.7574 1.75736C50.8826 0.632141 52.4087 0 54 0Z" fill="#D8AE5E"/>
</svg>
