<svg width="72" height="56" viewBox="0 0 72 56" fill="none" xmlns="http://www.w3.org/2000/svg">
<path d="M3.6 0C1.60875 0 0 1.7875 0 4C0 6.2125 1.60875 8 3.6 8V28C3.6 34.625 8.4375 40 14.4 40V44H21.6V40H43.2V44H50.4V40C56.3625 40 61.2 34.625 61.2 28V16C63.1912 16 64.8 14.2125 64.8 12C64.8 9.7875 63.1912 8 61.2 8H57.6H54C52.0087 8 50.4 9.7875 50.4 12V17.1625C50.4 20.9375 47.6437 24 44.2462 24C35.7525 24 27.8662 19.1375 23.3662 11.1375L22.8825 10.275C19.5975 4.45 14.0625 0.7 7.95375 0.0875001C7.70625 0.0250001 7.45875 0 7.2 0H6.1875H3.6ZM72 44C72 41.7875 70.3913 40 68.4 40C66.4087 40 64.8 41.7875 64.8 44V45C64.8 46.6625 63.5962 48 62.1 48H7.2C5.20875 48 3.6 49.7875 3.6 52C3.6 54.2125 5.20875 56 7.2 56H62.1C67.5675 56 72 51.075 72 45V44Z" fill="#D8AE5E"/>
</svg>
