<svg width="48" height="64" viewBox="0 0 48 64" fill="none" xmlns="http://www.w3.org/2000/svg">
<path d="M23.2175 6C23.2175 4.4087 23.8497 2.88258 24.9749 1.75736C26.1001 0.632141 27.6262 0 29.2175 0C30.8088 0 32.335 0.632141 33.4602 1.75736C34.5854 2.88258 35.2175 4.4087 35.2175 6C35.2175 7.5913 34.5854 9.11742 33.4602 10.2426C32.335 11.3679 30.8088 12 29.2175 12C27.6262 12 26.1001 11.3679 24.9749 10.2426C23.8497 9.11742 23.2175 7.5913 23.2175 6ZM29.63 28.8375L27.2425 38.375L33.455 44.5875C34.58 45.7125 35.2175 47.2375 35.2175 48.825V60C35.2175 62.2125 33.43 64 31.2175 64C29.005 64 27.2175 62.2125 27.2175 60V49.6625L17.98 40.425C16.005 38.45 15.205 35.6 15.8675 32.8875L18.4175 22.3875C19.455 18.125 23.755 15.525 28.005 16.5875C30.38 17.1875 32.455 18.6375 33.805 20.675L37.355 26H41.2175V23C41.2175 21.3375 42.555 20 44.2175 20C45.88 20 47.2175 21.3375 47.2175 23V29.975C47.2175 29.9875 47.2175 30 47.2175 30V30.025V61C47.2175 62.6625 45.88 64 44.2175 64C42.555 64 41.2175 62.6625 41.2175 61V34H36.2925C34.2925 34 32.4175 33 31.305 31.325L29.6425 28.825L29.63 28.8375ZM9.35504 58.9875L13.88 41.75C14.255 42.275 14.68 42.775 15.1425 43.2375L20.38 48.475L17.08 61.0125C16.5175 63.15 14.33 64.425 12.1925 63.8625C10.055 63.3 8.78004 61.1125 9.34254 58.975L9.35504 58.9875ZM16.2925 15.7375L11.8925 33.3125C11.5175 34.825 10.03 35.8 8.49254 35.55L2.50504 34.55C0.755041 34.2625 -0.357459 32.5125 0.105041 30.8L3.20504 19.375C4.39254 15.025 8.34254 12 12.855 12H13.38C15.33 12 16.7675 13.8375 16.2925 15.725V15.7375Z" fill="#D8AE5E"/>
</svg>
