<svg xmlns="http://www.w3.org/2000/svg" width="323" height="397" fill="none" viewBox="0 0 323 397"><path fill="#fff" fill-opacity=".57" d="M53.73 363.57c-4.76-10.07-6.67-20.88-8.5-31.38-1.14-6.4-2.3-13.01-4.08-19.44a202 202 0 0 0-24.93-55.6l-1.87-2.9c-8.03-12.3-17.1-26.21-13.57-40.64 2.7-10.96 12.1-19.88 28.73-27.26 10.87-4.83 18.92-9.28 25.33-14.03 8.48-6.21 13.78-12.97 15.92-20.02 2.45-8.18.62-17.13-5.46-26.58-2.57-4-5.63-7.85-8.58-11.56-5.5-6.95-11.2-14.13-13.97-22.56q-.36-1.12-.65-2.22c-1.74-7.01-1.51-14.36.66-21.25A52.5 52.5 0 0 1 53.2 49.22C63.25 37.47 77.27 30.1 88.37 25.03a330 330 0 0 1 47-17.59C153.9 2.18 170.5-.31 184.77.03a81 81 0 0 1 38.25 10.56c12.23 7.17 21.02 17.13 25.29 28.87 4.12 11.33 3.96 23.58 3.8 35.43-.05 4.86-.11 9.89.13 14.77.67 13.4 3.64 26.59 8.78 38.98a123 123 0 0 0 21.02 34.05q6.71 7.45 14.16 14.14c13.36 12.43 25.98 24.17 26.77 46.1.43 12.29-4.22 24.63-13.48 35.62-8.13 9.66-19.63 18.01-32.36 23.53-13.4 5.8-27.82 9.25-41.78 12.6-11.25 2.7-22.87 5.46-33.92 9.48-12.35 4.48-29.53 12.95-41.25 27.87-5.34 6.78-8.78 14.8-12.12 22.57-2.82 6.6-5.75 13.42-9.85 19.58-4.87 7.34-13.27 16.9-25.56 20.82-9.84 3.14-20.67 2.03-31.25-3.15a60.5 60.5 0 0 1-27.67-28.28m-23.67-83.78a205 205 0 0 1 12.12 32.66c1.8 6.49 2.97 13.13 4.1 19.55 2.34 13.27 4.53 25.74 11.8 37.3a59.5 59.5 0 0 0 23.8 21.58c10.35 5.07 20.87 6.15 30.44 3.09 11.97-3.82 20.17-13.18 24.95-20.37 4.04-6.08 6.95-12.86 9.76-19.4 3.36-7.83 6.85-15.93 12.25-22.82 11.9-15.12 29.27-23.7 41.75-28.23 11.09-4.02 22.75-6.81 34.04-9.51 13.92-3.34 28.31-6.74 41.64-12.56 12.58-5.45 23.92-13.7 31.96-23.22 9.08-10.78 13.64-22.83 13.21-34.87-.79-21.5-13.25-33.08-26.44-45.36q-7.49-6.72-14.24-14.2a124 124 0 0 1-21.18-34.33 118 118 0 0 1-8.89-39.39c-.24-4.92-.18-9.96-.11-14.83.13-11.77.27-23.93-3.75-35.04-4.17-11.5-12.75-21.28-24.8-28.29A80 80 0 0 0 184.7 1.12C170.54.8 154.02 3.27 135.63 8.5a328 328 0 0 0-46.81 17.53c-11 5.04-24.9 12.3-34.8 23.9a51 51 0 0 0-10.23 18.51 38.3 38.3 0 0 0-.65 20.64q.28 1.09.64 2.16c2.72 8.24 8.35 15.34 13.82 22.22 2.96 3.75 6.03 7.62 8.64 11.66 6.25 9.74 8.14 18.99 5.59 27.5-2.18 7.26-7.67 14.2-16.33 20.6-6.48 4.78-14.6 9.27-25.54 14.13-16.3 7.24-25.5 15.92-28.08 26.55-1.48 6.23-.76 12.89 2.36 20.4 2.74 6.63 6.91 13.11 10.96 19.34l1.9 2.9a203 203 0 0 1 12.96 23.26"/></svg>