<svg width="20" height="10" viewBox="0 0 20 10" fill="none" xmlns="http://www.w3.org/2000/svg"><path d="M4.233 0.316 C 2.215 0.662,0.664 2.206,0.316 4.217 C 0.239 4.656,0.239 5.345,0.316 5.783 C 0.481 6.733,0.945 7.644,1.611 8.328 C 2.107 8.838,2.835 9.286,3.533 9.513 C 4.195 9.727,4.395 9.748,5.867 9.749 C 7.314 9.750,7.277 9.755,7.511 9.538 C 7.889 9.187,7.795 8.571,7.326 8.330 C 7.212 8.271,7.119 8.267,6.093 8.266 C 4.917 8.266,4.535 8.240,4.137 8.131 C 2.993 7.820,2.068 6.838,1.830 5.684 C 1.747 5.285,1.747 4.715,1.830 4.316 C 2.069 3.156,2.994 2.181,4.160 1.859 C 4.396 1.794,4.527 1.787,5.800 1.769 C 7.135 1.751,7.188 1.747,7.317 1.678 C 7.590 1.531,7.744 1.286,7.744 1.000 C 7.744 0.717,7.586 0.464,7.326 0.330 C 7.210 0.271,7.119 0.267,5.843 0.270 C 4.902 0.272,4.406 0.287,4.233 0.316 M12.683 0.322 C 12.112 0.623,12.112 1.370,12.683 1.678 C 12.812 1.747,12.865 1.751,14.200 1.769 C 15.473 1.787,15.604 1.794,15.840 1.859 C 17.006 2.181,17.931 3.156,18.170 4.316 C 18.253 4.715,18.253 5.285,18.170 5.684 C 17.970 6.656,17.271 7.527,16.353 7.952 C 15.779 8.217,15.398 8.266,13.907 8.266 C 12.881 8.267,12.788 8.271,12.674 8.330 C 12.205 8.571,12.111 9.187,12.489 9.538 C 12.722 9.755,12.686 9.750,14.133 9.749 C 15.609 9.748,15.778 9.731,16.461 9.512 C 17.196 9.277,17.782 8.916,18.349 8.349 C 18.916 7.782,19.277 7.196,19.512 6.461 C 19.678 5.943,19.741 5.538,19.741 5.000 C 19.741 3.733,19.271 2.584,18.383 1.682 C 18.033 1.327,17.768 1.119,17.373 0.892 C 16.858 0.596,16.344 0.413,15.750 0.316 C 15.298 0.242,12.826 0.247,12.683 0.322 M5.683 4.322 C 5.112 4.623,5.112 5.370,5.683 5.678 L 5.817 5.750 10.000 5.750 L 14.183 5.750 14.317 5.678 C 14.590 5.531,14.744 5.286,14.744 5.000 C 14.744 4.717,14.586 4.464,14.326 4.330 C 14.207 4.269,14.071 4.267,9.993 4.268 C 6.224 4.269,5.773 4.275,5.683 4.322 " fill="#656D72" stroke="none" fill-rule="evenodd"></path></svg>