<svg width="329" height="401" viewBox="0 0 329 401" fill="none" xmlns="http://www.w3.org/2000/svg">
<path d="M166.916 10.2944C176.152 16.5083 183.325 24.8382 190.296 32.9323C194.541 37.8532 198.914 42.8987 203.738 47.542C218.496 61.6643 235.304 73.4731 253.594 82.568L256.699 84.0979C269.872 90.5628 284.802 97.8968 289.137 112.126C292.426 122.911 288.911 135.354 278.404 150.236C271.537 159.951 266.897 167.882 263.815 175.235C259.741 184.947 258.588 193.47 260.378 200.589C262.472 208.878 268.614 215.648 278.668 220.635C282.919 222.751 287.508 224.521 291.953 226.188C300.233 229.34 308.79 232.596 315.503 238.414C316.084 238.923 316.646 239.445 317.201 239.987C322.272 245.12 325.833 251.549 327.493 258.57C329.225 265.641 329.467 272.994 328.203 280.163C325.581 295.414 317.281 308.898 310.346 318.944C300.904 332.766 290.421 345.846 278.988 358.072C265.77 372.048 252.77 382.688 240.336 389.712C228.627 396.333 215.458 399.94 202.01 400.209C187.819 400.363 175.187 396.259 165.517 388.347C156.221 380.749 150.068 370.126 144.127 359.88C141.689 355.671 139.173 351.32 136.481 347.245C129.043 336.072 119.74 326.26 108.978 318.238C98.2412 310.179 86.2576 303.933 73.5027 299.746C67.1294 297.766 60.6556 296.126 54.1084 294.832C36.2772 290.995 19.4211 287.363 7.52408 268.92C0.842637 258.568 -1.45172 245.595 0.892747 231.46C2.9432 219.007 8.54534 205.947 16.6639 194.696C25.1996 182.857 35.8268 172.508 46.1149 162.496C54.3843 154.322 62.9714 145.955 70.4009 136.913C78.7119 126.747 89.1541 110.673 91.5914 91.855C92.7009 83.3077 91.5571 74.652 90.4497 66.274C89.5184 59.164 88.5533 51.7962 88.8969 44.4082C89.3389 35.6155 91.6545 23.1075 100.196 13.4657C107.05 5.72937 116.887 1.13253 128.713 0.168526C139.81 -0.660402 150.921 1.57966 160.829 6.64351C162.928 7.74046 164.96 8.95951 166.916 10.2944ZM230.115 70.1908C220.465 63.6936 211.386 56.3862 202.976 48.3478C198.121 43.6985 193.721 38.5962 189.463 33.6568C180.685 23.4694 172.395 13.8534 160.242 7.62816C150.528 2.66133 139.636 0.45928 128.756 1.26242C117.279 2.20079 107.687 6.66469 101.026 14.1841C92.7055 23.5851 90.4368 35.8348 90.0124 44.4538C89.6459 51.7438 90.6131 59.0509 91.5491 66.1199C92.6557 74.5686 93.7987 83.295 92.6987 91.9924C90.2146 111.068 79.6643 127.318 71.267 137.596C63.7984 146.724 55.2014 155.093 46.8819 163.192C36.6296 173.169 26.0381 183.483 17.5568 195.275C9.53428 206.413 4.00272 219.241 1.98154 231.61C-0.302252 245.515 1.9359 258.213 8.46458 268.322C20.1199 286.384 36.7488 289.975 54.3514 293.762C60.9365 295.064 67.4483 296.713 73.86 298.701C86.7306 302.922 98.8214 309.226 109.65 317.363C120.511 325.461 129.9 335.363 137.41 346.639C140.127 350.751 142.655 355.11 145.125 359.336C151.027 369.517 157.116 380.036 166.265 387.512C175.732 395.259 188.11 399.276 202.081 399.131C215.338 398.86 228.319 395.298 239.859 388.766C252.202 381.814 265.119 371.236 278.256 357.331C289.631 345.146 300.063 332.113 309.46 318.344C316.324 308.368 324.563 295.033 327.144 280.009C328.374 272.99 328.139 265.792 326.453 258.868C324.836 252.044 321.376 245.794 316.451 240.802C315.928 240.275 315.367 239.764 314.798 239.273C308.243 233.586 299.773 230.368 291.577 227.246C287.119 225.55 282.501 223.795 278.195 221.645C267.836 216.486 261.475 209.503 259.342 200.916C257.491 193.563 258.663 184.796 262.829 174.87C265.946 167.401 270.622 159.436 277.541 149.653C287.839 135.101 291.301 122.948 288.117 112.501C286.306 106.374 282.168 101.046 275.641 96.1818C269.855 91.8964 262.93 88.4662 256.247 85.186L253.141 83.6561C245.18 79.6766 237.488 75.1785 230.115 70.1908Z" fill="black"/>
</svg>
