<svg width="314" height="311" viewBox="0 0 314 311" fill="none" xmlns="http://www.w3.org/2000/svg">
<path d="M265.531 310.991C255.509 311.176 245.919 308.462 236.61 305.803C230.933 304.197 225.074 302.535 219.137 301.514C200.95 298.371 182.45 298.301 164.266 301.307L161.195 301.824C148.13 304.066 133.359 306.59 122.795 297.432C114.784 290.457 110.91 278.224 110.961 260.027C110.994 248.133 110.293 238.962 108.753 231.168C106.761 220.881 103.161 213.265 98.1533 208.406C92.3298 202.802 84.3026 200.789 74.2983 202.434C70.0683 203.123 65.7757 204.322 61.6354 205.479C53.9012 207.623 45.9076 209.861 37.9542 208.918C37.259 208.83 36.5634 208.723 35.8855 208.596C29.4879 207.29 23.5313 204.053 18.6699 199.24C13.7317 194.43 9.74528 188.535 6.96424 181.931C1.00362 167.926 0.108125 152.117 0.0268805 139.914C-0.175859 123.164 0.770726 106.426 2.85842 89.8448C5.35302 70.7923 9.41472 54.6517 14.9421 41.7853C20.1297 29.6731 27.9497 19.1926 37.7001 11.2847C48.088 3.09007 59.5099 -0.812141 70.7333 0.140972C81.5595 1.0514 91.5641 6.24847 101.25 11.2714C105.225 13.3287 109.335 15.4535 113.431 17.2485C124.696 22.1605 136.629 24.8874 148.711 25.3099C160.794 25.7822 172.858 24.0523 184.422 20.1888C190.145 18.1634 195.767 15.8023 201.262 13.1155C216.392 6.06377 230.681 -0.592332 249.004 7.72223C259.26 12.3945 267.692 21.722 273.318 34.6825C278.267 46.0751 280.902 59.9912 280.753 73.8687C280.59 88.4567 278.121 103.027 275.733 117.126C273.808 128.486 271.808 140.207 271.043 151.935C270.186 165.035 270.828 184.18 278.777 201.009C282.387 208.665 287.712 215.109 292.872 221.345C297.248 226.636 301.781 232.115 305.338 238.391C309.575 245.855 314.347 257.441 313.052 270.26C312.007 280.522 307.11 289.926 298.961 297.439C291.22 304.451 281.882 308.953 271.971 310.452C269.836 310.774 267.686 310.954 265.531 310.991ZM187.968 298.028C198.442 297.847 208.914 298.658 219.27 300.451C225.262 301.481 231.148 303.153 236.843 304.768C248.615 308.102 259.672 311.249 271.852 309.394C281.581 307.913 290.746 303.487 298.342 296.6C306.314 289.261 311.072 280.12 312.077 270.138C313.342 257.66 308.664 246.322 304.512 239.007C301.002 232.819 296.505 227.38 292.156 222.119C286.96 215.833 281.588 209.31 277.914 201.555C269.861 184.488 269.206 165.123 270.069 151.883C270.843 140.124 272.841 128.343 274.774 116.944C277.154 102.895 279.652 88.374 279.77 73.8368C279.923 60.1293 277.318 46.3927 272.444 35.1488C266.931 22.4363 258.7 13.3051 248.644 8.73922C230.685 0.597996 216.583 7.1806 201.642 14.1388C196.119 16.8393 190.471 19.2142 184.721 21.2537C173.064 25.1499 160.903 26.8919 148.722 26.4101C136.514 25.9948 124.453 23.2429 113.072 18.2755C108.94 16.4712 104.82 14.3365 100.836 12.2693C91.2142 7.29529 81.2737 2.15706 70.6635 1.24264C59.6747 0.305198 48.4758 4.09326 38.2842 12.1842C28.6576 19.9921 20.9372 30.3402 15.8164 42.2993C10.3321 55.0649 6.29617 71.1349 3.81699 90.0472C1.73551 106.561 0.793685 123.233 0.999754 139.916C1.09698 152.009 1.95369 167.668 7.83858 181.474C10.5602 187.939 14.4615 193.71 19.2942 198.419C24.0185 203.094 29.804 206.244 36.0188 207.523C36.6786 207.641 37.3561 207.748 38.0242 207.826C45.8059 208.743 53.71 206.536 61.3812 204.394C65.5484 203.236 69.8591 202.036 74.1427 201.327C84.4435 199.636 92.7424 201.734 98.7953 207.564C103.968 212.54 107.644 220.405 109.721 230.93C111.272 238.804 111.974 248.044 111.943 260.019C111.894 277.856 115.646 289.811 123.427 296.55C128.003 300.466 133.744 302.551 141.072 302.806C147.526 303.037 154.387 301.91 160.996 300.787L164.076 300.26C171.985 298.936 179.967 298.191 187.968 298.028Z" fill="white" fill-opacity="0.57"/>
</svg>
