<svg width="16" height="16" viewBox="0 0 16 16" fill="none" xmlns="http://www.w3.org/2000/svg">
<path fill-rule="evenodd" clip-rule="evenodd" d="M0.314558 6.66495L4.15412 8.01068C4.43775 8.11044 4.75417 8.0781 5.00886 7.92458L13.5355 2.78131L6.50272 9.12178C6.31315 9.29262 6.2051 9.52951 6.20414 9.77688L6.18002 15.27C6.17809 15.7634 6.8915 15.9078 7.10325 15.4568L8.98107 11.457C9.09635 11.2119 9.4094 11.113 9.65733 11.2438L14.6372 13.8655C14.9498 14.0304 15.3371 13.8268 15.3535 13.4892L15.9994 0.47709C16.0158 0.144987 15.6617 -0.0914484 15.3356 0.0342859L0.30057 5.81625C-0.107022 5.97296 -0.0978572 6.52054 0.314558 6.66495Z" fill="white"/>
</svg>
