<svg width="16" height="14" viewBox="0 0 16 14" fill="none" xmlns="http://www.w3.org/2000/svg">
<path d="M7.50327 0.168131C7.58096 -0.0560451 7.898 -0.0560456 7.9757 0.168131L9.6406 4.97194C9.67549 5.07258 9.7703 5.14007 9.87682 5.14007H15.2285C15.4746 5.14007 15.5726 5.45817 15.3692 5.59669L11.068 8.52641C10.9747 8.58998 10.9355 8.70821 10.9725 8.8149L12.6219 13.5739C12.7007 13.8014 12.4439 13.9979 12.2449 13.8624L7.88022 10.8894C7.79531 10.8316 7.68366 10.8316 7.59874 10.8894L3.23404 13.8624C3.03502 13.9979 2.77823 13.8014 2.85709 13.5739L4.50646 8.81491C4.54343 8.70821 4.5043 8.58998 4.41098 8.52641L0.109736 5.59669C-0.0936372 5.45817 0.00440526 5.14007 0.250474 5.14007H5.60214C5.70866 5.14007 5.80348 5.07258 5.83836 4.97194L7.50327 0.168131Z" fill="#FBB040"/>
</svg>
