<svg width="21" height="21" viewBox="0 0 21 21" fill="none" xmlns="http://www.w3.org/2000/svg">
<path d="M20.8733 6.22695L18.6376 4.87512V0.283502C18.6376 0.138305 18.5201 0.0209465 18.3751 0.0209465H15.0608C14.916 0.0209465 14.7984 0.138305 14.7984 0.283502V2.55398L10.6366 0.0377693C10.6102 0.0219479 10.5811 0.0117341 10.5513 0.00692755C10.4844 -0.00869362 10.4143 0.0023213 10.3554 0.0377693L0.126571 6.22695C0.0480651 6.27421 0 6.35973 0 6.45145V8.61698C0 8.71111 0.0502681 8.79803 0.131778 8.84469C0.213489 8.89155 0.313825 8.89115 0.394935 8.84369L1.93542 7.94307V18.5218H1.20243C1.05743 18.5218 0.940073 18.6392 0.940073 18.7843V20.7374C0.940073 20.8824 1.05743 20.9999 1.20243 20.9999H19.7974C19.9424 20.9999 20.06 20.8824 20.06 20.7374V18.7843C20.06 18.6392 19.9424 18.5218 19.7974 18.5218H19.0644V7.94367L20.6051 8.84369C20.6459 8.86752 20.6916 8.87954 20.7375 8.87954C20.7825 8.87954 20.8276 8.86792 20.868 8.84469C20.9498 8.79803 20.9998 8.71111 20.9998 8.61698V6.45145C20.9998 6.35973 20.9518 6.27421 20.8733 6.22695ZM15.3233 0.545857H18.1125V4.55769L15.3233 2.87141V0.545857ZM19.5348 20.4748H1.46498V19.0467H19.5348V20.4748ZM12.8624 18.5218H8.13742V10.3231H12.8624V18.5218ZM18.5395 18.5218H13.3875V10.0605C13.3875 9.91534 13.27 9.79798 13.125 9.79798H7.87486C7.73006 9.79798 7.61251 9.91534 7.61251 10.0605V18.5218H2.46033V7.63605L10.496 2.9377L18.5395 7.63686V18.5218ZM20.4749 8.15976L10.6284 2.40698C10.5875 2.38314 10.5417 2.37113 10.496 2.37113C10.4501 2.37113 10.4045 2.38314 10.3634 2.40698L0.524911 8.15936V6.59925L10.496 0.566485L20.4749 6.59925V8.15976Z" fill="#31353B"/>
</svg>
