<svg xmlns="http://www.w3.org/2000/svg" width="18" height="17" fill="none" viewBox="0 0 18 17"><path fill="#fff" d="M3.6 6.64c0-.37.3-.67.69-.67h.1c.37 0 .68.3.68.67 0 .36-.3.66-.69.66h-.1a.67.67 0 0 1-.68-.66m0 2.65c0-.37.3-.66.69-.66h.1c.37 0 .68.3.68.66s-.3.66-.69.66h-.1a.67.67 0 0 1-.68-.66m8.82 0c0-.37.3-.66.68-.66h.1c.38 0 .69.3.69.66s-.31.66-.69.66h-.1a.67.67 0 0 1-.68-.66m0-2.65c0-.37.3-.67.68-.67h.1c.38 0 .69.3.69.67 0 .36-.31.66-.69.66h-.1a.67.67 0 0 1-.68-.66m-5.88 0c0-.37.3-.67.68-.67h.1c.38 0 .69.3.69.67 0 .36-.3.66-.69.66h-.1a.67.67 0 0 1-.68-.66m2.94 0c0-.37.3-.67.68-.67h.1c.38 0 .69.3.69.67 0 .36-.31.66-.69.66h-.1a.67.67 0 0 1-.68-.66m0 2.65c0-.37.3-.66.68-.66h.1c.38 0 .69.3.69.66s-.31.66-.69.66h-.1a.67.67 0 0 1-.68-.66m-2.94 0c0-.37.3-.66.68-.66h.1c.38 0 .69.3.69.66s-.3.66-.69.66h-.1a.67.67 0 0 1-.68-.66M3.6 11.61c0-.36.3-.66.69-.66h.1c.37 0 .68.3.68.66s-.3.67-.69.67h-.1a.67.67 0 0 1-.68-.67m2.94 0c0-.36.3-.66.68-.66h.1c.38 0 .69.3.69.66s-.3.67-.69.67h-.1a.67.67 0 0 1-.68-.67m2.94 0c0-.36.3-.66.68-.66h.1c.38 0 .69.3.69.66s-.31.67-.69.67h-.1a.67.67 0 0 1-.68-.67M16.17 13.38h-2.74v-2.65h.91v1.77h1.83z"/><path fill="#fff" d="M13.89 9.84c1.73 0 3.2 1.42 3.2 3.1s-1.47 3.1-3.2 3.1a3.2 3.2 0 0 1-3.2-3.1c0-1.68 1.46-3.1 3.2-3.1m0-.88a4.03 4.03 0 0 0-4.12 3.98 4.03 4.03 0 0 0 4.12 3.98A4.03 4.03 0 0 0 18 12.94a4.03 4.03 0 0 0-4.11-3.98"/><path fill="#fff" d="M1.22 2.53q.2-.18.47-.18h14.1q.28 0 .47.18.2.2.2.46v5.63q.56.3 1.03.75V3q-.01-.68-.5-1.16c-.32-.3-.75-.48-1.2-.48H1.7c-.45 0-.88.17-1.2.48S0 2.55 0 2.99v11.37c0 .43.18.85.5 1.16.31.3.74.48 1.19.48h8.13q-.38-.46-.62-1H1.69a.7.7 0 0 1-.47-.19.6.6 0 0 1-.2-.45V3q.01-.27.2-.46"/><rect width="1.03" height="3.98" x="3.6" fill="#fff" rx=".5"/><rect width="1.03" height="3.98" x="8.23" fill="#fff" rx=".5"/><rect width="1.03" height="3.98" x="12.86" fill="#fff" rx=".5"/></svg>