<svg width="122" height="122" viewBox="0 0 122 122" fill="none" xmlns="http://www.w3.org/2000/svg">
<rect width="10" height="10" rx="5" fill="#81818B" fill-opacity="0.2"/>
<rect x="16" width="10" height="10" rx="5" fill="#81818B" fill-opacity="0.2"/>
<rect x="32" width="10" height="10" rx="5" fill="#81818B" fill-opacity="0.2"/>
<rect x="48" width="10" height="10" rx="5" fill="#81818B" fill-opacity="0.2"/>
<rect x="64" width="10" height="10" rx="5" fill="#81818B" fill-opacity="0.2"/>
<rect x="80" width="10" height="10" rx="5" fill="#81818B" fill-opacity="0.2"/>
<rect x="96" width="10" height="10" rx="5" fill="#81818B" fill-opacity="0.2"/>
<rect x="112" width="10" height="10" rx="5" fill="#81818B" fill-opacity="0.2"/>
<rect y="16" width="10" height="10" rx="5" fill="#81818B" fill-opacity="0.2"/>
<rect x="16" y="16" width="10" height="10" rx="5" fill="#81818B" fill-opacity="0.2"/>
<rect x="32" y="16" width="10" height="10" rx="5" fill="#81818B" fill-opacity="0.2"/>
<rect x="48" y="16" width="10" height="10" rx="5" fill="#81818B" fill-opacity="0.2"/>
<rect x="64" y="16" width="10" height="10" rx="5" fill="#81818B" fill-opacity="0.2"/>
<rect x="80" y="16" width="10" height="10" rx="5" fill="#81818B" fill-opacity="0.2"/>
<rect x="96" y="16" width="10" height="10" rx="5" fill="#81818B" fill-opacity="0.2"/>
<rect x="112" y="16" width="10" height="10" rx="5" fill="#81818B" fill-opacity="0.2"/>
<rect y="32" width="10" height="10" rx="5" fill="#81818B" fill-opacity="0.2"/>
<rect x="16" y="32" width="10" height="10" rx="5" fill="#81818B" fill-opacity="0.2"/>
<rect x="32" y="32" width="10" height="10" rx="5" fill="#81818B" fill-opacity="0.2"/>
<rect x="48" y="32" width="10" height="10" rx="5" fill="#81818B" fill-opacity="0.2"/>
<rect x="64" y="32" width="10" height="10" rx="5" fill="#81818B" fill-opacity="0.2"/>
<rect x="80" y="32" width="10" height="10" rx="5" fill="#81818B" fill-opacity="0.2"/>
<rect x="96" y="32" width="10" height="10" rx="5" fill="#81818B" fill-opacity="0.2"/>
<rect x="112" y="32" width="10" height="10" rx="5" fill="#81818B" fill-opacity="0.2"/>
<rect y="48" width="10" height="10" rx="5" fill="#81818B" fill-opacity="0.2"/>
<rect x="16" y="48" width="10" height="10" rx="5" fill="#81818B" fill-opacity="0.2"/>
<rect x="32" y="48" width="10" height="10" rx="5" fill="#81818B" fill-opacity="0.2"/>
<rect x="48" y="48" width="10" height="10" rx="5" fill="#81818B" fill-opacity="0.2"/>
<rect x="64" y="48" width="10" height="10" rx="5" fill="#81818B" fill-opacity="0.2"/>
<rect x="80" y="48" width="10" height="10" rx="5" fill="#81818B" fill-opacity="0.2"/>
<rect x="96" y="48" width="10" height="10" rx="5" fill="#81818B" fill-opacity="0.2"/>
<rect x="112" y="48" width="10" height="10" rx="5" fill="#81818B" fill-opacity="0.2"/>
<rect y="64" width="10" height="10" rx="5" fill="#81818B" fill-opacity="0.2"/>
<rect x="16" y="64" width="10" height="10" rx="5" fill="#81818B" fill-opacity="0.2"/>
<rect x="32" y="64" width="10" height="10" rx="5" fill="#81818B" fill-opacity="0.2"/>
<rect x="48" y="64" width="10" height="10" rx="5" fill="#81818B" fill-opacity="0.2"/>
<rect x="64" y="64" width="10" height="10" rx="5" fill="#81818B" fill-opacity="0.2"/>
<rect x="80" y="64" width="10" height="10" rx="5" fill="#81818B" fill-opacity="0.2"/>
<rect x="96" y="64" width="10" height="10" rx="5" fill="#81818B" fill-opacity="0.2"/>
<rect x="112" y="64" width="10" height="10" rx="5" fill="#81818B" fill-opacity="0.2"/>
<rect y="80" width="10" height="10" rx="5" fill="#81818B" fill-opacity="0.2"/>
<rect x="16" y="80" width="10" height="10" rx="5" fill="#81818B" fill-opacity="0.2"/>
<rect x="32" y="80" width="10" height="10" rx="5" fill="#81818B" fill-opacity="0.2"/>
<rect x="48" y="80" width="10" height="10" rx="5" fill="#81818B" fill-opacity="0.2"/>
<rect x="64" y="80" width="10" height="10" rx="5" fill="#81818B" fill-opacity="0.2"/>
<rect x="80" y="80" width="10" height="10" rx="5" fill="#81818B" fill-opacity="0.2"/>
<rect x="96" y="80" width="10" height="10" rx="5" fill="#81818B" fill-opacity="0.2"/>
<rect x="112" y="80" width="10" height="10" rx="5" fill="#81818B" fill-opacity="0.2"/>
<rect y="96" width="10" height="10" rx="5" fill="#81818B" fill-opacity="0.2"/>
<rect x="16" y="96" width="10" height="10" rx="5" fill="#81818B" fill-opacity="0.2"/>
<rect x="32" y="96" width="10" height="10" rx="5" fill="#81818B" fill-opacity="0.2"/>
<rect x="48" y="96" width="10" height="10" rx="5" fill="#81818B" fill-opacity="0.2"/>
<rect x="64" y="96" width="10" height="10" rx="5" fill="#81818B" fill-opacity="0.2"/>
<rect x="80" y="96" width="10" height="10" rx="5" fill="#81818B" fill-opacity="0.2"/>
<rect x="96" y="96" width="10" height="10" rx="5" fill="#81818B" fill-opacity="0.2"/>
<rect x="112" y="96" width="10" height="10" rx="5" fill="#81818B" fill-opacity="0.2"/>
<rect y="112" width="10" height="10" rx="5" fill="#81818B" fill-opacity="0.2"/>
<rect x="16" y="112" width="10" height="10" rx="5" fill="#81818B" fill-opacity="0.2"/>
<rect x="32" y="112" width="10" height="10" rx="5" fill="#81818B" fill-opacity="0.2"/>
<rect x="48" y="112" width="10" height="10" rx="5" fill="#81818B" fill-opacity="0.2"/>
<rect x="64" y="112" width="10" height="10" rx="5" fill="#81818B" fill-opacity="0.2"/>
<rect x="80" y="112" width="10" height="10" rx="5" fill="#81818B" fill-opacity="0.2"/>
<rect x="96" y="112" width="10" height="10" rx="5" fill="#81818B" fill-opacity="0.2"/>
<rect x="112" y="112" width="10" height="10" rx="5" fill="#81818B" fill-opacity="0.2"/>
</svg>
