<svg width="31" height="33" viewBox="0 0 31 33" fill="none" xmlns="http://www.w3.org/2000/svg">
<path d="M16.005 7.36797C16.005 3.29873 19.3038 0 23.373 0H30.7409V7.36797C30.7409 11.4372 27.4422 14.7359 23.373 14.7359C19.3038 14.7359 16.005 11.4372 16.005 7.36797Z" fill="#FF6D35"/>
<path d="M23.3729 32.4131C19.3037 32.4131 16.0049 29.1143 16.0049 25.0451V17.6771H23.3729C27.4421 17.6771 30.7408 20.9759 30.7408 25.0451C30.7408 29.1143 27.4421 32.4131 23.3729 32.4131Z" fill="#5CC97B"/>
<path d="M13.6834 15.3881C13.6834 7.21135 7.5571 0.582878 0 0.582878V24.7573C0 28.8456 3.06312 32.1599 6.84178 32.1599C10.6203 32.1599 13.6834 28.8456 13.6834 24.7573V15.3881Z" fill="#3D96F4"/>
</svg>
