<svg width="32" height="32" viewBox="0 0 32 32" fill="none" xmlns="http://www.w3.org/2000/svg">
<path fill-rule="evenodd" clip-rule="evenodd" d="M30.6396 8.53516C30.6396 4.64986 27.4898 1.5 23.6045 1.5H8.53516C4.64986 1.5 1.5 4.64986 1.5 8.53516V23.6045C1.5 27.4898 4.64986 30.6396 8.53516 30.6396H23.6045C27.4898 30.6396 30.6396 27.4898 30.6396 23.6045V8.53516ZM31.6396 23.6045C31.6396 28.0421 28.0421 31.6396 23.6045 31.6396H8.53516C4.09757 31.6396 0.5 28.0421 0.5 23.6045V8.53516C0.5 4.09757 4.09757 0.5 8.53516 0.5H23.6045C28.0421 0.5 31.6396 4.09757 31.6396 8.53516V23.6045ZM13.1289 10.2099C14.3475 9.57756 15.7346 9.34543 17.0927 9.54677C18.4781 9.75221 19.7606 10.3983 20.7509 11.3886C21.7413 12.3789 22.3873 13.6614 22.5927 15.0468C22.7941 16.4049 22.5619 17.7919 21.9296 19.0106C21.2972 20.2294 20.2967 21.2185 19.0703 21.8358C17.8439 22.4531 16.4541 22.6672 15.0986 22.4491C13.7429 22.231 12.4904 21.5909 11.5195 20.62C10.5487 19.6492 9.90856 18.3973 9.69038 17.0419C9.47224 15.6863 9.68731 14.2957 10.3046 13.0692C10.922 11.8429 11.9102 10.8422 13.1289 10.2099ZM16.9462 10.536C15.7962 10.3655 14.6218 10.5622 13.5898 11.0976C12.5577 11.6331 11.72 12.4808 11.1972 13.5194C10.6746 14.5579 10.493 15.7349 10.6777 16.8827C10.8624 18.0306 11.4044 19.0908 12.2265 19.913C13.0486 20.7351 14.109 21.277 15.2568 21.4618C16.4047 21.6465 17.5824 21.465 18.621 20.9423C19.6594 20.4196 20.5065 19.5825 21.0419 18.5507C21.5775 17.5186 21.774 16.3434 21.6035 15.1933C21.4294 14.0202 20.8825 12.9342 20.0439 12.0956C19.2053 11.257 18.1194 10.71 16.9462 10.536ZM24.8759 7.78148C24.8759 7.50543 24.6519 7.28164 24.3759 7.28148H24.3584C24.0822 7.28148 23.8584 7.50534 23.8584 7.78148C23.8584 8.05762 24.0822 8.28148 24.3584 8.28148H24.3759C24.6519 8.28132 24.8759 8.05752 24.8759 7.78148Z" fill="#23B123"/>
</svg>
