<svg width="29" height="29" viewBox="0 0 29 29" fill="none" xmlns="http://www.w3.org/2000/svg">
<path fill-rule="evenodd" clip-rule="evenodd" d="M0.806387 3.24646C1.88259 1.31562 3.95631 0 6.33319 0H18.3332C18.8855 0 19.3332 0.447715 19.3332 1V14.3333C19.3332 16.3523 17.6855 18 15.6665 18H14.3332C13.7809 18 13.3332 17.5523 13.3332 17C13.3332 16.4477 13.7809 16 14.3332 16H15.6665C16.5809 16 17.3332 15.2477 17.3332 14.3333V2H6.33319C4.71007 2 3.29048 2.89768 2.55335 4.22018C2.28447 4.70259 1.67542 4.87568 1.19301 4.6068C0.7106 4.33791 0.537503 3.72887 0.806387 3.24646Z" fill="#A4A4A4"/>
<path fill-rule="evenodd" clip-rule="evenodd" d="M17.3333 5C17.3333 4.44772 17.781 4 18.3333 4H20.7867C22.1118 4 23.317 4.71733 23.9715 5.84454L23.9748 5.85022L23.9748 5.85024L26.2547 9.83689C26.4317 10.1464 26.4305 10.5267 26.2516 10.8351C26.0727 11.1435 25.7432 11.3333 25.3866 11.3333H23.6667C23.4856 11.3333 23.3333 11.4856 23.3333 11.6667V15.6667C23.3333 15.8477 23.4856 16 23.6667 16H27.6667C28.219 16 28.6667 16.4477 28.6667 17V21C28.6667 23.7656 26.4323 26 23.6667 26H22.3333C21.781 26 21.3333 25.5523 21.3333 25C21.3333 24.0856 20.581 23.3333 19.6667 23.3333C18.7523 23.3333 18 24.0856 18 25C18 25.5523 17.5523 26 17 26H11.6667C11.1144 26 10.6667 25.5523 10.6667 25C10.6667 24.0856 9.91438 23.3333 9 23.3333C8.08562 23.3333 7.33333 24.0856 7.33333 25C7.33333 25.5523 6.88562 26 6.33333 26H5C2.23438 26 0 23.7656 0 21C0 20.4477 0.447715 20 1 20C1.55228 20 2 20.4477 2 21C2 22.661 3.33895 24 5 24H5.47241C5.90969 22.4641 7.32746 21.3333 9 21.3333C10.6725 21.3333 12.0903 22.4641 12.5276 24H16.1391C16.5764 22.4641 17.9941 21.3333 19.6667 21.3333C21.3392 21.3333 22.757 22.4641 23.1943 24H23.6667C25.3277 24 26.6667 22.661 26.6667 21V18H23.6667C22.381 18 21.3333 16.9523 21.3333 15.6667V11.6667C21.3333 10.3824 22.3789 9.33546 23.6628 9.33334L22.2419 6.84882C22.2414 6.84799 22.2409 6.84716 22.2405 6.84633C21.9347 6.32168 21.3806 6 20.7867 6H19.3333V14.3333C19.3333 16.3523 17.6856 18 15.6667 18H14.3333C13.781 18 13.3333 17.5523 13.3333 17C13.3333 16.4477 13.781 16 14.3333 16H15.6667C16.581 16 17.3333 15.2477 17.3333 14.3333V5Z" fill="#A4A4A4"/>
<path fill-rule="evenodd" clip-rule="evenodd" d="M8.99967 23.3334C8.0792 23.3334 7.33301 24.0796 7.33301 25C7.33301 25.9205 8.0792 26.6667 8.99967 26.6667C9.92015 26.6667 10.6663 25.9205 10.6663 25C10.6663 24.0796 9.92015 23.3334 8.99967 23.3334ZM5.33301 25C5.33301 22.975 6.97463 21.3334 8.99967 21.3334C11.0247 21.3334 12.6663 22.975 12.6663 25C12.6663 27.0251 11.0247 28.6667 8.99967 28.6667C6.97463 28.6667 5.33301 27.0251 5.33301 25Z" fill="#A4A4A4"/>
<path fill-rule="evenodd" clip-rule="evenodd" d="M19.6667 23.3333C18.7462 23.3333 18 24.0795 18 25C18 25.9205 18.7462 26.6666 19.6667 26.6666C20.5871 26.6666 21.3333 25.9205 21.3333 25C21.3333 24.0795 20.5871 23.3333 19.6667 23.3333ZM16 25C16 22.9749 17.6416 21.3333 19.6667 21.3333C21.6917 21.3333 23.3333 22.9749 23.3333 25C23.3333 27.025 21.6917 28.6666 19.6667 28.6666C17.6416 28.6666 16 27.025 16 25Z" fill="#A4A4A4"/>
<path fill-rule="evenodd" clip-rule="evenodd" d="M23.6663 11.3334C23.4853 11.3334 23.333 11.4857 23.333 11.6667V15.6667C23.333 15.8478 23.4853 16 23.6663 16H26.6663V14.5984L24.8053 11.3334H23.6663ZM21.333 11.6667C21.333 10.3811 22.3807 9.33337 23.6663 9.33337H25.3863C25.7456 9.33337 26.0772 9.52607 26.2551 9.83817L28.5351 13.8382C28.6211 13.989 28.6663 14.1597 28.6663 14.3334V17C28.6663 17.5523 28.2186 18 27.6663 18H23.6663C22.3807 18 21.333 16.9523 21.333 15.6667V11.6667Z" fill="#A4A4A4"/>
<path fill-rule="evenodd" clip-rule="evenodd" d="M0 9C0 8.44772 0.447715 8 1 8H9C9.55229 8 10 8.44772 10 9C10 9.55228 9.55229 10 9 10H1C0.447715 10 0 9.55228 0 9Z" fill="#A4A4A4"/>
<path fill-rule="evenodd" clip-rule="evenodd" d="M0 13C0 12.4477 0.447715 12 1 12H6.33333C6.88562 12 7.33333 12.4477 7.33333 13C7.33333 13.5523 6.88562 14 6.33333 14H1C0.447715 14 0 13.5523 0 13Z" fill="#A4A4A4"/>
<path fill-rule="evenodd" clip-rule="evenodd" d="M0 17C0 16.4477 0.447715 16 1 16H3.66667C4.21895 16 4.66667 16.4477 4.66667 17C4.66667 17.5523 4.21895 18 3.66667 18H1C0.447715 18 0 17.5523 0 17Z" fill="#A4A4A4"/>
</svg>
