<svg width="29" height="29" viewBox="0 0 29 29" fill="none" xmlns="http://www.w3.org/2000/svg">
<path fill-rule="evenodd" clip-rule="evenodd" d="M17.2929 1.29289C18.2132 0.372547 19.5125 0 21 0H23.6667C25.1541 0 26.4534 0.372547 27.3738 1.29289C28.2941 2.21324 28.6667 3.51252 28.6667 5V7.66667C28.6667 9.15414 28.2941 10.4534 27.3738 11.3738C26.4534 12.2941 25.1541 12.6667 23.6667 12.6667H21C19.5125 12.6667 18.2132 12.2941 17.2929 11.3738C16.3725 10.4534 16 9.15414 16 7.66667V5C16 3.51252 16.3725 2.21324 17.2929 1.29289ZM18.7071 2.70711C18.2941 3.12009 18 3.82081 18 5V7.66667C18 8.84585 18.2941 9.54657 18.7071 9.95956C19.1201 10.3725 19.8208 10.6667 21 10.6667H23.6667C24.8459 10.6667 25.5466 10.3725 25.9596 9.95956C26.3725 9.54657 26.6667 8.84585 26.6667 7.66667V5C26.6667 3.82081 26.3725 3.12009 25.9596 2.70711C25.5466 2.29412 24.8459 2 23.6667 2H21C19.8208 2 19.1201 2.29412 18.7071 2.70711Z" fill="#A4A4A4"/>
<path fill-rule="evenodd" clip-rule="evenodd" d="M1.29289 17.2929C2.21324 16.3725 3.51252 16 5 16H7.66667C9.15414 16 10.4534 16.3725 11.3738 17.2929C12.2941 18.2132 12.6667 19.5125 12.6667 21V23.6667C12.6667 25.1541 12.2941 26.4534 11.3738 27.3738C10.4534 28.2941 9.15414 28.6667 7.66667 28.6667H5C3.51252 28.6667 2.21324 28.2941 1.29289 27.3738C0.372547 26.4534 0 25.1541 0 23.6667V21C0 19.5125 0.372547 18.2132 1.29289 17.2929ZM2.70711 18.7071C2.29412 19.1201 2 19.8208 2 21V23.6667C2 24.8459 2.29412 25.5466 2.70711 25.9596C3.12009 26.3725 3.82081 26.6667 5 26.6667H7.66667C8.84585 26.6667 9.54657 26.3725 9.95956 25.9596C10.3725 25.5466 10.6667 24.8459 10.6667 23.6667V21C10.6667 19.8208 10.3725 19.1201 9.95956 18.7071C9.54657 18.2941 8.84585 18 7.66667 18H5C3.82081 18 3.12009 18.2941 2.70711 18.7071Z" fill="#A4A4A4"/>
<path fill-rule="evenodd" clip-rule="evenodd" d="M6.33333 2C3.9401 2 2 3.9401 2 6.33333C2 8.72657 3.9401 10.6667 6.33333 10.6667C8.72657 10.6667 10.6667 8.72657 10.6667 6.33333C10.6667 3.9401 8.72657 2 6.33333 2ZM0 6.33333C0 2.83553 2.83553 0 6.33333 0C9.83114 0 12.6667 2.83553 12.6667 6.33333C12.6667 9.83114 9.83114 12.6667 6.33333 12.6667C2.83553 12.6667 0 9.83114 0 6.33333Z" fill="#A4A4A4"/>
<path fill-rule="evenodd" clip-rule="evenodd" d="M22.3333 18C19.9401 18 18 19.9401 18 22.3333C18 24.7266 19.9401 26.6667 22.3333 26.6667C24.7266 26.6667 26.6667 24.7266 26.6667 22.3333C26.6667 19.9401 24.7266 18 22.3333 18ZM16 22.3333C16 18.8355 18.8355 16 22.3333 16C25.8311 16 28.6667 18.8355 28.6667 22.3333C28.6667 25.8311 25.8311 28.6667 22.3333 28.6667C18.8355 28.6667 16 25.8311 16 22.3333Z" fill="#A4A4A4"/>
</svg>
