<svg width="27" height="33" viewBox="0 0 27 33" fill="none" xmlns="http://www.w3.org/2000/svg">
<path d="M21.8181 17.0748C21.8501 14.5963 23.1812 12.251 25.2928 10.9528C23.9607 9.05024 21.7294 7.84398 19.408 7.77135C16.932 7.51146 14.5316 9.25294 13.2699 9.25294C11.9838 9.25294 10.0412 7.79715 7.9493 7.84019C5.22264 7.92828 2.68071 9.47851 1.35414 11.8623C-1.49748 16.7995 0.62957 24.0554 3.36118 28.0462C4.72786 30.0004 6.32512 32.1833 8.4151 32.1058C10.4603 32.021 11.2241 30.8017 13.6928 30.8017C16.1386 30.8017 16.8552 32.1058 18.9876 32.0566C21.1822 32.021 22.5649 30.0938 23.8836 28.1211C24.8655 26.7286 25.6212 25.1897 26.1224 23.5613C23.5434 22.4705 21.8211 19.8751 21.8181 17.0748Z" fill="#B2B2B2"/>
<path d="M17.7904 5.1468C18.987 3.71036 19.5765 1.86407 19.4337 0C17.6056 0.192006 15.917 1.06571 14.7042 2.44704C13.5184 3.79666 12.9012 5.61047 13.0179 7.40329C14.8466 7.42212 16.6444 6.5721 17.7904 5.1468Z" fill="#B2B2B2"/>
</svg>
