<svg width="27" height="30" viewBox="0 0 27 30" fill="none" xmlns="http://www.w3.org/2000/svg">
<path d="M0.588846 28.9601L14.4883 14.5437L0.600491 0.153076C0.22955 0.377122 0 0.895874 0 1.57491V27.5521C0.0049749 28.2311 0.226223 28.712 0.588846 28.9601Z" fill="#B2B2B2"/>
<path d="M14.986 14.1459L19.1262 9.8511L2.26592 0.261966C1.98201 0.0908693 1.65953 0.000495532 1.33109 0L14.9844 14.1442L14.986 14.1459Z" fill="#B2B2B2"/>
<path d="M14.9866 14.9443L1.29004 29.1505C1.63381 29.1565 1.97242 29.0634 2.26812 28.8817L19.1617 19.2667L14.9866 14.9443Z" fill="#B2B2B2"/>
<path d="M25.2344 13.3307L19.6237 10.1338L15.3704 14.5458L19.6553 18.9853L25.2327 15.797C26.4187 15.1197 26.4187 14.0046 25.2344 13.3307Z" fill="#B2B2B2"/>
</svg>
