<svg width="210" height="64" viewBox="0 0 210 64" fill="none" xmlns="http://www.w3.org/2000/svg">
<path d="M22.9939 45.1287L34.6535 40.0754L41.3645 43.8652L42.7202 56.2984L34.4501 56.2323L35.6703 47.5883L34.2467 46.7905L27.2645 52.1097L22.9939 45.1287Z" fill="#81818B"/>
<path d="M42.1106 43.3329L52.4145 50.7127L56.4816 43.5989L48.2113 40.341V38.7453L56.4816 35.4209L52.4145 28.3733L42.1106 35.7534V43.3329Z" fill="#81818B"/>
<path d="M41.3645 35.1553L42.7202 22.7222L34.4501 22.8552L35.6703 31.4984L34.2467 32.2963L27.1967 26.9773L22.9939 33.892L34.6535 38.945L41.3645 35.1553Z" fill="#81818B"/>
<path d="M84.0724 38.0202V49.6684H88.5234V34.8239H82.0417V38.0202H84.0724Z" fill="#81818B"/>
<path d="M83.9333 32.7382C84.3413 33.1535 84.9629 33.3611 85.7971 33.3611C86.6324 33.3611 87.244 33.1535 87.633 32.7382C88.0415 32.3046 88.2452 31.7628 88.2452 31.1129C88.2452 30.4446 88.0415 29.9028 87.633 29.4876C87.244 29.0542 86.6324 28.8374 85.7971 28.8374C84.9629 28.8374 84.3413 29.0542 83.9333 29.4876C83.5443 29.9028 83.3495 30.4446 83.3495 31.1129C83.3495 31.7628 83.5443 32.3046 83.9333 32.7382Z" fill="#81818B"/>
<path d="M68.5776 49.3431C69.8387 49.9028 71.3869 50.183 73.2228 50.183C74.948 50.183 76.4311 49.9207 77.6743 49.3973C78.917 48.8737 79.8719 48.1421 80.5392 47.203C81.2259 46.2459 81.5687 45.1354 81.5687 43.8712C81.5687 42.6433 81.2448 41.6049 80.5954 40.756C79.9643 39.8893 79.0839 39.2121 77.9525 38.7246C76.8212 38.2188 75.5134 37.9028 74.0297 37.7765L72.4721 37.6411C71.5449 37.5687 70.8771 37.325 70.4692 36.9095C70.0607 36.4943 69.857 36.0066 69.857 35.4469C69.857 35.0134 69.9689 34.6162 70.1904 34.255C70.4135 33.8757 70.7469 33.5778 71.1921 33.361C71.6562 33.1445 72.2216 33.036 72.8894 33.036C73.594 33.036 74.1783 33.1623 74.6419 33.4153C74.7437 33.4687 74.8409 33.5259 74.9317 33.5865L74.9537 33.6016C74.9879 33.6245 75.0215 33.6482 75.054 33.6722C75.3359 33.8818 75.5601 34.1302 75.7271 34.4175C75.9675 34.8149 76.0888 35.2572 76.0888 35.7449H80.5392C80.5392 34.4445 80.2331 33.3159 79.6215 32.3588C79.0099 31.3837 78.1289 30.6343 76.9792 30.1104C75.8473 29.5686 74.4844 29.2977 72.8894 29.2977C71.3685 29.2977 70.0518 29.5507 68.9388 30.0563C67.8263 30.544 66.9548 31.2482 66.3243 32.1691C65.7116 33.0901 65.4056 34.1828 65.4056 35.4469C65.4056 37.1986 66.0088 38.607 67.2142 39.6727C68.4196 40.7381 70.0334 41.3521 72.0547 41.5146L73.5851 41.65C74.8272 41.7584 75.7271 42.0023 76.2836 42.3813C76.8395 42.7425 77.1178 43.2391 77.1178 43.8712C77.1178 44.1617 77.069 44.4341 76.9713 44.6886C76.8989 44.8776 76.7991 45.0566 76.6731 45.2257C76.3754 45.6047 75.9402 45.9027 75.3653 46.1197C74.7905 46.3363 74.0765 46.4445 73.2228 46.4445C72.2773 46.4445 71.5076 46.3184 70.9144 46.0651C70.3206 45.7944 69.8759 45.4423 69.5783 45.0091C69.3005 44.5754 69.1619 44.1061 69.1619 43.6003H64.7383C64.7383 44.8825 65.0627 46.0204 65.7116 47.0133C66.3611 47.9887 67.316 48.7655 68.5776 49.3431Z" fill="#81818B"/>
<path d="M98.4548 49.8577C96.915 49.8577 95.6729 49.6774 94.7268 49.3158C93.7808 48.9369 93.0856 48.3136 92.6404 47.4469C92.2141 46.5618 92.0005 45.3703 92.0005 43.8712V37.9931H89.6915V34.8239H92.0005V30.8149H96.1454V34.8239H100.597V37.9931H96.1454V44.034C96.1454 44.7382 96.3312 45.2799 96.7019 45.6589C97.0914 46.0204 97.6385 46.2008 98.3435 46.2008H100.597V49.8577H98.4548Z" fill="#81818B"/>
<path fill-rule="evenodd" clip-rule="evenodd" d="M105.956 49.5328C106.957 49.9659 108.107 50.1829 109.405 50.1829C110.685 50.1829 111.817 49.9659 112.799 49.5328C113.782 49.0992 114.599 48.4943 115.247 47.718C115.896 46.9412 116.333 46.0562 116.555 45.0633H112.466C112.28 45.5148 111.928 45.8938 111.409 46.2007C110.889 46.5077 110.221 46.6616 109.405 46.6616C108.9 46.6616 108.448 46.603 108.05 46.4866C107.747 46.398 107.476 46.2759 107.235 46.1197C106.679 45.7586 106.271 45.2526 106.011 44.6027C105.939 44.4175 105.878 44.2239 105.826 44.0222C105.773 43.8178 105.73 43.6052 105.698 43.3838H116.833V41.9209C116.833 40.5665 116.536 39.3205 115.943 38.1828C115.349 37.0269 114.487 36.0969 113.356 35.3926C112.243 34.6703 110.871 34.3091 109.238 34.3091C107.996 34.3091 106.883 34.5259 105.9 34.9593C104.936 35.3746 104.129 35.9434 103.48 36.6658C102.831 37.3881 102.33 38.2099 101.977 39.1309C101.644 40.0337 101.477 40.9818 101.477 41.975V42.5168C101.477 43.4741 101.644 44.413 101.977 45.334C102.33 46.237 102.831 47.0584 103.48 47.799C104.147 48.5216 104.972 49.0992 105.956 49.5328ZM105.775 40.7052C105.787 40.6478 105.8 40.5914 105.814 40.5358C105.853 40.3826 105.897 40.2359 105.948 40.0956C105.977 40.0158 106.007 39.9379 106.04 39.8622C106.317 39.194 106.726 38.6884 107.263 38.3453C107.464 38.2171 107.682 38.1128 107.916 38.0326C108.31 37.898 108.751 37.8306 109.238 37.8306C109.999 37.8306 110.629 38.0022 111.13 38.3453C111.649 38.6703 112.039 39.1488 112.299 39.7809C112.32 39.8319 112.34 39.8838 112.359 39.9364C112.389 40.0201 112.418 40.1061 112.445 40.1942C112.484 40.3253 112.518 40.461 112.548 40.6012C112.571 40.7045 112.589 40.8104 112.606 40.9187H105.732C105.745 40.8463 105.759 40.7752 105.775 40.7052Z" fill="#81818B"/>
<path d="M118.67 49.6684V34.8238H122.203V38.5626C122.251 38.3403 122.306 38.127 122.366 37.9224C122.419 37.7501 122.475 37.5839 122.537 37.4243C122.926 36.4129 123.51 35.6546 124.289 35.1488C125.068 34.6251 126.023 34.3634 127.155 34.3634H127.349C128.5 34.3634 129.454 34.6251 130.215 35.1488C130.994 35.6546 131.578 36.4129 131.967 37.4243L131.998 37.5006L132.024 37.5704C132.042 37.5211 132.06 37.4725 132.078 37.4243C132.486 36.4129 133.08 35.6546 133.859 35.1488C134.638 34.6251 135.593 34.3634 136.725 34.3634H136.919C138.069 34.3634 139.033 34.6251 139.812 35.1488C140.61 35.6546 141.213 36.4129 141.62 37.4243C142.028 38.4356 142.233 39.6998 142.233 41.2166V49.6684H137.782V40.9728C137.782 40.1601 137.559 39.5011 137.114 38.9955C136.687 38.4897 136.075 38.2369 135.278 38.2369C134.48 38.2369 133.85 38.4988 133.386 39.0225C132.923 39.5281 132.691 40.2053 132.691 41.0542V49.6684H128.212V40.9728C128.212 40.1601 127.989 39.5011 127.544 38.9955C127.118 38.4897 126.514 38.2369 125.736 38.2369C124.92 38.2369 124.28 38.4988 123.817 39.0225C123.353 39.5281 123.121 40.2053 123.121 41.0542V49.6684H118.67Z" fill="#81818B"/>
<path fill-rule="evenodd" clip-rule="evenodd" d="M154.123 46.808V49.6685H157.655V40.5666C157.655 39.1941 157.377 38.0746 156.821 37.2076C156.264 36.3227 155.449 35.6636 154.373 35.2302C153.316 34.7969 152.008 34.5801 150.45 34.5801C150.113 34.5801 149.76 34.5835 149.393 34.5908C149.176 34.5951 148.953 34.6006 148.726 34.6072C148.113 34.6252 147.52 34.6523 146.945 34.6885L146.506 34.7173C146.28 34.7325 146.069 34.7476 145.869 34.7629C145.72 34.7742 145.577 34.7856 145.443 34.7969V38.4538C146.018 38.4176 146.658 38.3814 147.363 38.3454C147.56 38.3354 147.755 38.326 147.949 38.3173C148.229 38.3046 148.505 38.2937 148.779 38.2842C148.995 38.2765 149.209 38.2697 149.421 38.2641C150.089 38.246 150.627 38.237 151.035 38.237C151.85 38.237 152.444 38.4265 152.815 38.8059C153.186 39.1851 153.371 39.754 153.371 40.5125V40.5666H150.617C149.264 40.5666 148.067 40.7382 147.028 41.0814C145.99 41.4063 145.183 41.921 144.609 42.6253C144.033 43.3117 143.746 44.1965 143.746 45.2799C143.746 46.2733 143.978 47.131 144.441 47.8537C144.905 48.5575 145.545 49.0993 146.361 49.4783C147.196 49.8577 148.16 50.0475 149.254 50.0475C150.311 50.0475 151.202 49.8577 151.925 49.4783C152.667 49.0993 153.242 48.5575 153.65 47.8537C153.722 47.7346 153.788 47.6116 153.851 47.4836C153.939 47.3029 154.018 47.1127 154.087 46.9131L154.123 46.808ZM153.371 44.1695V42.9775H150.589C149.81 42.9775 149.208 43.167 148.781 43.5463C148.373 43.9075 148.169 44.4041 148.169 45.0361C148.169 45.3337 148.22 45.6039 148.321 45.8478C148.424 46.0921 148.577 46.3091 148.781 46.4988C149.208 46.8604 149.81 47.0406 150.589 47.0406C150.737 47.0406 150.881 47.0335 151.019 47.0196C151.132 47.008 151.243 46.9914 151.349 46.9704C151.552 46.9301 151.745 46.872 151.925 46.7968C152.333 46.6165 152.667 46.3185 152.926 45.9028C153.186 45.4876 153.335 44.9095 153.371 44.1695Z" fill="#81818B"/>
<path d="M160.319 49.6685V34.8239H163.853V39.7236C164.022 38.3249 164.448 37.1971 165.132 36.3409C166.06 35.2032 167.394 34.6344 169.138 34.6344H169.723V38.3725H168.61C167.386 38.3725 166.44 38.6974 165.772 39.3476C165.104 39.9797 164.77 40.9007 164.77 42.1105V49.6685H160.319Z" fill="#81818B"/>
<path d="M175.367 42.7336H176.841L181.654 49.6685H186.661L180.559 41.1518L185.576 34.8239H180.903L175.367 41.8822V29.8939H170.916V49.6685H175.367V42.7336Z" fill="#81818B"/>
</svg>
