<svg width="322" height="405" viewBox="0 0 322 405" fill="none" xmlns="http://www.w3.org/2000/svg">
<path d="M71.8306 377.827C65.8285 368.449 62.5527 357.967 59.3935 347.779C57.4531 341.574 55.4554 335.168 52.8645 329.022C44.9417 310.189 34.2138 292.663 21.0452 277.041L18.8132 274.408C9.28155 263.226 -1.48542 250.579 0.169714 235.813C1.4504 224.6 9.63042 214.555 25.1893 205.107C35.3589 198.931 42.7759 193.484 48.5292 187.961C56.1463 180.71 60.5467 173.333 61.7732 166.063C63.1601 157.633 60.1967 148.994 52.959 140.395C49.905 136.755 46.3781 133.323 42.9767 130.013C36.6375 123.819 30.0661 117.43 26.2335 109.419C25.9025 108.717 25.5884 108.003 25.3019 107.296C22.6857 100.566 21.9747 93.2458 23.2468 86.1386C24.4721 78.9602 27.1782 72.1155 31.1928 66.0399C39.6684 53.097 52.6371 44.0011 63.0032 37.5568C77.1794 28.6245 92.0153 20.7851 107.382 14.1066C125.096 6.52302 141.238 1.94046 155.441 0.451973C168.803 -0.964136 182.306 0.959787 194.74 6.05103C207.791 11.5953 217.781 20.3571 223.512 31.4647C229.048 42.1745 230.447 54.3445 231.809 66.1225C232.371 70.9534 232.955 75.9484 233.811 80.757C236.188 93.9691 240.82 106.674 247.504 118.316C254.147 129.986 262.658 140.488 272.698 149.404C277.764 153.758 283.056 157.84 288.554 161.633C303.394 172.256 317.407 182.292 320.995 203.952C322.989 216.086 319.946 228.925 312.166 241.007C305.33 251.63 294.991 261.383 283.061 268.483C270.517 275.941 256.643 281.21 243.219 286.31C232.402 290.417 221.234 294.643 210.779 300.04C199.1 306.066 183.137 316.662 173.411 332.959C168.982 340.366 166.588 348.764 164.275 356.896C162.311 363.794 160.28 370.938 156.998 377.576C153.098 385.476 145.994 396.033 134.3 401.498C124.933 405.866 114.052 406.142 102.889 402.359C92.3919 398.7 83.1047 392.222 76.0458 383.634C74.526 381.784 73.1184 379.845 71.8306 377.827ZM37.6643 297.738C43.9262 307.544 49.3408 317.867 53.8494 328.594C56.4642 334.795 58.4696 341.232 60.4124 347.46C64.4317 360.328 68.1936 372.423 76.8796 382.969C83.8165 391.394 92.9374 397.748 103.244 401.336C114.156 405.043 124.731 404.771 133.835 400.512C145.221 395.197 152.169 384.859 155.991 377.116C159.224 370.569 161.243 363.48 163.197 356.623C165.532 348.43 167.966 339.948 172.441 332.428C182.31 315.909 198.453 305.185 210.256 299.092C220.741 293.688 231.96 289.43 242.816 285.309C256.192 280.228 270.04 275.011 282.515 267.538C294.302 260.529 304.505 250.898 311.259 240.424C318.892 228.578 321.885 216.032 319.918 204.143C316.393 182.917 302.553 173.02 287.902 162.526C282.377 158.714 277.057 154.614 271.964 150.242C261.841 141.255 253.263 130.667 246.572 118.901C239.807 107.142 235.123 94.3047 232.725 80.9531C231.856 76.1054 231.275 71.0966 230.716 66.252C229.35 54.5599 227.938 42.4813 222.532 31.9736C216.924 21.0959 207.161 12.4855 194.313 7.07262C182.037 2.04617 168.704 0.14735 155.513 1.54669C141.421 3.02337 125.354 7.59346 107.769 15.1184C92.4621 21.768 77.6858 29.5771 63.5688 38.4776C53.3062 44.8795 40.4423 53.8608 32.0921 66.6284C28.1621 72.5749 25.5127 79.2741 24.3122 86.3C23.0768 93.2062 23.7627 100.319 26.2952 106.862C26.5793 107.547 26.8827 108.244 27.2059 108.916C30.9613 116.751 37.4535 123.071 43.7549 129.206C47.1726 132.541 50.7102 135.99 53.8134 139.67C61.2628 148.526 64.3121 157.466 62.8662 166.23C61.6357 173.717 57.0678 181.296 49.297 188.752C43.4816 194.327 36.0057 199.812 25.7687 206.031C10.5185 215.293 2.50435 225.078 1.29106 235.95C0.617011 242.32 2.18534 248.835 6.24103 255.896C9.80734 262.118 14.77 268.016 19.5817 273.678L21.8274 276.315C27.5696 283.101 32.8599 290.258 37.6643 297.738Z" fill="white" fill-opacity="0.57"/>
</svg>
