<svg width="451" height="80" viewBox="0 0 451 80" fill="none" xmlns="http://www.w3.org/2000/svg">
<path d="M225.5 0.5C287.75 0.5 344.094 4.97594 384.865 12.208C405.255 15.8248 421.725 20.127 433.086 24.8916C438.768 27.2747 443.144 29.7619 446.091 32.3164C449.041 34.8737 450.5 37.4439 450.5 40C450.5 42.5561 449.041 45.1263 446.091 47.6836C443.144 50.2381 438.768 52.7253 433.086 55.1084C421.725 59.873 405.255 64.1752 384.865 67.792C344.094 75.0241 287.75 79.5 225.5 79.5C163.25 79.5 106.906 75.0241 66.1348 67.792C45.7453 64.1752 29.275 59.873 17.9141 55.1084C12.2317 52.7253 7.85615 50.2381 4.90918 47.6836C1.95909 45.1263 0.5 42.5561 0.5 40C0.5 37.4439 1.95909 34.8737 4.90918 32.3164C7.85615 29.7619 12.2317 27.2747 17.9141 24.8916C29.275 20.127 45.7453 15.8248 66.1348 12.208C106.906 4.97594 163.25 0.5 225.5 0.5Z" stroke="white"/>
</svg>
