<svg width="97" height="207" viewBox="0 0 97 207" fill="none" xmlns="http://www.w3.org/2000/svg">
<path d="M-54.6393 120.515C-52.5702 126.415 -55.7655 128.142 -60.3137 125.746C-73.0849 119.053 -73.6665 101.672 -76.3922 104.078C-88.3357 114.552 -85.7403 140.676 -73.9291 153.483C-59.1104 169.547 -42.3317 161.546 -37.4327 160.974C-33.8731 160.547 -28.3115 162.01 -28.2683 166.438C-28.2102 170.683 -35.7381 176.749 -30.8248 190.411C-22.1648 214.456 12.5229 205.651 14.335 204.293C16.1471 202.935 16.4397 199.817 11.0118 197.461C7.12568 195.787 5.38196 191.82 16.1154 193.726C37.1749 197.479 48.7915 196.602 67.2812 164.446C67.7944 163.557 66.5693 162.847 65.9169 163.466C43.7645 183.732 3.43917 166.684 21.5924 160.941C27.2587 159.125 34.5856 161.345 40.4795 162.24C65.5179 165.956 82.7357 149.036 80.3588 131.295C79.7681 126.895 74.706 140.1 55.9591 141.696C44.3189 142.696 31.8314 137.446 35.5884 133.113C45.3273 121.854 104.239 145.39 92.2708 92.3421C91.2938 87.9822 88.112 101.025 69.3809 109.946C61.4971 113.722 38.7698 119.282 38.7991 111.345C38.7295 107.555 45.8045 106.696 61.3648 102.823C89.8206 95.8049 97.2965 82.5305 93.3678 54.6706C92.7169 50.0173 86.16 64.7508 73.4971 71.0135C61.8774 76.7634 56.445 71.2795 67.6534 62.2801C75.8291 55.7121 87.9828 52.7103 92.8925 43.0935C98.7633 31.5935 90.9159 16.2462 95.3305 8.39457C95.492 8.11183 97.2584 5.79218 95.4118 5.76432C83.6017 5.6108 79.2202 4.65207 77.4553 9.00838C76.9438 10.2959 76.533 14.0608 74.3692 14.3866C73.1274 14.5745 72.3253 8.23699 74.7531 3.1642C76.2084 0.135691 61.9271 1.44605 59.2305 8.13807C57.3252 12.8754 59.9049 17.0262 57.3445 29.1245C52.6222 51.4188 40.934 53.2844 46.6889 25.6923C50.7623 6.15765 58.5834 -0.370252 54.9544 0.0365062C45.7236 1.08318 32.8781 -3.57948 26.2327 8.7147C18.2597 23.3874 30.0049 37.7904 30.6403 63.3033C30.7231 66.511 31.4567 80.8931 24.8933 77.7458C17.434 74.1294 26.3684 61.0808 19.7992 42.9717C17.4644 36.5373 14.3141 31.4247 14.9341 23.0039C15.966 8.82269 25.6257 4.62484 22.3099 3.94419C15.6374 2.55395 8.86229 7.52861 0.986697 11.9528C-7.48422 16.7148 -14.272 19.5198 -12.7566 29.2306C-6.96249 66.353 8.1205 86.0605 0.32681 103.259C-2.03164 99.6673 -22.8383 55.5103 -15.1143 25.5757C-14.899 24.7401 -15.9693 24.3165 -16.5226 24.8509C-26.6846 34.6911 -45.1455 41.8666 -43.9774 58.8501C-42.6677 78.0775 -15.8204 91.0121 -21.2975 109.967C-42.7784 81.5992 -50.5262 73.707 -49.3205 62.5259C-49.295 62.381 -49.3115 62.2319 -49.368 62.0962C-49.4246 61.9604 -49.5188 61.8437 -49.6395 61.7598C-49.7603 61.6759 -49.9026 61.6283 -50.0495 61.6227C-50.1964 61.6171 -50.3419 61.6537 -50.4687 61.7282C-96.1192 92.0966 -58.052 110.782 -54.6393 120.515ZM-50.9552 63.8477C-51.2426 75.2072 -43.5805 83.1268 -21.7922 112.258C-21.4435 112.723 -20.5561 112.838 -20.3019 112.19C-10.0557 86.7182 -59.3757 68.898 -36.0925 43.0505C-30.6713 37.0291 -23.4119 33.1069 -17.3131 27.8239C-23.8398 58.677 -0.861059 109.121 1.16003 105.302C10.2692 88.1127 -2.53375 74.1117 -10.7003 31.6169C-12.0688 24.4948 -12.1329 21.3126 -2.92275 16.0722C12.486 7.30206 15.8823 5.15322 20.4837 5.42192C4.35695 24.2405 19.9786 40.058 20.6498 56.5392C21.0655 66.4553 19.0552 70.7013 20.5248 75.1237C22.0558 79.7051 28.4517 82.0345 30.9469 76.8771C41.0666 56.0246 10.1447 10.646 35.9801 2.69312C41.6201 0.959424 47.6731 2.31716 53.4987 2.01507C44.5978 18.7073 41.4899 39.5182 44.3063 45.0633C46.3651 49.1289 51.7029 50.2537 55.9931 39.7853C65.7976 15.8521 52.5601 4.13247 72.6309 3.7182C71.2704 7.30441 70.616 15.4212 73.4754 16.1851C77.8422 17.3271 78.7889 9.63114 79.8266 8.51107C81.1975 7.02171 84.3171 7.45022 88.4087 7.50425C95.7287 7.60542 93.092 6.45515 92.7209 13.3261C92.1246 22.9679 96.0395 33.8419 91.5649 42.4898C86.406 52.6065 72.244 55.0757 64.1227 63.485C51.5968 76.4348 69.8808 83.6181 91.8231 56.9612C93.1797 67.5524 93.4559 79.3928 86.2463 87.9929C71.4392 105.654 35.6342 100.976 36.9261 111.956C37.9964 121.063 72.0758 119.405 90.8572 94.7796C99.4962 134.456 62.854 125.363 42.9505 128.79C14.0345 133.782 54.4304 156.719 78.6522 133.375C79.2628 146.095 68.8863 159.69 50.1328 161.037C39.4283 161.81 30.9458 157.524 22.887 158.951C-1.74941 163.338 36.1678 187.028 63.3695 167.674C39.3569 208.614 18.7702 188.444 8.76305 191.787C5.849 192.721 4.96457 196.154 8.7961 198.444C10.3196 199.332 12.4345 199.673 13.4149 201.291C14.9043 203.743 9.67715 203.98 8.27984 204.207C-1.01333 205.714 -11.1483 206.725 -19.4083 202.084C-25.9342 198.432 -30.6072 190.73 -30.8014 182.161C-31.0259 171.858 -22.864 167.016 -29.2938 161.632C-15.7742 155.126 -6.26161 143.751 -4.63785 143.902C11.7095 145.763 28.4709 161.205 56.3592 149.696C56.9439 149.456 56.6635 148.548 56.054 148.743C28.7713 159.586 12.2345 144.681 -4.15219 142.665C21.652 117.049 6.04644 118.291 31.209 121.936C67.9491 127.238 75.0654 115.791 71.6194 117.588C52.5763 127.502 28.7772 118.935 15.5801 118.943C24.2614 106.71 31.4074 94.3394 39.1947 81.2173C41.2236 81.8798 64.4062 85.2779 85.5808 74.2821C86.1853 73.9729 85.623 73.103 85.028 73.4091C64.2907 84.0653 47.4809 80.3684 39.8591 80.1119C47.3075 67.5709 54.461 55.912 63.0856 44.7478C68.0076 45.1973 79.1556 42.4652 87.6557 35.4677C88.1604 35.0435 87.6141 34.158 87.0935 34.5978C80.5613 39.9376 72.4965 43.0552 64.0711 43.4974C69.8901 35.9678 76.406 29.0035 83.5321 22.6969C84.5353 21.8294 83.3462 18.8397 67.411 37.5023C65.301 34.0148 64.1115 30.0483 63.9543 25.9752C63.7972 21.902 64.6774 17.8557 66.5124 14.2159C66.5424 14.1587 66.5608 14.0962 66.5666 14.0319C66.5723 13.9677 66.5654 13.9029 66.5462 13.8413C66.5269 13.7797 66.4957 13.7225 66.4544 13.6729C66.413 13.6234 66.3623 13.5825 66.3051 13.5525C66.248 13.5226 66.1855 13.5042 66.1212 13.4984C66.0569 13.4926 65.9921 13.4995 65.9305 13.5188C65.8689 13.538 65.8117 13.5692 65.7621 13.6106C65.7126 13.652 65.6717 13.7027 65.6418 13.7598C63.631 17.6015 62.6609 21.9025 62.8278 26.2354C62.9948 30.5682 64.293 34.7818 66.5935 38.4573C57.9315 48.7515 50.4815 60.0749 43.4437 71.5707C43.4389 56.2515 32.9951 45.5164 36.8521 20.1286C36.9611 19.4531 35.9107 19.2227 35.8047 19.9077C31.484 47.0927 43.0591 57.3603 42.0966 73.462C42.0621 73.9771 25.1122 102.909 15.118 117.074C1.95444 80.0241 15.4549 59.4324 3.56085 36.372C3.27949 35.8216 2.49868 36.3343 2.74842 36.8843C13.6453 58.4057 1.47446 91.8969 14.2209 118.338C9.91288 124.448 5.2479 130.298 0.250308 135.857C1.66596 121.038 -20.4081 85.7721 -27.207 59.1469C-27.39 58.5755 -28.225 58.8535 -28.0831 59.4276C-21.7346 86.9742 0.45629 119.819 -1.09861 137.087C-1.25905 138.913 -20.8625 155.927 -21.6534 154.868C-27.0577 147.505 -54.9692 155.042 -63.9502 133.306C-66.168 127.957 -66.1629 147.865 -35.5698 152.008C-29.8957 152.773 -26.4824 152.414 -22.6307 155.685C-22.5335 155.759 -21.5241 155.173 -30.5868 160.775C-39.9131 155.363 -48.1862 168.116 -65.4327 158.468C-82.0633 149.17 -86.7142 124.66 -79.8682 110.894C-73.8284 98.7416 -77.3493 114.56 -64.6906 124.932C-56.1572 131.901 -50.4999 127.862 -53.1735 120.108C-56.6674 110.023 -68.9425 106.616 -70.8243 95.2378C-72.9417 81.5511 -61.9463 71.2969 -50.9552 63.8477Z" fill="white" fill-opacity="0.38"/>
</svg>
