<svg width="71" height="23" viewBox="0 0 71 23" fill="none" xmlns="http://www.w3.org/2000/svg">
<path d="M14.6815 11.0021C15.8617 11.0969 16.8531 11.5711 17.7028 12.4722C18.5525 13.3732 18.9774 14.6062 18.9774 16.1711C18.9774 18.068 18.3637 19.633 17.0891 20.7711C15.8145 21.9093 14.0206 22.4784 11.613 22.4784H0V0H11.5658C13.5957 0 15.248 0.569072 16.4754 1.65979C17.7028 2.79794 18.3165 4.26804 18.3165 6.11753C18.3165 7.54021 17.9388 8.63093 17.1363 9.48454C16.3338 10.3381 15.5312 10.7649 14.6343 10.8598L14.6815 11.0021ZM5.52327 9.29485H10.3384C11.141 9.29485 11.8019 9.05773 12.3211 8.58351C12.7932 8.10928 13.0765 7.54021 13.0765 6.73402C13.0765 6.02268 12.8404 5.50103 12.3684 5.07423C11.8963 4.64742 11.2826 4.45773 10.5745 4.45773H5.52327V9.29485ZM10.6217 18.0206C11.4714 18.0206 12.1795 17.7835 12.6516 17.3567C13.1237 16.9299 13.3597 16.3134 13.3597 15.5072C13.3597 14.7485 13.1237 14.1794 12.6044 13.7526C12.1323 13.3258 11.4714 13.0887 10.7161 13.0887H5.52327V18.0206H10.6217ZM38.0964 22.4784H32.762V20.866C31.4402 22.2887 29.6935 23 27.6164 23C25.6336 23 24.0758 22.3361 22.8956 21.0557C21.7154 19.7753 21.1017 18.068 21.1017 15.9814V5.6433H26.389V14.8433C26.389 15.8392 26.6722 16.6454 27.1915 17.2619C27.7108 17.8784 28.4189 18.1629 29.2686 18.1629C30.3544 18.1629 31.2041 17.7835 31.8178 17.0247C32.4315 16.266 32.7148 15.0804 32.7148 13.468V5.6433H38.0492L38.0964 22.4784ZM54.5718 22.4784H40.4096V21.4825L47.0658 9.91134H40.5984V5.6433H54.4774V6.63918L47.8211 18.2103H54.5246V22.4784H54.5718ZM71 22.4784H56.885V21.4825L63.494 9.91134H57.0266V5.6433H70.9056V6.63918L64.2493 18.2103H70.9528L71 22.4784Z" fill="#718087"/>
</svg>
