<svg width="98" height="19" viewBox="0 0 98 19" fill="none" xmlns="http://www.w3.org/2000/svg">
<path d="M32.919 0.013009V7.19879H22.9079V0.013009L19.2617 0.00976562V18.1282H22.9079V10.3444H32.919V18.1282H36.5711V0.013009H32.919Z" fill="#718087"/>
<path d="M81.4258 0.0136719V18.1245H97.4224L95.3964 14.9361H85.0823V10.3451H95.0695V7.27413H85.0823V3.12739H95.3791L97.364 0.0136719H81.4258Z" fill="#718087"/>
<path d="M5.70849 0.00878906C1.91565 0.00878906 0 2.31458 0 5.66965V12.4328C0 16.3155 2.46868 18.1283 5.68954 18.1283L17.1292 18.1272L15.0085 14.8154H6.39627C4.56667 14.8154 3.76958 14.1542 3.76958 12.1065V5.97053C3.76958 3.99104 4.4406 3.21883 6.44497 3.21883H15.0983L17.1346 0.00878906H5.70849Z" fill="#718087"/>
<path d="M65.4234 0.00432673C63.2329 0.00432673 60.9877 1.32092 60.9877 4.70737V5.57752C60.9877 9.10791 63.1479 10.4548 65.3092 10.464H72.8955C73.6834 10.464 74.3235 10.595 74.3235 11.9267L74.3224 13.4652C74.3024 14.6616 73.7055 14.9354 72.8684 14.9354H62.8882L60.8438 18.1238H73.1033C76.0595 18.1238 78.0666 16.653 78.0666 13.2557V12.0073C78.0666 8.72262 76.2018 7.17063 73.3105 7.17063H66.0668C65.2638 7.17063 64.7042 6.95147 64.7042 5.76205V4.50931C64.7042 3.4963 65.0879 3.1267 66.0235 3.1267L75.5281 3.12291L77.5146 0L65.4234 0.00432673Z" fill="#718087"/>
<path d="M47.1648 0.0136719L38.5742 18.1278H42.6344L44.3076 14.3869H53.6428L55.3106 18.1278H59.3886L50.778 0.0136719H47.1648ZM48.9663 3.77459L52.2672 11.3035H45.6864L48.9663 3.77459Z" fill="#718087"/>
</svg>
