<svg width="268" height="254" viewBox="0 0 268 254" fill="none" xmlns="http://www.w3.org/2000/svg">
<g opacity="0.39967">
<mask id="mask0_0_7" style="mask-type:luminance" maskUnits="userSpaceOnUse" x="71" y="6" width="101" height="141">
<path fill-rule="evenodd" clip-rule="evenodd" d="M84.2101 6.20185L71.305 15.3062L163.365 146.5L171.506 130.618L84.2101 6.20185Z" fill="white"/>
</mask>
<g mask="url(#mask0_0_7)">
<path fill-rule="evenodd" clip-rule="evenodd" d="M58.1291 123.082C58.6002 122.739 59.1021 122.43 59.5397 122.049C104.454 82.9024 149.364 43.7511 194.277 4.60147C194.642 4.28465 195.037 4.00169 195.417 3.70412L194.849 11.8277C194.417 12.1337 193.955 12.4059 193.559 12.7524C155.34 46.0624 117.129 79.3821 78.9109 112.692C71.8092 118.88 64.6782 125.035 57.5611 131.205L58.1291 123.082Z" fill="#231F20"/>
</g>
<mask id="mask1_0_7" style="mask-type:luminance" maskUnits="userSpaceOnUse" x="71" y="6" width="101" height="141">
<path fill-rule="evenodd" clip-rule="evenodd" d="M84.2101 6.20185L71.305 15.3062L163.365 146.5L171.506 130.618L84.2101 6.20185Z" fill="white"/>
</mask>
<g mask="url(#mask1_0_7)">
<path fill-rule="evenodd" clip-rule="evenodd" d="M56.993 139.329C57.546 138.916 58.1299 138.537 58.6495 138.084C103.442 99.0445 148.23 59.9982 193.019 20.9551C193.424 20.6017 193.859 20.2852 194.281 19.9512L193.713 28.0747C193.158 28.4874 192.574 28.8676 192.055 29.3206C147.303 68.3239 102.555 107.334 57.8063 146.34C57.3608 146.729 56.8859 147.082 56.425 147.452L56.993 139.329Z" fill="#231F20"/>
</g>
<mask id="mask2_0_7" style="mask-type:luminance" maskUnits="userSpaceOnUse" x="71" y="6" width="101" height="141">
<path fill-rule="evenodd" clip-rule="evenodd" d="M84.2101 6.20185L71.305 15.3062L163.365 146.5L171.506 130.618L84.2101 6.20185Z" fill="white"/>
</mask>
<g mask="url(#mask2_0_7)">
<path fill-rule="evenodd" clip-rule="evenodd" d="M55.8569 155.575C56.3697 155.198 56.9119 154.854 57.3911 154.438C102.265 115.326 147.134 76.2082 192.005 37.0936C192.369 36.7767 192.765 36.4953 193.145 36.1978L192.577 44.3213C192.145 44.6274 191.683 44.8996 191.286 45.2459C152.944 78.6625 114.609 112.087 76.2677 145.502C69.2896 151.586 62.2822 157.635 55.2889 163.699L55.8569 155.575Z" fill="#231F20"/>
</g>
<mask id="mask3_0_7" style="mask-type:luminance" maskUnits="userSpaceOnUse" x="71" y="6" width="101" height="141">
<path fill-rule="evenodd" clip-rule="evenodd" d="M84.2101 6.20185L71.305 15.3062L163.365 146.5L171.506 130.618L84.2101 6.20185Z" fill="white"/>
</mask>
<g mask="url(#mask3_0_7)">
<path fill-rule="evenodd" clip-rule="evenodd" d="M54.7208 171.822C55.2336 171.445 55.7772 171.103 56.255 170.685C101.089 131.61 145.917 92.5269 190.747 53.4488C191.152 53.0954 191.587 52.7789 192.009 52.4448C191.819 55.1522 191.63 57.861 191.441 60.5684C190.886 60.981 190.302 61.3598 189.783 61.8127C145.031 100.816 100.283 139.826 55.5342 178.832C55.0886 179.221 54.6137 179.575 54.1528 179.946L54.7208 171.822Z" fill="#231F20"/>
</g>
<mask id="mask4_0_7" style="mask-type:luminance" maskUnits="userSpaceOnUse" x="71" y="6" width="101" height="141">
<path fill-rule="evenodd" clip-rule="evenodd" d="M84.2101 6.20185L71.305 15.3062L163.365 146.5L171.506 130.618L84.2101 6.20185Z" fill="white"/>
</mask>
<g mask="url(#mask4_0_7)">
<path fill-rule="evenodd" clip-rule="evenodd" d="M53.5848 188.069C54.0559 187.726 54.5578 187.418 54.9954 187.036C99.9097 147.89 144.82 108.738 189.733 69.5888C190.098 69.272 190.492 68.989 190.873 68.6914L190.305 76.815C189.872 77.121 189.412 77.3933 189.015 77.7397C150.796 111.05 112.586 144.37 74.3666 177.68C67.2649 183.868 60.1339 190.022 53.0168 196.193L53.5848 188.069Z" fill="#231F20"/>
</g>
<mask id="mask5_0_7" style="mask-type:luminance" maskUnits="userSpaceOnUse" x="71" y="6" width="101" height="141">
<path fill-rule="evenodd" clip-rule="evenodd" d="M84.2101 6.20185L71.305 15.3062L163.365 146.5L171.506 130.618L84.2101 6.20185Z" fill="white"/>
</mask>
<g mask="url(#mask5_0_7)">
<path fill-rule="evenodd" clip-rule="evenodd" d="M52.4487 204.316C53.0017 203.903 53.5856 203.525 54.1052 203.072C98.8973 164.032 143.685 124.986 188.475 85.9424C188.88 85.589 189.315 85.2725 189.737 84.9385L189.169 93.062C188.654 93.4396 188.112 93.7834 187.633 94.2013C143.584 132.593 99.5407 170.989 55.5016 209.391C55.0641 209.772 54.6893 210.228 54.2853 210.649L52.017 210.491L52.4487 204.316Z" fill="#231F20"/>
</g>
<mask id="mask6_0_7" style="mask-type:luminance" maskUnits="userSpaceOnUse" x="71" y="6" width="101" height="141">
<path fill-rule="evenodd" clip-rule="evenodd" d="M84.2101 6.20185L71.305 15.3062L163.365 146.5L171.506 130.618" fill="white"/>
</mask>
<g mask="url(#mask6_0_7)">
<path fill-rule="evenodd" clip-rule="evenodd" d="M195.985 -4.41927C195.432 -4.00653 194.848 -3.62775 194.328 -3.17481C149.576 35.8285 104.829 74.8382 60.0781 113.845C59.6325 114.233 59.1591 114.588 58.6966 114.958L59.2647 106.835C59.7373 106.492 60.2392 106.183 60.6767 105.802C102.646 69.2247 144.609 32.6424 186.568 -3.94467C187.047 -4.36256 187.462 -4.85312 187.907 -5.31132C190.397 -5.13715 192.887 -4.97062 195.376 -4.77384C195.587 -4.75762 195.782 -4.54252 195.985 -4.41927Z" fill="#231F20"/>
</g>
<mask id="mask7_0_7" style="mask-type:luminance" maskUnits="userSpaceOnUse" x="71" y="6" width="101" height="141">
<path fill-rule="evenodd" clip-rule="evenodd" d="M84.2101 6.20185L71.305 15.3062L163.365 146.5L171.506 130.618L84.2101 6.20185Z" fill="white"/>
</mask>
<g mask="url(#mask7_0_7)">
<path fill-rule="evenodd" clip-rule="evenodd" d="M62.3856 211.215C69.146 205.286 75.8938 199.341 82.6709 193.432C117.676 162.904 152.69 132.386 187.704 101.866C187.985 101.621 188.301 101.411 188.6 101.185L188.032 109.309C187.6 109.616 187.138 109.888 186.741 110.235C148.43 143.623 110.125 177.017 71.8234 210.416C71.3455 210.834 70.9306 211.325 70.4863 211.782L62.3856 211.215Z" fill="#231F20"/>
</g>
<mask id="mask8_0_7" style="mask-type:luminance" maskUnits="userSpaceOnUse" x="71" y="6" width="101" height="141">
<path fill-rule="evenodd" clip-rule="evenodd" d="M84.2101 6.20185L71.305 15.3062L163.365 146.5L171.506 130.618" fill="white"/>
</mask>
<g mask="url(#mask8_0_7)">
<path fill-rule="evenodd" clip-rule="evenodd" d="M179.806 -5.87742C173.495 -0.339849 167.197 5.21385 160.869 10.7321C127.575 39.7649 94.2731 68.7895 60.9726 97.8128C60.6075 98.1311 60.2132 98.4126 59.8328 98.7116L60.4008 90.5881C60.8331 90.282 61.2947 90.0098 61.6905 89.6634C98.0037 58.0166 134.31 26.3648 170.613 -5.29177C171.01 -5.63815 171.343 -6.0587 171.705 -6.44388C174.405 -6.25509 177.106 -6.06621 179.806 -5.87742Z" fill="#231F20"/>
</g>
<mask id="mask9_0_7" style="mask-type:luminance" maskUnits="userSpaceOnUse" x="71" y="6" width="101" height="141">
<path fill-rule="evenodd" clip-rule="evenodd" d="M84.2101 6.20185L71.305 15.3062L163.365 146.5L171.506 130.618L84.2101 6.20185Z" fill="white"/>
</mask>
<g mask="url(#mask9_0_7)">
<path fill-rule="evenodd" clip-rule="evenodd" d="M78.5866 212.348C78.8946 212.048 79.1885 211.734 79.5118 211.452C115.155 180.375 150.802 149.298 186.451 118.226C186.774 117.944 187.125 117.696 187.464 117.432L186.896 125.556C186.464 125.862 186.002 126.134 185.605 126.48C152.991 154.902 120.384 183.33 87.7799 211.762C87.3827 212.107 87.0496 212.529 86.6873 212.914L78.5866 212.348Z" fill="#231F20"/>
</g>
<mask id="mask10_0_7" style="mask-type:luminance" maskUnits="userSpaceOnUse" x="71" y="6" width="101" height="141">
<path fill-rule="evenodd" clip-rule="evenodd" d="M84.2101 6.20185L71.305 15.3062L163.365 146.5L171.506 130.618" fill="white"/>
</mask>
<g mask="url(#mask10_0_7)">
<path fill-rule="evenodd" clip-rule="evenodd" d="M163.605 -7.01024C163.34 -6.74397 163.091 -6.46148 162.808 -6.21467C129.162 23.1207 95.5155 52.453 61.8658 81.7836C61.5827 82.0289 61.269 82.2387 60.9692 82.4646L61.5373 74.3411C61.968 74.0349 62.4296 73.7627 62.8269 73.4179C93.3603 46.8096 123.888 20.1949 154.412 -6.42459C154.809 -6.77096 155.142 -7.19151 155.505 -7.57669C158.204 -7.38791 160.905 -7.19902 163.605 -7.01024Z" fill="#231F20"/>
</g>
<mask id="mask11_0_7" style="mask-type:luminance" maskUnits="userSpaceOnUse" x="71" y="6" width="101" height="141">
<path fill-rule="evenodd" clip-rule="evenodd" d="M84.2101 6.20185L71.305 15.3062L163.365 146.5L171.506 130.618L84.2101 6.20185Z" fill="white"/>
</mask>
<g mask="url(#mask11_0_7)">
<path fill-rule="evenodd" clip-rule="evenodd" d="M94.7877 213.481C101.265 207.802 107.728 202.108 114.22 196.447C137.912 175.783 161.614 155.129 185.314 134.473C185.638 134.191 185.989 133.943 186.328 133.679C186.138 136.387 185.949 139.095 185.76 141.803C185.329 142.109 184.867 142.381 184.47 142.727C157.635 166.11 130.805 189.501 103.981 212.895C103.584 213.242 103.251 213.662 102.888 214.047L94.7877 213.481Z" fill="#231F20"/>
</g>
<mask id="mask12_0_7" style="mask-type:luminance" maskUnits="userSpaceOnUse" x="71" y="6" width="101" height="141">
<path fill-rule="evenodd" clip-rule="evenodd" d="M84.2101 6.20185L71.305 15.3062L163.365 146.5L171.506 130.618" fill="white"/>
</mask>
<g mask="url(#mask12_0_7)">
<path fill-rule="evenodd" clip-rule="evenodd" d="M147.404 -8.14305C140.927 -2.46405 134.463 3.23097 127.97 8.89374C106.443 27.6731 84.9045 46.4426 63.3674 65.2137C62.9622 65.5656 62.526 65.8835 62.1054 66.2177L62.6735 58.0941C63.1042 57.7879 63.5658 57.5158 63.9631 57.1709C88.6753 35.6346 113.383 14.095 138.086 -7.45103C138.523 -7.83397 138.899 -8.28786 139.303 -8.7095C142.003 -8.52072 144.704 -8.33183 147.404 -8.14305Z" fill="#231F20"/>
</g>
<mask id="mask13_0_7" style="mask-type:luminance" maskUnits="userSpaceOnUse" x="71" y="6" width="101" height="141">
<path fill-rule="evenodd" clip-rule="evenodd" d="M84.2101 6.20185L71.305 15.3062L163.365 146.5L171.506 130.618L84.2101 6.20185Z" fill="white"/>
</mask>
<g mask="url(#mask13_0_7)">
<path fill-rule="evenodd" clip-rule="evenodd" d="M110.989 214.614C111.786 213.886 112.567 213.143 113.381 212.435C136.936 191.895 160.494 171.358 184.053 150.822C184.417 150.505 184.811 150.224 185.191 149.926C185.002 152.634 184.813 155.341 184.623 158.05C184.193 158.356 183.731 158.628 183.335 158.973C162.278 177.32 141.226 195.671 120.18 214.03C119.783 214.374 119.452 214.795 119.089 215.18L110.989 214.614Z" fill="#231F20"/>
</g>
<mask id="mask14_0_7" style="mask-type:luminance" maskUnits="userSpaceOnUse" x="71" y="6" width="101" height="141">
<path fill-rule="evenodd" clip-rule="evenodd" d="M84.2101 6.20185L71.305 15.3062L163.365 146.5L171.506 130.618" fill="white"/>
</mask>
<g mask="url(#mask14_0_7)">
<path fill-rule="evenodd" clip-rule="evenodd" d="M131.203 -9.27586C130.977 -9.04627 130.767 -8.80195 130.525 -8.5901C108.357 10.7398 86.1858 30.0679 64.0118 49.3928C63.7705 49.6032 63.4984 49.7796 63.2418 49.9707L63.8099 41.8471C64.1988 41.5774 64.6187 41.3402 64.9757 41.0304C84.0321 24.4262 103.086 7.81721 122.132 -8.7983C122.489 -9.10961 122.78 -9.49219 123.102 -9.84231C125.802 -9.65353 128.503 -9.46464 131.203 -9.27586Z" fill="#231F20"/>
</g>
<mask id="mask15_0_7" style="mask-type:luminance" maskUnits="userSpaceOnUse" x="71" y="6" width="101" height="141">
<path fill-rule="evenodd" clip-rule="evenodd" d="M84.2101 6.20185L71.305 15.3062L163.365 146.5L171.506 130.618" fill="white"/>
</mask>
<g mask="url(#mask15_0_7)">
<path fill-rule="evenodd" clip-rule="evenodd" d="M115.002 -10.4087C108.905 -5.06062 102.817 0.297211 96.7087 5.63236C86.276 14.74 75.8322 23.8347 65.3898 32.931C65.0664 33.2128 64.7153 33.4609 64.3782 33.7237L64.9462 25.6001C65.295 25.364 65.6732 25.1617 65.9885 24.8868C79.3471 13.2511 92.7016 1.60909 106.052 -10.0393C106.367 -10.3142 106.62 -10.6616 106.901 -10.9751C109.601 -10.7863 112.302 -10.5975 115.002 -10.4087Z" fill="#231F20"/>
</g>
<mask id="mask16_0_7" style="mask-type:luminance" maskUnits="userSpaceOnUse" x="71" y="6" width="101" height="141">
<path fill-rule="evenodd" clip-rule="evenodd" d="M84.2101 6.20185L71.305 15.3062L163.365 146.5L171.506 130.618" fill="white"/>
</mask>
<g mask="url(#mask16_0_7)">
<path fill-rule="evenodd" clip-rule="evenodd" d="M98.801 -11.5415C94.6162 -7.86079 90.4469 -4.16236 86.2439 -0.502621C79.3453 5.50288 72.4242 11.4856 65.5145 17.4767L66.0824 9.35464C66.3909 9.15505 66.7287 8.99084 67.0037 8.75255C74.6662 2.08246 82.3247 -4.59398 89.9776 -11.2769C90.2511 -11.5153 90.4603 -11.8293 90.7004 -12.1079C93.4001 -11.9192 96.1013 -11.7303 98.801 -11.5415Z" fill="#231F20"/>
</g>
<path fill-rule="evenodd" clip-rule="evenodd" d="M163.972 147.768L197.25 194.203L151.749 171.134L163.972 147.768Z" fill="#231F20"/>
<path fill-rule="evenodd" clip-rule="evenodd" d="M221.195 199.972L172.442 130.486L186.406 103.309L253.13 137.769L221.195 199.972Z" fill="#231F20"/>
<path fill-rule="evenodd" clip-rule="evenodd" d="M84.4786 7.44208L72.7963 15.6814L163.766 145.29L171.131 130.922L84.4786 7.44208ZM70.6968 15.3148L84.845 5.337L172.89 130.799L163.967 148.204L163.25 147.183L70.6968 15.3148Z" fill="#231F20"/>
<path fill-rule="evenodd" clip-rule="evenodd" d="M252.001 242.798L220.44 198.31L217.774 203.442L194.439 191.501L237.841 252.677L252.001 242.798ZM218.426 205.46L220.639 201.196L249.896 242.434L238.204 250.591L199.213 195.63L218.426 205.46Z" fill="#231F20"/>
<path fill-rule="evenodd" clip-rule="evenodd" d="M217.263 49.5143C218.004 38.9239 209.981 29.7062 199.379 28.9648C188.777 28.2235 179.551 36.2351 178.81 46.8254C178.07 57.4157 186.091 66.6333 196.693 67.3747C207.295 68.116 216.522 60.1046 217.263 49.5143ZM177.307 46.7203C178.106 35.3027 188.056 26.6644 199.484 27.4635C210.915 28.2629 219.564 38.2018 218.766 49.6193C217.968 61.0369 208.019 69.6754 196.588 68.876C185.16 68.0769 176.509 58.1378 177.307 46.7203Z" fill="#231F20"/>
<path fill-rule="evenodd" clip-rule="evenodd" d="M107.163 126.956L14.5591 112.155L110.975 198.793L107.163 126.956ZM9.75507 109.863L108.606 125.661L108.635 126.27L112.671 202.342L9.75507 109.863Z" fill="#231F20"/>
</g>
</svg>
