<svg width="239" height="277" viewBox="0 0 239 277" fill="none" xmlns="http://www.w3.org/2000/svg">
<g opacity="0.402088">
<path d="M215.458 130.363L145.954 22.7054" stroke="#231F20"/>
<path d="M208.458 134.363L138.954 26.7054" stroke="#201C1D"/>
<path d="M203.458 138.363L133.954 30.7054" stroke="#1E1A1C"/>
<path d="M196.458 141.363L126.954 33.7054" stroke="#1C191A"/>
<path d="M190.458 145.363L120.954 37.7054" stroke="#1B1819"/>
<path d="M184.458 149.363L114.954 41.7054" stroke="#191718"/>
<path d="M178.458 154.363L108.954 46.7054" stroke="#181617"/>
<path d="M172.458 159.363L102.954 51.7054" stroke="#171516"/>
<path d="M166.458 162.363L96.9536 54.7054" stroke="#161415"/>
<path d="M160.458 166.363L90.9536 58.7054" stroke="#151314"/>
<path d="M153.458 170.363L83.9536 62.7054" stroke="#151213"/>
<path d="M147.458 174.363L77.9536 66.7054" stroke="#131111"/>
<path d="M141.458 178.363L71.9536 70.7054" stroke="#110F0F"/>
<path d="M135.458 182.363L65.9536 74.7054" stroke="#0F0D0D"/>
<path d="M129.458 186.363L59.9536 78.7054" stroke="#0C0A0A"/>
<path d="M123.458 191.363L53.9536 83.7054" stroke="#080607"/>
<path d="M116.458 195.363L46.9536 87.7054" stroke="#030303"/>
<path d="M110.458 199.363L40.9536 91.7054" stroke="#010202"/>
<path fill-rule="evenodd" clip-rule="evenodd" d="M196.463 48.4138L180.416 108.301L139.874 85.7402L196.463 48.4138Z" fill="#DFCCC2"/>
<path fill-rule="evenodd" clip-rule="evenodd" d="M196.463 48.4138L180.416 108.301L139.874 85.7402L196.463 48.4138Z" stroke="#010202"/>
<path fill-rule="evenodd" clip-rule="evenodd" d="M114.916 186.346C109.841 205.284 121.08 224.75 140.018 229.824C158.956 234.899 178.422 223.66 183.496 204.722C188.571 185.784 177.332 166.318 158.394 161.244C139.456 156.169 119.99 167.408 114.916 186.346ZM182.209 204.377C177.325 222.604 158.59 233.421 140.363 228.537C122.136 223.653 111.319 204.918 116.203 186.691C121.087 168.464 139.822 157.647 158.049 162.531C176.276 167.415 187.093 186.15 182.209 204.377Z" fill="#010202"/>
<path d="M26.2381 132.856L26.2645 131.525C26.4294 131.528 26.7346 131.54 27.1648 131.566C27.8772 131.61 28.6831 131.679 29.567 131.778C34.6988 132.357 39.9163 133.632 44.5412 135.854C51.6551 139.271 56.3129 144.47 57.5452 151.755C59.0434 160.611 55.3562 172.068 45.6402 186.445C36.1831 200.438 32.7961 211.905 34.5286 221.086C35.9329 228.528 40.6496 234.242 47.8306 238.464C53.3218 241.693 59.5374 243.68 65.2919 244.719C65.7938 244.81 66.2411 244.883 66.6278 244.939C66.8577 244.973 67.015 244.994 67.0937 245.003L66.9378 246.326C66.8468 246.315 66.677 246.292 66.4344 246.257C66.0335 246.198 65.5719 246.123 65.0554 246.029C59.1596 244.965 52.8036 242.932 47.1556 239.612C39.669 235.21 34.7035 229.195 33.2199 221.333C31.4136 211.761 34.8998 199.959 44.5368 185.699C54.0788 171.58 57.6638 160.44 56.2321 151.977C55.08 145.166 50.7193 140.299 43.9645 137.054C39.4938 134.906 34.4137 133.665 29.4179 133.102C28.5572 133.005 27.7739 132.938 27.0836 132.895C26.6722 132.87 26.3851 132.859 26.2381 132.856Z" fill="#010202"/>
<path fill-rule="evenodd" clip-rule="evenodd" d="M120.513 24.6962L126.479 26.7248L76.8992 170.372L70.9327 168.343L120.513 24.6962Z" fill="#010202"/>
</g>
</svg>
