<svg width="233" height="195" viewBox="0 0 233 195" fill="none" xmlns="http://www.w3.org/2000/svg">
<g opacity="0.37207">
<path d="M144.148 106.256L160.536 151.461" stroke="#020303"/>
<path d="M148.142 106.047L164.531 151.251" stroke="#020303"/>
<path d="M153.031 103.788L169.419 148.992" stroke="#020303"/>
<path d="M156.921 101.582L173.309 146.786" stroke="#020303"/>
<path d="M160.863 100.374L177.251 145.578" stroke="#020303"/>
<path d="M165.804 99.1133L182.192 144.318" stroke="#020302"/>
<path d="M169.693 96.9067L186.082 142.111" stroke="#020302"/>
<path d="M174.634 95.6464L191.023 140.851" stroke="#020302"/>
<path d="M177.526 93.4921L193.914 138.696" stroke="#020302"/>
<path d="M181.468 92.2841L197.856 137.488" stroke="#020202"/>
<path d="M186.356 90.0252L202.744 135.229" stroke="#010202"/>
<path d="M191.349 89.7635L207.738 134.968" stroke="#010202"/>
<path d="M196.238 87.5046L212.626 132.709" stroke="#010202"/>
<path d="M199.129 85.3503L215.517 130.555" stroke="#010202"/>
<path fill-rule="evenodd" clip-rule="evenodd" d="M166.097 103.252C167.736 97.6911 168.428 91.8746 168.119 85.9684C167.136 67.2069 156.112 50.7757 139.674 42.7208C132.063 38.988 123.644 37.2349 115.014 37.6872C87.9581 39.1051 66.8874 61.8318 67.1899 89.1037C67.1928 89.7617 67.2157 90.4615 67.2572 91.2543C68.7317 119.389 92.5008 141.007 120.352 139.547C130.31 139.026 139.687 135.605 147.55 129.779C156.408 123.22 162.948 113.897 166.097 103.252ZM139.186 43.7387C155.26 51.6154 166.038 67.6814 167 86.0271C167.302 91.8035 166.625 97.4906 165.023 102.928C161.944 113.335 155.548 122.452 146.887 128.866C139.198 134.562 130.031 137.907 120.293 138.417C93.0597 139.844 69.818 118.706 68.3763 91.1957C68.3356 90.4198 68.3134 89.7377 68.3105 89.096C68.0147 62.4263 88.6179 40.2038 115.073 38.8174C123.513 38.375 131.744 40.0889 139.186 43.7387Z" fill="#010202"/>
<path d="M24.1265 117.553L23.5235 116.595L149.919 35.8579L150.522 36.8158L24.1265 117.553Z" fill="#010202"/>
<path fill-rule="evenodd" clip-rule="evenodd" d="M182.66 76.8205L178.541 78.4183L149.867 5.19864L153.986 3.60086L182.66 76.8205Z" fill="#010202"/>
<path fill-rule="evenodd" clip-rule="evenodd" d="M12.5753 70.0928C17.8146 69.8183 21.8391 65.3483 21.5645 60.1087C21.2899 54.8691 16.8202 50.8443 11.5809 51.1189C6.34141 51.3935 2.31599 55.8637 2.59058 61.1031C2.86516 66.3425 7.3358 70.3674 12.5753 70.0928ZM11.6375 52.1994C16.2801 51.9561 20.2408 55.5225 20.4841 60.1653C20.7274 64.8082 17.1612 68.769 12.5187 69.0123C7.87585 69.2556 3.91434 65.6891 3.67104 61.0465C3.42773 56.4038 6.99472 52.4427 11.6375 52.1994Z" fill="#010202"/>
<path fill-rule="evenodd" clip-rule="evenodd" d="M42.0825 88.5739C42.2559 91.8829 39.7138 94.7063 36.4047 94.8797C33.0957 95.0531 30.2723 92.511 30.0989 89.2019C29.9255 85.8929 32.4676 83.0695 35.7767 82.8961C39.0857 82.7227 41.9091 85.2648 42.0825 88.5739Z" fill="#010202"/>
<path fill-rule="evenodd" clip-rule="evenodd" d="M62.5607 58.9615C62.9221 65.8562 57.6256 71.7373 50.7321 72.0986C43.8374 72.4599 37.9563 67.1646 37.595 60.2699C37.2337 53.3753 42.529 47.4942 49.4237 47.1329C56.3172 46.7716 62.1994 52.0669 62.5607 58.9615Z" fill="#010202"/>
<path fill-rule="evenodd" clip-rule="evenodd" d="M128.414 188.192L229.247 125.025L157.89 99.528L128.414 188.192ZM226.687 125.304L130.458 185.587L158.587 100.97L226.687 125.304Z" fill="#010202"/>
<path fill-rule="evenodd" clip-rule="evenodd" d="M166.042 103.666C163.039 114.345 156.778 123.596 148.4 130.067L157.713 100.539L166.042 103.666Z" fill="#010202"/>
</g>
</svg>
