<svg width="279" height="287" viewBox="0 0 279 287" fill="none" xmlns="http://www.w3.org/2000/svg">
<g opacity="0.400065">
<path fill-rule="evenodd" clip-rule="evenodd" d="M21.9412 154.229C27.2691 135.648 46.8672 124.966 65.7133 130.37C84.5594 135.774 95.5187 155.218 90.1908 173.799C84.8629 192.38 65.2648 203.062 46.4187 197.658C27.5726 192.254 16.6133 172.81 21.9412 154.229Z" fill="#231F20"/>
<path fill-rule="evenodd" clip-rule="evenodd" d="M43.275 81.9768L81.1691 243.686L198.999 126.63L43.275 81.9768Z" fill="#C5CEBD"/>
<path fill-rule="evenodd" clip-rule="evenodd" d="M200.487 126.397L42.8403 81.1925L80.5931 247.023L200.487 126.397ZM197.601 127.152L81.4589 244.003L44.8876 83.3626L197.601 127.152Z" fill="#231F20"/>
<path fill-rule="evenodd" clip-rule="evenodd" d="M66.0977 128.609C46.9861 123.128 27.1729 133.749 21.8449 152.33C16.517 170.91 27.6915 190.417 46.8031 195.897C65.9146 201.377 85.7279 190.756 91.0558 172.176C96.3837 153.595 85.2092 134.089 66.0977 128.609ZM47.2118 194.471C28.9101 189.223 18.209 170.544 23.3112 152.75C28.4134 134.957 47.3871 124.786 65.6889 130.034C83.9907 135.282 94.6917 153.962 89.5895 171.755C84.4873 189.549 65.5136 199.719 47.2118 194.471Z" fill="#231F20"/>
<path d="M213.357 264.614L212.032 265.349L66.0429 1.97682L67.3675 1.2426L213.357 264.614Z" fill="#231F20"/>
<path fill-rule="evenodd" clip-rule="evenodd" d="M152.91 215.071C149.459 214.081 145.92 215.861 145.007 219.047C144.094 222.232 146.151 225.616 149.602 226.606C153.052 227.595 156.59 225.815 157.503 222.63C158.417 219.445 156.36 216.06 152.91 215.071ZM150.007 225.194C147.401 224.447 145.847 221.891 146.537 219.485C147.227 217.08 149.899 215.735 152.505 216.483C155.11 217.23 156.663 219.786 155.974 222.191C155.284 224.597 152.612 225.941 150.007 225.194Z" fill="#231F20"/>
<path fill-rule="evenodd" clip-rule="evenodd" d="M124.202 104.53L159.02 167.57L200.141 126.306L124.202 104.53ZM127.293 106.995L197.257 127.056L159.372 165.073L127.293 106.995Z" fill="#231F20"/>
<path d="M243.999 180.917L227.275 221.941L225.844 221.369L241.958 181.84L203.641 169.777L233.721 137.906L203.887 103.127L205.061 102.179L235.764 137.972L206.404 169.081L243.999 180.917Z" fill="#231F20"/>
<path fill-rule="evenodd" clip-rule="evenodd" d="M150.259 68.2936C152.695 59.7995 161.34 54.8262 169.568 57.1856C177.798 59.5454 182.494 68.3443 180.058 76.8383C177.623 85.3324 168.978 90.3058 160.748 87.9459C152.52 85.5865 147.824 76.7877 150.259 68.2936Z" fill="#231F20"/>
</g>
</svg>
