<svg width="1402" height="785" viewBox="0 0 1402 785" fill="none" xmlns="http://www.w3.org/2000/svg">
<g style="mix-blend-mode:screen">
<path d="M1254.48 52.252L1253.96 52.4884H1253.58C1252.83 53.1988 1252.36 54.1558 1252.26 55.1842C1252.21 56.0764 1252.49 56.9548 1253.05 57.6525C1253.61 58.3501 1254.4 58.8182 1255.28 58.9678H1256.28H1256.94H1257.32H1257.55C1257.92 58.6459 1258.22 58.2541 1258.43 57.8154C1258.64 57.3768 1258.76 56.9002 1258.78 56.414C1258.82 55.724 1258.67 55.0371 1258.36 54.4226C1258.04 53.8081 1257.57 53.2877 1256.99 52.914H1256.61H1256.04H1255.62H1254.67L1254.48 52.252Z" fill="#E7B851"/>
</g>
<g style="mix-blend-mode:screen">
<path d="M1292.08 58.826L1292.32 59.2045L1292.98 59.772H1293.26H1293.64H1293.92C1294.56 59.8839 1295.22 59.8096 1295.81 59.5579C1296.41 59.3062 1296.92 58.8878 1297.28 58.353C1297.71 57.7158 1297.93 56.9671 1297.93 56.2012C1297.93 55.4352 1297.71 54.6865 1297.28 54.0493L1296.86 53.6235L1296.1 53.1979H1295.49H1294.16H1293.55L1292.79 53.6235L1292.36 54.0493C1291.93 54.5825 1291.64 55.2229 1291.53 55.9047C1291.42 56.5865 1291.5 57.2847 1291.75 57.9274L1292.08 58.826Z" fill="#EADECF"/>
</g>
<g style="mix-blend-mode:screen">
<path d="M1155.02 0.0853648V0.700081V1.2204C1155.37 1.98725 1156 2.59047 1156.78 2.90694C1157.57 3.2234 1158.44 3.22914 1159.23 2.92296L1159.61 2.68654L1160.08 2.30824L1160.36 1.97714L1160.69 1.64604L1161.07 1.07852V0.652884V-0.245736V-0.624178V-1.1917V-1.56999C1160.88 -2.03933 1160.58 -2.46026 1160.2 -2.80332C1159.83 -3.14639 1159.38 -3.40339 1158.9 -3.55645C1158.43 -3.71332 1157.93 -3.76494 1157.44 -3.70772C1156.95 -3.65049 1156.48 -3.4858 1156.06 -3.22535L1155.3 -2.75237L1155.02 -2.37408L1154.69 -1.80656V-1.33358V-0.293077L1155.02 0.0853648Z" fill="#F9E59F"/>
</g>
<g style="mix-blend-mode:screen">
<path d="M1295.63 6.7068L1294.63 7.65262L1294.3 8.1256L1294.02 8.835V9.35532C1294.01 9.92305 1294.13 10.4856 1294.37 11.0014C1294.6 11.5172 1294.95 11.973 1295.39 12.3349C1295.8 12.6384 1296.27 12.8503 1296.77 12.9564C1297.26 13.0625 1297.78 13.0603 1298.28 12.9498H1298.65L1299.17 12.666L1299.46 12.3821L1300.07 11.6727V11.2944V10.6796V10.2539C1300.09 9.43065 1299.84 8.62485 1299.36 7.95312C1298.88 7.28139 1298.21 6.77856 1297.42 6.51758H1296.71H1295.82L1295.63 6.7068Z" fill="#F9F6D2"/>
</g>
<g style="mix-blend-mode:screen">
<path d="M1220.85 12.2874H1221.37H1222.13H1222.65H1222.93C1223.49 12.2668 1224.03 12.1093 1224.51 11.8287C1224.99 11.5481 1225.39 11.1532 1225.68 10.6794V10.159V9.44964V8.92946L1225.2 7.6052V7.17956C1224.74 6.5331 1224.1 6.03886 1223.36 5.76062H1222.89H1222.37H1221.66H1221.18L1220.29 6.37548L1219.95 6.65924L1219.58 7.17956V7.69974C1219.36 8.08451 1219.22 8.50871 1219.16 8.94793C1219.11 9.38715 1219.14 9.83272 1219.26 10.2591C1219.38 10.6854 1219.58 11.0841 1219.85 11.4322C1220.13 11.7803 1220.47 12.0709 1220.85 12.2874Z" fill="#DFCBB3"/>
</g>
<g style="mix-blend-mode:screen">
<path d="M1367.33 21.7464L1367.04 22.0775V22.314L1366.62 23.0707V23.3545V23.7801V24.1112C1366.6 24.7515 1366.78 25.3816 1367.12 25.9209C1367.47 26.4601 1367.97 26.884 1368.56 27.1382C1369.25 27.4573 1370.02 27.5602 1370.77 27.4336C1371.52 27.307 1372.22 26.9568 1372.77 26.4286L1373.1 25.9084L1373.38 25.0572V24.4423V23.1652V22.5977L1372.81 21.8883L1372.34 21.51C1371.74 21.1788 1371.06 21.005 1370.38 21.005C1369.69 21.005 1369.02 21.1788 1368.42 21.51L1367.33 21.7464Z" fill="#53240B"/>
</g>
<g style="mix-blend-mode:screen">
<path d="M1233.24 207.522L1232.49 208.752V209.414V210.407V211.069L1232.77 211.637V212.015V212.535C1233.14 213.632 1233.79 214.611 1234.66 215.373L1235.37 215.657H1236.46H1237.26L1238.54 214.9L1239.01 214.285L1239.44 213.245V212.488V211.778V211.542C1239.36 211.012 1239.23 210.49 1239.06 209.981C1238.81 209.114 1238.32 208.337 1237.64 207.742C1236.96 207.147 1236.12 206.759 1235.23 206.623H1234.52L1233.62 207.049L1233.24 207.522Z" fill="#F9D46B"/>
</g>
<g style="mix-blend-mode:screen">
<path d="M1349.73 -5.35371C1348.8 -5.96922 1347.67 -6.20591 1346.56 -6.01576H1346.14L1345.57 -5.63747L1345.19 -5.25902L1344.63 -4.3604V-3.93476V-3.27271V-2.84707C1344.74 -2.19348 1344.99 -1.56788 1345.33 -1.00249L1345.62 -0.245748L1345.95 0.227232L1346.9 1.07851L1347.37 1.36227H1348.17H1348.74C1349.72 1.19953 1350.6 0.656518 1351.18 -0.149045C1351.77 -0.954608 1352.01 -1.95788 1351.86 -2.94161C1351.68 -3.46475 1351.41 -3.94745 1351.04 -4.36156C1350.67 -4.77567 1350.23 -5.11297 1349.73 -5.35371Z" fill="#F1E9E1"/>
</g>
<g style="mix-blend-mode:screen">
<path d="M1359.19 63.4608V64.1702V64.454V64.8796V65.1162L1359.71 65.7309V65.9675L1360.09 66.2512H1360.37C1360.98 66.4942 1361.63 66.5697 1362.27 66.4698C1362.91 66.3698 1363.52 66.0982 1364.02 65.6837C1364.49 65.2767 1364.86 64.7603 1365.08 64.1795C1365.31 63.5987 1365.39 62.971 1365.32 62.3511C1365.25 61.7311 1365.03 61.1377 1364.68 60.6222C1364.33 60.1068 1363.86 59.6849 1363.31 59.3934C1362.86 59.183 1362.38 59.074 1361.89 59.074C1361.4 59.074 1360.91 59.183 1360.47 59.3934C1359.83 59.8306 1359.36 60.4691 1359.13 61.2065C1358.9 61.944 1358.92 62.7378 1359.19 63.4608Z" fill="#4B2008"/>
</g>
<g style="mix-blend-mode:screen">
<path d="M1316.44 51.4005V51.0222V50.36L1316.15 49.8872L1315.82 49.5087V48.9412L1315.11 47.9007L1314.69 47.5224L1313.98 47.0968H1313.41C1312.92 47.07 1312.42 47.1467 1311.96 47.3219C1311.5 47.4972 1311.08 47.7671 1310.73 48.1145C1310.37 48.4618 1310.1 48.879 1309.92 49.339C1309.74 49.799 1309.65 50.2918 1309.67 50.7858L1310.29 51.4952V52.1572L1311.23 53.3396V53.9071C1311.66 54.3573 1312.22 54.6731 1312.82 54.8161C1313.43 54.9592 1314.06 54.9235 1314.65 54.7132C1315.23 54.5029 1315.75 54.1271 1316.12 53.6315C1316.5 53.1358 1316.72 52.5416 1316.77 51.9208L1316.44 51.4005Z" fill="#EEE3D8"/>
</g>
<g style="mix-blend-mode:screen">
<path d="M1252.4 81.102L1252.82 82.0479L1253.11 82.4264L1253.58 82.8992L1253.96 83.1358L1254.95 83.5614H1255.38H1256.04H1256.51C1257.03 83.3982 1257.51 83.1255 1257.91 82.7621C1258.31 82.3987 1258.63 81.9529 1258.85 81.455C1259.06 80.9571 1259.17 80.4187 1259.16 79.8763C1259.15 79.334 1259.02 78.8003 1258.78 78.3116V78.0278L1258.45 77.6495L1257.93 77.2239L1257.51 76.9873L1256.51 76.6564H1255.43H1254.95L1254.01 77.082L1253.63 77.3658L1253.16 77.8859L1252.87 78.2644L1252.16 79.3994V79.8724V80.5818L1252.4 81.102Z" fill="#9F5504"/>
</g>
<g style="mix-blend-mode:screen">
<path d="M1366.57 73.44L1366.14 73.6766L1365.62 74.1496L1365.34 74.5279L1364.82 75.521V75.994V76.7034V77.2237C1364.98 77.7765 1365.25 78.288 1365.63 78.7215C1366 79.155 1366.47 79.4996 1367 79.7304H1367.37H1368.7H1369.08H1369.36C1370.1 79.3186 1370.67 78.6469 1370.95 77.8441C1371.23 77.0412 1371.2 76.1635 1370.87 75.3791C1370.53 74.5772 1369.89 73.9336 1369.1 73.5748C1368.3 73.216 1367.4 73.1679 1366.57 73.44Z" fill="#F9DD85"/>
</g>
<g style="mix-blend-mode:screen">
<path d="M1371.3 43.2657L1370.59 44.4955V45.063V45.8197V46.34C1370.73 46.8863 1371.01 47.3901 1371.39 47.8096C1371.76 48.2292 1372.24 48.5523 1372.77 48.752C1373.24 48.9307 1373.76 48.998 1374.27 48.9489C1374.77 48.8997 1375.26 48.7353 1375.7 48.4682L1376.03 48.1845L1376.41 47.7588V47.4277L1376.74 46.5291V46.1035V45.4886V45.063C1376.5 44.2672 1376.01 43.5682 1375.35 43.0667C1374.69 42.5652 1373.88 42.2872 1373.05 42.2726H1372.39L1371.58 42.6982L1371.3 43.2657Z" fill="#662B02"/>
</g>
<g style="mix-blend-mode:screen">
<path d="M1330.96 110.047L1330.67 110.614H1330.39C1330.11 111.256 1329.99 111.95 1330.01 112.648V113.452V113.83L1330.34 114.351L1330.63 114.634L1331.38 115.202H1333.13L1334.27 113.783V112.6V112.364V110.614L1333.09 109.243H1331.29L1330.53 109.905L1330.96 110.047Z" fill="#F9E59F"/>
</g>
<g style="mix-blend-mode:screen">
<path d="M1394.05 39.4347L1393.62 38.9145L1393.34 38.5834C1392.8 38.1132 1392.14 37.785 1391.44 37.6282C1390.74 37.4714 1390.01 37.4909 1389.32 37.6848C1388.71 37.9028 1388.15 38.2598 1387.7 38.7275C1387.25 39.1952 1386.91 39.761 1386.72 40.3807C1386.48 41.1831 1386.43 42.0321 1386.59 42.8555C1386.74 43.679 1387.1 44.4525 1387.62 45.1102C1388.16 45.6722 1388.83 46.0915 1389.57 46.3308C1390.32 46.5701 1391.11 46.622 1391.87 46.4818H1392.3L1392.87 46.1507L1393.2 45.8196L1393.86 44.9683V44.5427V43.8805V43.5495V42.9818C1394.14 41.9601 1394.14 40.8822 1393.86 39.8605L1394.05 39.4347Z" fill="#F9EEB8"/>
</g>
<g style="mix-blend-mode:screen">
<path d="M1388.33 45.8197V46.1508V46.6238V47.948V48.3263C1388.38 48.9077 1388.6 49.463 1388.94 49.9343L1389.27 50.3128L1389.93 50.6911H1390.41H1391.68H1392.02C1392.64 50.6385 1393.24 50.4269 1393.77 50.0762L1394.1 49.6979L1394.47 49.0831V48.6101V47.3332V46.7656L1394.81 46.4345L1395.42 45.5359V45.0629V44.4009V43.9279C1395.19 43.0288 1394.71 42.2106 1394.05 41.5631L1393.39 41.043H1393.01H1392.44H1391.07H1390.64L1390.08 41.2794L1389.7 41.5158C1389.22 41.9045 1388.83 42.3941 1388.56 42.9499C1388.29 43.5057 1388.15 44.1142 1388.14 44.732C1388.15 45.1019 1388.21 45.4683 1388.33 45.8197Z" fill="#793903"/>
</g>
<g style="mix-blend-mode:screen">
<path d="M1244.64 220.717V220.197V219.393C1244.62 218.841 1244.48 218.3 1244.23 217.81C1243.97 217.319 1243.62 216.891 1243.18 216.555C1242.55 216.045 1241.79 215.74 1240.98 215.681C1240.18 215.622 1239.37 215.812 1238.68 216.225C1237.99 216.639 1237.44 217.255 1237.11 217.991C1236.78 218.727 1236.69 219.547 1236.84 220.339V220.859L1237.12 221.332V221.569L1238.21 222.42L1238.64 222.656H1239.3H1239.77H1240.91H1241.38L1241.95 222.325L1242.33 221.994L1243.18 220.907L1244.64 220.717Z" fill="#793903"/>
</g>
<g style="mix-blend-mode:screen">
<path d="M1226.81 166.564L1227.05 166.28V165.855V165.524V164.672V163.774V163.443C1226.49 162.408 1225.59 161.591 1224.52 161.12C1223.44 160.649 1222.23 160.551 1221.09 160.842L1220.38 161.267L1219.62 162.166L1219.34 162.97V164.531L1219.62 165.287L1220.29 166.186L1220.81 166.564L1221.23 166.801C1223.79 168.03 1225.54 167.983 1226.81 166.564Z" fill="#F9E59F"/>
</g>
<g style="mix-blend-mode:screen">
<path d="M1384.83 75.6629L1384.31 75.3792H1383.74C1383.25 75.134 1382.72 75.0063 1382.18 75.0063C1381.64 75.0063 1381.1 75.134 1380.62 75.3792L1379.81 75.9467V76.1832L1379.58 76.5615V76.8453V77.5075V77.7913V78.5007C1379.65 79.0578 1379.85 79.5892 1380.18 80.0502C1380.5 80.5112 1380.92 80.8882 1381.42 81.1492C1382.02 81.4563 1382.69 81.6165 1383.36 81.6165C1384.03 81.6165 1384.7 81.4563 1385.3 81.1492C1385.78 80.9016 1386.19 80.5387 1386.5 80.0929C1386.8 79.6472 1386.99 79.1325 1387.05 78.5952V77.602L1386.72 76.8453L1386.34 76.3251L1384.83 75.6629Z" fill="#EADECF"/>
</g>
<g style="mix-blend-mode:screen">
<path d="M1274.68 84.1288L1275.05 83.7032V83.3247L1275.43 82.4262V82.0478V81.0073V80.3452V79.9668L1275.05 79.4466L1274.72 79.1155L1273.68 78.5007H1273.45C1272.97 78.2849 1272.45 78.1875 1271.93 78.2169H1271.32L1270.56 78.6899L1270.14 79.1629L1269.47 80.3924V80.8654V82.0478C1269.6 82.6119 1269.86 83.1377 1270.23 83.5818C1270.6 84.0259 1271.07 84.3756 1271.6 84.6018C1272.1 84.7664 1272.62 84.8261 1273.14 84.7773C1273.67 84.7284 1274.17 84.5721 1274.63 84.318L1274.68 84.1288Z" fill="#E7D8C6"/>
</g>
<g style="mix-blend-mode:screen">
<path d="M1389.32 26.003V25.53L1388.99 24.8679L1388.7 24.4896L1387.85 23.7801L1387.43 23.5437L1386.77 23.3073H1386.25C1385.67 23.3312 1385.11 23.4738 1384.6 23.7263C1384.09 23.9787 1383.63 24.3354 1383.27 24.7734V25.0098V25.3409V25.5773V26.3814V27.3272C1383.45 28.1571 1383.94 28.8852 1384.65 29.3606C1385.35 29.836 1386.21 30.0224 1387.05 29.8812C1387.83 29.6121 1388.49 29.0732 1388.9 28.3619C1389.32 27.6507 1389.47 26.814 1389.32 26.003Z" fill="#F9F6D2"/>
</g>
<g style="mix-blend-mode:screen">
<path d="M1325.47 213.954V212.961L1325.19 211.636V211.211C1324.83 210.09 1324.05 209.155 1323.01 208.61H1322.4H1321.26H1319.98L1319.13 209.083C1318.48 209.932 1318.2 211.002 1318.33 212.062C1318.4 212.585 1318.57 213.089 1318.84 213.544C1319.11 213.998 1319.47 214.395 1319.89 214.711C1320.3 215.048 1320.77 215.297 1321.28 215.442C1321.79 215.587 1322.32 215.626 1322.85 215.555C1323.37 215.484 1323.87 215.305 1324.33 215.029C1324.78 214.754 1325.17 214.388 1325.47 213.954Z" fill="#F9DD85"/>
</g>
<g style="mix-blend-mode:screen">
<path d="M1364.68 156.065C1364.67 156.554 1364.77 157.039 1364.97 157.487C1365.16 157.936 1365.45 158.338 1365.81 158.666C1366.42 159.289 1367.22 159.681 1368.08 159.776C1368.95 159.871 1369.82 159.663 1370.54 159.186H1370.87L1371.25 158.902L1371.68 158.382V157.957V157.626C1372 157.244 1372.24 156.797 1372.37 156.315C1372.5 155.832 1372.52 155.327 1372.44 154.835C1372.28 153.995 1371.81 153.248 1371.11 152.754C1370.39 152.141 1369.48 151.804 1368.53 151.804C1367.59 151.804 1366.67 152.141 1365.96 152.754C1365.51 153.174 1365.16 153.689 1364.94 154.263C1364.72 154.836 1364.63 155.452 1364.68 156.065Z" fill="#C47F1E"/>
</g>
<g style="mix-blend-mode:screen">
<path d="M1320.74 79.0209L1321.17 79.4937L1321.55 79.7775C1322.11 80.1994 1322.78 80.4724 1323.48 80.5715C1324.19 80.6706 1324.9 80.5929 1325.57 80.3452C1326.18 80.0976 1326.71 79.6984 1327.13 79.1853C1327.54 78.6722 1327.82 78.0622 1327.93 77.4127C1328.14 76.5808 1328.13 75.7105 1327.9 74.8833C1327.68 74.0561 1327.25 73.299 1326.65 72.6832C1326.06 72.1646 1325.35 71.8022 1324.58 71.6287C1323.81 71.4553 1323.01 71.4764 1322.25 71.6901H1321.88L1321.31 72.1157L1321.02 72.4468L1320.46 73.3454V73.7711V74.4333V75.3791C1320.3 76.4347 1320.43 77.5121 1320.84 78.5006L1320.74 79.0209Z" fill="#D6BDA1"/>
</g>
<g style="mix-blend-mode:screen">
<path d="M1253.96 158.855L1252.73 159.612L1252.26 160.132L1251.83 160.983V161.693V162.308V162.686V163.254C1251.65 164.386 1251.78 165.547 1252.21 166.611L1252.73 167.226L1253.63 167.794H1254.43H1255.9L1256.66 167.51L1257.46 166.801L1257.84 166.091V165.429V165.193C1257.99 164.683 1258.1 164.161 1258.17 163.632C1258.34 162.745 1258.25 161.829 1257.91 160.991C1257.58 160.153 1257.01 159.428 1256.28 158.902H1255.62H1254.62L1253.96 158.855Z" fill="#3B1703"/>
</g>
<g style="mix-blend-mode:screen">
<path d="M1394.05 60.9544C1394.54 60.6931 1394.97 60.3367 1395.32 59.9063C1395.67 59.4758 1395.93 58.98 1396.08 58.4478V57.9748V57.2654V56.8398L1395.56 55.8465L1395.28 55.5155L1394.76 55.0897L1394.33 54.8533C1393.7 54.7024 1393.03 54.7024 1392.39 54.8533H1391.59H1391.02L1389.84 55.2789L1389.37 55.61L1388.85 56.2249L1388.56 56.6979C1388.41 57.1637 1388.34 57.6555 1388.38 58.1454C1388.41 58.6353 1388.54 59.1135 1388.76 59.5528C1388.98 59.9921 1389.29 60.3838 1389.66 60.7054C1390.03 61.0271 1390.46 61.2724 1390.93 61.4274C1391.45 61.5606 1392 61.5873 1392.54 61.5061C1393.07 61.4248 1393.59 61.2373 1394.05 60.9544Z" fill="#DFCBB3"/>
</g>
<g style="mix-blend-mode:screen">
<path d="M1345.71 52.6776L1346 52.0154V51.7316V51.0222V50.2655V49.9344V49.5087V49.225C1345.64 48.6884 1345.14 48.2596 1344.56 47.9846C1343.97 47.7096 1343.33 47.5989 1342.69 47.6643C1342.01 47.7301 1341.37 47.9812 1340.82 48.3901C1340.28 48.7991 1339.86 49.3498 1339.61 49.9817C1339.35 50.4871 1339.22 51.0462 1339.22 51.6134C1339.22 52.1806 1339.35 52.7397 1339.61 53.2451C1339.85 53.6804 1340.18 54.0562 1340.58 54.3433C1340.98 54.6304 1341.44 54.821 1341.93 54.9004C1342.72 55.0355 1343.53 54.8864 1344.23 54.4797C1344.92 54.073 1345.45 53.4347 1345.71 52.6776Z" fill="#F9DD85"/>
</g>
<g style="mix-blend-mode:screen">
<path d="M1309.63 101.865L1309.25 102.243L1308.92 103.047V103.52V104.04L1308.59 104.56L1308.16 105.743V106.31V107.162L1308.4 107.682C1308.66 108.101 1309.01 108.459 1309.42 108.732C1309.84 109.004 1310.3 109.184 1310.79 109.261C1311.28 109.337 1311.78 109.307 1312.26 109.174C1312.73 109.04 1313.17 108.805 1313.55 108.486V107.587L1314.12 107.304L1314.5 105.837L1314.88 105.412C1314.98 104.77 1314.9 104.111 1314.64 103.515C1314.38 102.919 1313.95 102.411 1313.41 102.054C1312.88 101.619 1312.23 101.366 1311.55 101.332C1310.87 101.298 1310.19 101.484 1309.63 101.865Z" fill="#C47F1E"/>
</g>
<g style="mix-blend-mode:screen">
<path d="M1396.74 115.769V115.344V114.634V114.114V113.026V112.601L1396.32 112.033L1395.94 111.702C1395.48 111.363 1394.94 111.135 1394.38 111.037C1393.81 110.938 1393.23 110.972 1392.68 111.134H1392.44H1392.11L1391.5 111.655L1391.26 111.938V112.175C1390.92 112.964 1390.9 113.849 1391.19 114.656C1391.48 115.462 1392.06 116.13 1392.82 116.526C1393.47 116.816 1394.2 116.899 1394.9 116.763C1395.6 116.628 1396.25 116.281 1396.74 115.769Z" fill="#6D341B"/>
</g>
<g style="mix-blend-mode:screen">
<path d="M1363.69 157.294L1363.12 156.68H1362.79L1362.22 156.443H1361.79H1360.8H1360.33H1359.76H1359.33L1358.81 156.821L1358.48 157.2L1358.1 157.815V158.24V159.375V159.848V160.51V160.936L1358.72 161.787L1359.05 162.118L1359.62 162.45H1360.04H1361.08H1361.56H1362.22H1362.64C1363.08 162.196 1363.45 161.855 1363.75 161.447C1364.04 161.04 1364.24 160.576 1364.35 160.085C1364.5 159.104 1364.26 158.102 1363.69 157.294Z" fill="#D59C38"/>
</g>
<g style="mix-blend-mode:screen">
<path d="M1398.4 178.719V179.334L1398.68 179.712C1399.1 180.288 1399.66 180.746 1400.31 181.045C1400.95 181.343 1401.66 181.47 1402.37 181.415C1403.02 181.352 1403.65 181.129 1404.19 180.766C1404.74 180.403 1405.19 179.911 1405.49 179.334C1405.91 178.573 1406.13 177.719 1406.13 176.851C1406.13 175.983 1405.91 175.129 1405.49 174.368C1405.11 173.681 1404.55 173.112 1403.86 172.721C1403.18 172.329 1402.4 172.13 1401.62 172.145H1401.14L1400.53 172.382L1400.1 172.618L1399.35 173.328L1399.06 173.706L1398.73 174.274V174.652V175.172C1398.25 176.122 1398.06 177.188 1398.16 178.246L1398.4 178.719Z" fill="#F9E59F"/>
</g>
<g style="mix-blend-mode:screen">
<path d="M1336.11 314.693L1334.93 315.45L1334.46 316.017L1334.08 316.916V317.578V318.24V318.618V319.139C1333.95 320.284 1334.13 321.445 1334.6 322.496L1335.12 323.111L1336.06 323.632H1336.82H1338.34L1339.04 323.301L1339.85 322.544L1340.23 321.834V321.125V320.888C1340.38 320.38 1340.47 319.856 1340.51 319.328C1340.66 318.427 1340.55 317.501 1340.19 316.662C1339.83 315.823 1339.24 315.106 1338.48 314.598H1337.77H1336.77L1336.11 314.693Z" fill="#E7B851"/>
</g>
<g style="mix-blend-mode:screen">
<path d="M1316.82 34.9419V34.3744V33.9488C1316.34 33.0433 1315.52 32.3631 1314.55 32.0568C1313.7 31.7832 1312.78 31.8351 1311.96 32.2022C1311.15 32.5693 1310.5 33.2255 1310.15 34.0433V34.3271V34.7054V35.9824V36.3607V36.5973C1310.36 37.0338 1310.65 37.4226 1311.02 37.7398C1311.39 38.0571 1311.81 38.2959 1312.28 38.4417C1312.94 38.6463 1313.65 38.6711 1314.34 38.5133C1315.02 38.3555 1315.64 38.0208 1316.15 37.5431V37.212L1316.44 36.6918V36.3135V35.3676L1316.82 34.9419Z" fill="#3B1703"/>
</g>
<g style="mix-blend-mode:screen">
<path d="M1395.61 173.422L1396.32 174.179L1396.7 174.463L1397.27 174.746H1397.74H1398.78H1399.25H1399.87H1400.29C1400.74 174.414 1401.11 173.988 1401.38 173.498C1401.65 173.008 1401.81 172.466 1401.85 171.909C1401.9 171.389 1401.83 170.865 1401.65 170.375C1401.47 169.885 1401.18 169.44 1400.81 169.071V168.835L1400.39 168.551L1399.77 168.314H1399.3H1398.26H1397.79L1397.17 168.551L1396.79 168.787L1396.04 169.497L1395.75 169.875L1395.42 170.537V171.01V172.098V172.571L1395.66 173.233L1395.61 173.422Z" fill="#F9F6D2"/>
</g>
<g style="mix-blend-mode:screen">
<path d="M1400.48 226.771V226.014L1400.2 225.163V224.879V224.501V224.264C1399.71 223.84 1399.12 223.561 1398.48 223.46C1397.85 223.36 1397.19 223.442 1396.6 223.697C1395.9 224.008 1395.31 224.521 1394.91 225.17C1394.51 225.819 1394.3 226.574 1394.33 227.339V227.953L1394.76 228.71L1395.18 229.136L1396.32 229.845H1396.89H1397.79H1398.4C1399.05 229.612 1399.62 229.215 1400.07 228.693C1400.52 228.171 1400.82 227.541 1400.95 226.866L1400.48 226.771Z" fill="#F9E59F"/>
</g>
<path d="M754.636 -1340.04L671.029 -1256.44L2386.65 459.176L2470.26 375.569L754.636 -1340.04Z" fill="url(#paint0_linear_1_4169)"/>
<path d="M686.068 -1271.46L671.019 -1256.41L2386.64 459.201L2401.69 444.151L686.068 -1271.46Z" fill="url(#paint1_linear_1_4169)"/>
<path d="M286.922 -1044.81L281.704 -1039.59L2105.22 783.909L2110.43 778.692L286.922 -1044.81Z" fill="url(#paint2_linear_1_4169)"/>
<path d="M532.886 -1300.17L527.668 -1294.95L2351.18 528.546L2356.4 523.329L532.886 -1300.17Z" fill="url(#paint3_linear_1_4169)"/>
<path d="M828.494 -1461L823.277 -1455.78L2646.79 367.715L2652.01 362.498L828.494 -1461Z" fill="url(#paint4_linear_1_4169)"/>
<path d="M194.732 -1048L189.514 -1042.78L2013.03 780.716L2018.24 775.498L194.732 -1048Z" fill="url(#paint5_linear_1_4169)"/>
<path d="M5.21711 -1043.73L0 -1038.51L1823.51 784.987L1828.73 779.77L5.21711 -1043.73Z" fill="url(#paint6_linear_1_4169)"/>
<path d="M640.382 -1421.94L635.165 -1416.72L2458.68 406.779L2463.89 401.561L640.382 -1421.94Z" fill="url(#paint7_linear_1_4169)"/>
<g style="mix-blend-mode:screen">
<path d="M1730.18 -291.064C1951.8 -69.4386 2116.49 125.134 2098.04 143.673C2079.6 162.213 1884.93 -2.51587 1663.3 -224.141C1441.68 -445.766 1276.95 -640.338 1295.44 -658.878C1313.93 -677.418 1508.55 -512.689 1730.18 -291.064Z" fill="url(#paint8_radial_1_4169)"/>
</g>
<g style="mix-blend-mode:screen">
<path d="M1462.96 -255.592C1684.59 -33.9671 1849.27 160.605 1830.82 179.145C1812.38 197.685 1617.71 32.9556 1396.08 -188.67C1174.46 -410.295 1009.73 -604.867 1028.22 -623.407C1046.71 -641.946 1241.33 -477.217 1462.96 -255.592Z" fill="url(#paint9_radial_1_4169)"/>
</g>
<g style="mix-blend-mode:screen">
<path d="M1448.3 -240.931C1572.92 -116.355 1665.53 -6.91412 1655.12 3.72729C1644.72 14.3687 1535.32 -78.4717 1410.7 -203.094C1286.07 -327.717 1193.52 -437.347 1203.92 -447.752C1214.33 -458.157 1323.72 -365.553 1448.3 -240.931Z" fill="url(#paint10_radial_1_4169)"/>
</g>
<defs>
<linearGradient id="paint0_linear_1_4169" x1="556.052" y1="-1448.33" x2="2616.12" y2="598.379" gradientUnits="userSpaceOnUse">
<stop stop-color="#F4EFEA"/>
<stop offset="0.06" stop-color="#F3EDE8"/>
<stop offset="0.53" stop-color="#EEE3D8"/>
<stop offset="0.99" stop-color="#E3D1BD"/>
</linearGradient>
<linearGradient id="paint1_linear_1_4169" x1="2190.2" y1="247.709" x2="1151" y2="-791.498" gradientUnits="userSpaceOnUse">
<stop stop-color="#F4E0AE"/>
<stop offset="0.2" stop-color="#EACD8C"/>
<stop offset="0.32" stop-color="#E5C47C"/>
<stop offset="0.36" stop-color="#E0BE77"/>
<stop offset="0.42" stop-color="#D2AD69"/>
<stop offset="0.5" stop-color="#BC9152"/>
<stop offset="0.54" stop-color="#AA7A40"/>
<stop offset="0.62" stop-color="#C09657"/>
<stop offset="0.72" stop-color="#D4AF6B"/>
<stop offset="0.8" stop-color="#E1BF78"/>
<stop offset="0.87" stop-color="#E5C47C"/>
</linearGradient>
<linearGradient id="paint2_linear_1_4169" x1="1891.31" y1="564.391" x2="786.768" y2="-540.163" gradientUnits="userSpaceOnUse">
<stop stop-color="#F4E0AE"/>
<stop offset="0.2" stop-color="#EACD8C"/>
<stop offset="0.32" stop-color="#E5C47C"/>
<stop offset="0.36" stop-color="#E0BE77"/>
<stop offset="0.42" stop-color="#D2AD69"/>
<stop offset="0.5" stop-color="#BC9152"/>
<stop offset="0.54" stop-color="#AA7A40"/>
<stop offset="0.62" stop-color="#C09657"/>
<stop offset="0.72" stop-color="#D4AF6B"/>
<stop offset="0.8" stop-color="#E1BF78"/>
<stop offset="0.87" stop-color="#E5C47C"/>
</linearGradient>
<linearGradient id="paint3_linear_1_4169" x1="2137.28" y1="309.028" x2="1032.73" y2="-795.526" gradientUnits="userSpaceOnUse">
<stop stop-color="#F4E0AE"/>
<stop offset="0.2" stop-color="#EACD8C"/>
<stop offset="0.32" stop-color="#E5C47C"/>
<stop offset="0.36" stop-color="#E0BE77"/>
<stop offset="0.42" stop-color="#D2AD69"/>
<stop offset="0.5" stop-color="#BC9152"/>
<stop offset="0.54" stop-color="#AA7A40"/>
<stop offset="0.62" stop-color="#C09657"/>
<stop offset="0.72" stop-color="#D4AF6B"/>
<stop offset="0.8" stop-color="#E1BF78"/>
<stop offset="0.87" stop-color="#E5C47C"/>
</linearGradient>
<linearGradient id="paint4_linear_1_4169" x1="2432.85" y1="148.164" x2="1328.31" y2="-956.39" gradientUnits="userSpaceOnUse">
<stop stop-color="#F4E0AE"/>
<stop offset="0.2" stop-color="#EACD8C"/>
<stop offset="0.32" stop-color="#E5C47C"/>
<stop offset="0.36" stop-color="#E0BE77"/>
<stop offset="0.42" stop-color="#D2AD69"/>
<stop offset="0.5" stop-color="#BC9152"/>
<stop offset="0.54" stop-color="#AA7A40"/>
<stop offset="0.62" stop-color="#C09657"/>
<stop offset="0.72" stop-color="#D4AF6B"/>
<stop offset="0.8" stop-color="#E1BF78"/>
<stop offset="0.87" stop-color="#E5C47C"/>
</linearGradient>
<linearGradient id="paint5_linear_1_4169" x1="1798.86" y1="561.331" x2="694.31" y2="-543.223" gradientUnits="userSpaceOnUse">
<stop stop-color="#F4E0AE"/>
<stop offset="0.2" stop-color="#EACD8C"/>
<stop offset="0.32" stop-color="#E5C47C"/>
<stop offset="0.36" stop-color="#E0BE77"/>
<stop offset="0.42" stop-color="#D2AD69"/>
<stop offset="0.5" stop-color="#BC9152"/>
<stop offset="0.54" stop-color="#AA7A40"/>
<stop offset="0.62" stop-color="#C09657"/>
<stop offset="0.72" stop-color="#D4AF6B"/>
<stop offset="0.8" stop-color="#E1BF78"/>
<stop offset="0.87" stop-color="#E5C47C"/>
</linearGradient>
<linearGradient id="paint6_linear_1_4169" x1="1609.58" y1="565.502" x2="505.03" y2="-539.052" gradientUnits="userSpaceOnUse">
<stop stop-color="#F4E0AE"/>
<stop offset="0.2" stop-color="#EACD8C"/>
<stop offset="0.32" stop-color="#E5C47C"/>
<stop offset="0.36" stop-color="#E0BE77"/>
<stop offset="0.42" stop-color="#D2AD69"/>
<stop offset="0.5" stop-color="#BC9152"/>
<stop offset="0.54" stop-color="#AA7A40"/>
<stop offset="0.62" stop-color="#C09657"/>
<stop offset="0.72" stop-color="#D4AF6B"/>
<stop offset="0.8" stop-color="#E1BF78"/>
<stop offset="0.87" stop-color="#E5C47C"/>
</linearGradient>
<linearGradient id="paint7_linear_1_4169" x1="2244.47" y1="187.428" x2="1139.93" y2="-917.126" gradientUnits="userSpaceOnUse">
<stop stop-color="#F4E0AE"/>
<stop offset="0.2" stop-color="#EACD8C"/>
<stop offset="0.32" stop-color="#E5C47C"/>
<stop offset="0.36" stop-color="#E0BE77"/>
<stop offset="0.42" stop-color="#D2AD69"/>
<stop offset="0.5" stop-color="#BC9152"/>
<stop offset="0.54" stop-color="#AA7A40"/>
<stop offset="0.62" stop-color="#C09657"/>
<stop offset="0.72" stop-color="#D4AF6B"/>
<stop offset="0.8" stop-color="#E1BF78"/>
<stop offset="0.87" stop-color="#E5C47C"/>
</linearGradient>
<radialGradient id="paint8_radial_1_4169" cx="0" cy="0" r="1" gradientTransform="matrix(32.1133 -32.113 401.416 401.413 1544.74 -105.524)" gradientUnits="userSpaceOnUse">
<stop stop-color="#8C4703"/>
<stop offset="0.09" stop-color="#7B3F03"/>
<stop offset="0.49" stop-color="#391D01"/>
<stop offset="0.78" stop-color="#100800"/>
<stop offset="0.93"/>
</radialGradient>
<radialGradient id="paint9_radial_1_4169" cx="0" cy="0" r="1" gradientTransform="matrix(32.1133 -32.113 401.416 401.413 1283.51 -76.0471)" gradientUnits="userSpaceOnUse">
<stop stop-color="#8C4703"/>
<stop offset="0.09" stop-color="#7B3F03"/>
<stop offset="0.49" stop-color="#391D01"/>
<stop offset="0.78" stop-color="#100800"/>
<stop offset="0.93"/>
</radialGradient>
<radialGradient id="paint10_radial_1_4169" cx="0" cy="0" r="1" gradientTransform="matrix(20.0758 -20.0757 224.849 224.848 1674.41 -500.782)" gradientUnits="userSpaceOnUse">
<stop stop-color="#F9EEB8"/>
<stop offset="0.04" stop-color="#EBE1AE"/>
<stop offset="0.23" stop-color="#A59D7A"/>
<stop offset="0.41" stop-color="#6A654E"/>
<stop offset="0.58" stop-color="#3C3A2D"/>
<stop offset="0.72" stop-color="#1B1A14"/>
<stop offset="0.85" stop-color="#070705"/>
<stop offset="0.93"/>
</radialGradient>
</defs>
</svg>
