<svg width="61" height="61" viewBox="0 0 61 61" fill="none" xmlns="http://www.w3.org/2000/svg">
<path d="M45.1218 54.1424L36.468 43.5415C36.4304 43.4945 36.3928 43.4443 36.3583 43.4098L31.3855 37.3177L35.6027 32.1506L50.2262 50.0695C48.6962 51.6121 46.9811 52.976 45.1218 54.1424ZM25.8296 57.9707L29.8554 53.0356L33.9879 58.1055C32.809 58.2623 31.605 58.347 30.3759 58.347C28.8333 58.347 27.3126 58.2121 25.8296 57.9707ZM23.1676 57.4001C21.0042 56.8169 18.9379 55.9891 17.019 54.9325L29.8304 39.2397L33.9127 44.2345L23.1676 57.4001ZM42.9709 55.3464C41.0113 56.3278 38.9231 57.0959 36.7471 57.607L31.4451 51.101L35.4835 46.1565L42.9709 55.3464ZM10.5381 50.0569L30.3885 25.7449L34.0475 30.2191L14.9152 53.6564C13.3349 52.6092 11.877 51.3957 10.5381 50.0569ZM30.3885 2.43308C45.4008 2.43308 57.6791 14.3194 58.3093 29.1751H53.5686C52.9008 17.1633 42.9207 7.525 30.7898 7.45289C30.7428 7.45289 30.6926 7.45289 30.655 7.45289C24.6162 7.45289 18.9034 9.82326 14.5515 14.1251C10.4409 18.198 8.04548 23.4968 7.73194 29.1751H2.46757C3.10093 14.3194 15.3761 2.43308 30.3885 2.43308ZM53.4589 46.1565C52.9603 46.8713 52.4398 47.5768 51.8786 48.2447L50.1792 46.1565H53.4589ZM56.936 39.1551C56.4156 40.7447 55.7571 42.2654 54.967 43.7234H48.2102L44.4759 39.1551H56.936ZM52.3897 31.605H58.3093C58.2372 33.3546 57.9958 35.0696 57.6039 36.722H42.4849L38.3148 31.605H52.3897ZM24.4563 29.1751H17.4423C18.3924 22.8415 23.801 17.9785 30.2662 17.8813C30.3289 17.8813 30.401 17.8813 30.4606 17.8813C36.9415 17.8813 42.5319 22.8039 43.4914 29.1751H36.3081L31.3134 23.061C30.8525 22.4872 29.8899 22.4872 29.429 23.061L24.4563 29.1751ZM45.9495 29.1751C44.9525 21.3929 38.1204 15.3541 30.2317 15.4513C22.4402 15.5736 15.9718 21.5152 14.9998 29.1751H10.1744C10.4911 24.1521 12.6169 19.4615 16.2634 15.8652C20.1545 12.0118 25.2589 9.88283 30.655 9.88283C30.6926 9.88283 30.7428 9.88283 30.7773 9.88283C41.5725 9.94554 50.4708 18.4896 51.1386 29.1751H45.9495ZM18.2826 36.7345C18.2324 36.722 18.1854 36.722 18.1353 36.722H3.1605C2.77171 35.0696 2.53969 33.3546 2.45503 31.605H22.4621L18.2826 36.7345ZM12.5824 43.7234H5.82247C5.03234 42.278 4.37704 40.7447 3.85343 39.1551H16.3136L12.5824 43.7234ZM7.31806 46.1565H10.6008L8.89831 48.2447C8.34021 47.5643 7.80405 46.8713 7.31806 46.1565ZM56.6319 45.6924C56.7071 45.5952 56.7793 45.4855 56.8263 45.3663C58.0679 43.1904 59.0399 40.8419 59.7203 38.3744C59.7454 38.3022 59.7673 38.2301 59.7799 38.158C60.4383 35.6779 60.7895 33.0755 60.7895 30.3885C60.7769 13.6265 47.1504 0 30.3885 0C13.6265 0 0 13.6265 0 30.3885C0 33.0755 0.351166 35.6654 1.0096 38.1455C1.02215 38.2427 1.04723 38.3273 1.08172 38.412C1.74956 40.867 2.72154 43.1998 3.96317 45.3663C4.0102 45.4855 4.07291 45.5952 4.15756 45.6924C5.23928 47.5423 6.50285 49.2668 7.93888 50.8471C7.99845 50.9317 8.07056 51.0164 8.15522 51.0791C8.16776 51.0791 8.16776 51.0916 8.1803 51.0916C10.0177 53.0607 12.0964 54.7726 14.379 56.2086C14.3916 56.2212 14.3916 56.2212 14.4041 56.2337C14.4292 56.2556 14.4668 56.2682 14.5013 56.2933C17.1633 57.9331 20.0949 59.1747 23.2052 59.9272C23.2303 59.9398 23.2523 59.9398 23.2899 59.9523C25.5756 60.4979 27.9585 60.802 30.401 60.802C35.8347 60.802 40.9391 59.3566 45.3632 56.8514C45.4604 56.8169 45.5482 56.7667 45.6329 56.7071C45.6329 56.7071 45.6329 56.6946 45.6454 56.6946C48.2321 55.1865 50.59 53.3021 52.6217 51.1261C52.6342 51.1136 52.6342 51.1136 52.6468 51.1136C52.7314 51.0414 52.8036 50.9693 52.8631 50.8847C54.2866 49.2668 55.5502 47.5423 56.6319 45.6924Z" fill="#D8AE5E"/>
</svg>
