<svg width="52" height="19" viewBox="0 0 52 19" fill="none" xmlns="http://www.w3.org/2000/svg">
<path d="M6.1961 18.3018C8.51334 18.3018 10.4024 17.0291 11.3343 15.1709V18.0473H12.8204V11.8364C12.8204 8.22182 9.9994 5.42182 6.3976 5.42182C2.74543 5.42182 0 8.32364 0 11.8364C0 15.4 2.66987 18.3018 6.1961 18.3018ZM6.3976 16.8C3.70255 16.8 1.56162 14.56 1.56162 11.8618C1.56162 9.16364 3.70255 6.92364 6.3976 6.92364C9.11784 6.92364 11.2588 9.16364 11.2588 11.8618C11.2588 14.56 9.11784 16.8 6.3976 16.8Z" fill="#DAC5A7"/>
<path d="M19.3062 18.0473V10.5127C19.3062 8.4 20.4649 7.05091 22.3287 7.05091C23.034 7.05091 23.714 7.22909 24.3185 7.58546V5.98182C23.6888 5.67636 22.9584 5.52364 22.2028 5.52364C19.3818 5.52364 17.7446 7.56 17.7446 10.4364V18.0473H19.3062Z" fill="#DAC5A7"/>
<path d="M28.2179 2.72364C28.8476 2.72364 29.3262 2.21455 29.3262 1.55273C29.3262 0.89091 28.8476 0.381819 28.2179 0.381819C27.5882 0.381819 27.0845 0.89091 27.0845 1.55273C27.0845 2.21455 27.5882 2.72364 28.2179 2.72364ZM27.4371 5.70182V18.0473H28.9987V5.70182H27.4371Z" fill="#DAC5A7"/>
<path d="M36.3181 18.0473V12.5236H38.1064C38.2324 12.9055 38.4339 13.2873 38.7613 13.6182L43.1187 18.0473H45.1589L39.8444 12.6255C39.5925 12.3709 39.4414 12.1164 39.4414 11.8618C39.4414 11.5818 39.5925 11.3527 39.8444 11.0982L45.1841 5.70182H43.2195L38.8117 10.1564C38.5094 10.4618 38.2828 10.7927 38.1568 11.1236H36.3181V0H34.7565V18.0473H36.3181Z" fill="#DAC5A7"/>
<path d="M50.2106 18.2509C50.8403 18.2509 51.3441 17.7418 51.3441 17.08C51.3441 16.4436 50.8403 15.96 50.2106 15.96C49.581 15.96 49.0772 16.4436 49.0772 17.08C49.0772 17.7418 49.581 18.2509 50.2106 18.2509Z" fill="#DAC5A7"/>
</svg>
