<svg width="15" height="14" viewBox="0 0 15 14" fill="none" xmlns="http://www.w3.org/2000/svg">
<path d="M3 1.50075C2.9998 1.89857 2.84158 2.28003 2.56013 2.56119C2.27868 2.84235 1.89707 3.0002 1.49925 3C1.10143 2.9998 0.719974 2.84158 0.43881 2.56013C0.157646 2.27868 -0.000198725 1.89707 1.87771e-07 1.49925C0.0001991 1.10143 0.158425 0.719974 0.43987 0.43881C0.721316 0.157646 1.10293 -0.000198725 1.50075 1.87771e-07C1.89857 0.0001991 2.28003 0.158425 2.56119 0.43987C2.84235 0.721316 3.0002 1.10293 3 1.50075ZM3.045 4.11075H0.0450001V13.5007H3.045V4.11075ZM7.785 4.11075H4.8V13.5007H7.755V8.57325C7.755 5.82825 11.3325 5.57325 11.3325 8.57325V13.5007H14.295V7.55325C14.295 2.92575 9 3.09825 7.755 5.37075L7.785 4.11075Z" fill="#75757F"/>
</svg>
