<svg width="178" height="225" viewBox="0 0 178 225" fill="none" xmlns="http://www.w3.org/2000/svg">
<g opacity="0.502697">
<path fill-rule="evenodd" clip-rule="evenodd" d="M131.874 99.0577L46.2047 50.3368L49.6886 44.2264L135.358 92.9474L131.874 99.0577Z" stroke="#010202"/>
<path d="M35.1866 1.88595L151.759 223.714" stroke="#010202"/>
<path fill-rule="evenodd" clip-rule="evenodd" d="M49.3879 114.175C25.0961 113.327 6.09107 92.9735 6.93823 68.7141C7.78539 44.4547 28.1639 25.4769 52.4557 26.3252C76.7476 27.1735 95.7526 47.5266 94.9054 71.786C94.0583 96.0454 73.6798 115.023 49.3879 114.175Z" fill="#010202"/>
<path d="M85.4388 97.52L48.0548 26.3768" stroke="#FEFEFE"/>
<path fill-rule="evenodd" clip-rule="evenodd" d="M100.687 154.503L13.6104 200.654L10.3091 194.441L97.3858 148.292L100.687 154.503Z" stroke="#010202"/>
<path fill-rule="evenodd" clip-rule="evenodd" d="M74.7753 143.781C69.7846 143.607 65.8792 139.424 66.0533 134.44C66.2273 129.456 70.4149 125.556 75.4056 125.731C80.3963 125.905 84.3016 130.087 84.1276 135.071C83.9535 140.055 79.7659 143.955 74.7753 143.781Z" stroke="#010202"/>
</g>
</svg>
