<svg width="184" height="421" viewBox="0 0 184 421" fill="none" xmlns="http://www.w3.org/2000/svg">
<path d="M170.906 54.6843C172.757 67.4207 171.194 80.0336 169.675 92.2902C168.758 99.748 167.832 107.412 167.602 115.15C166.968 138.757 169.908 162.324 176.323 185.052L177.424 188.9C182.117 205.203 187.431 223.686 178.611 238.45C171.928 249.643 158.541 256.296 137.634 258.855C123.98 260.518 113.585 262.703 104.893 265.775C93.4114 269.829 85.2163 275.46 80.5093 282.521C75.0365 290.753 74.0076 301.271 77.5444 313.755C79.0336 319.04 81.0823 324.344 83.1063 329.446C86.8376 338.985 90.6933 348.843 90.9238 359.111C90.9392 360.004 90.9295 360.891 90.896 361.788C90.4386 370.117 87.6974 378.159 82.9727 385.034C78.2628 392.009 72.1524 397.927 65.0304 402.412C49.9318 412.011 31.9373 415.374 17.9468 417.237C-1.22373 419.884 -20.5683 421.064 -39.9185 420.767C-62.1547 420.3 -81.3631 417.429 -97.0367 412.235C-111.8 407.349 -125.117 398.871 -135.792 387.562C-146.946 375.527 -153.24 361.521 -153.973 347.094C-154.686 333.231 -150.366 319.712 -146.205 306.666C-144.492 301.309 -142.721 295.775 -141.321 290.304C-137.528 275.256 -136.35 259.668 -137.837 244.221C-139.273 228.766 -143.23 213.651 -149.55 199.475C-152.804 192.479 -156.427 185.661 -160.404 179.049C-170.966 160.796 -180.946 143.539 -174.389 119.025C-170.713 105.264 -161.383 93.2235 -147.456 84.2533C-135.197 76.338 -119.662 70.9938 -103.72 69.2095C-86.9507 67.3249 -69.8338 68.3897 -53.2689 69.4257C-39.8458 70.1602 -26.0108 71.0169 -12.4963 70.3575C2.66564 69.5802 24.5422 66.0403 42.5521 53.5132C50.7344 47.8254 57.2595 40.1235 63.575 32.6684C68.9413 26.3489 74.5022 19.8002 81.0966 14.3568C88.9707 7.90659 101.482 0.175766 116.373 0.00295908C128.322 -0.134967 139.899 4.72048 149.91 14.1007C159.238 22.9609 165.948 34.2169 169.306 46.6361C169.997 49.2853 170.531 51.9726 170.906 54.6843ZM168.689 155.331C166.759 142.02 165.967 128.569 166.32 115.123C166.531 107.354 167.484 99.6222 168.408 92.1393C170.316 76.7091 172.113 62.141 168.007 46.8979C164.717 34.7207 158.144 23.6817 149.006 14.9865C139.289 5.88594 128.016 1.13692 116.403 1.27205C101.889 1.44689 89.6355 9.01723 81.9239 15.3475C75.3955 20.6954 69.8884 27.1986 64.5608 33.4903C58.1841 40.9997 51.5978 48.7558 43.2944 54.5683C25.0269 67.2559 2.91603 70.8395 -12.4089 71.6301C-26.0273 72.3225 -39.8712 71.4583 -53.2696 70.6234C-69.7768 69.5909 -86.836 68.5296 -103.523 70.4239C-119.292 72.2024 -134.575 77.4276 -146.738 85.3022C-160.422 94.1459 -169.56 105.925 -173.147 119.367C-179.564 143.377 -169.726 160.408 -159.298 178.425C-155.3 185.077 -151.654 191.934 -148.377 198.97C-141.997 213.271 -138.006 228.523 -136.565 244.117C-135.066 259.708 -136.255 275.441 -140.081 290.629C-141.492 296.15 -143.263 301.701 -144.964 307.098C-149.099 320.06 -153.38 333.444 -152.678 347.086C-151.961 361.211 -145.788 374.933 -134.813 386.785C-124.285 397.929 -111.153 406.282 -96.5968 411.092C-81.0562 416.264 -61.9645 419.112 -39.8525 419.564C-20.5817 419.844 -1.31752 418.657 17.7731 416.012C31.6482 414.142 49.4673 410.843 64.3396 401.385C71.3071 396.988 77.2893 391.196 81.9099 384.374C86.4992 377.69 89.1646 369.873 89.6154 361.777C89.6604 360.92 89.6626 360.043 89.641 359.175C89.4217 349.144 85.5991 339.39 81.9083 329.945C79.898 324.81 77.8154 319.492 76.312 314.135C72.6857 301.256 73.7266 290.384 79.424 281.888C84.2842 274.593 92.703 268.787 104.441 264.647C113.258 261.516 123.712 259.334 137.463 257.663C157.925 255.182 171.023 248.708 177.497 237.868C181.338 231.558 182.689 223.876 181.785 214.508C180.962 206.224 178.522 197.629 176.141 189.357L175.039 185.51C172.264 175.6 170.143 165.519 168.689 155.331Z" fill="white" fill-opacity="0.27"/>
</svg>
