<svg width="191" height="473" viewBox="0 0 191 473" fill="none" xmlns="http://www.w3.org/2000/svg">
<path d="M257.356 23.5972C265.835 33.2794 271.381 44.7146 276.772 55.8264C280.057 62.5841 283.448 69.5188 287.463 76.138C299.768 96.2947 315.051 114.474 332.793 130.06L335.81 132.69C348.614 143.82 363.124 156.442 363.75 173.628C364.228 186.656 356.612 199.519 340.458 213.035C329.903 221.856 322.367 229.343 316.744 236.646C309.312 246.292 305.497 255.475 305.386 263.96C305.27 273.844 310.126 283.231 319.883 291.785C324.006 295.41 328.61 298.747 333.083 301.928C341.402 307.905 349.998 314.081 355.775 322.573C356.273 323.314 356.747 324.063 357.207 324.834C361.352 332.073 363.425 340.313 363.199 348.652C363.039 357.067 361.129 365.356 357.591 372.993C350.139 389.259 336.867 401.866 326.138 411.037C311.49 423.683 295.897 435.193 279.496 445.466C260.581 457.166 242.9 465.202 226.922 469.366C211.875 473.293 196.088 473.42 180.981 469.734C165.076 465.7 152.177 457.368 143.716 445.659C135.58 434.412 131.854 420.718 128.252 407.506C126.776 402.08 125.253 396.472 123.453 391.119C118.453 376.428 110.966 362.705 101.318 350.55C91.7081 338.362 80.1682 327.829 67.1557 319.369C60.6206 315.267 53.8722 311.514 46.9391 308.128C28.1502 298.554 10.3901 289.497 2.56279 265.36C-1.83513 251.812 -0.553074 236.634 6.2575 221.532C12.2407 208.224 22.3727 195.291 34.7806 185.125C47.8293 174.424 62.7733 166.01 77.2384 157.871C88.9027 151.189 100.979 144.384 111.962 136.482C124.264 127.585 140.698 112.718 149.001 92.4114C152.775 83.1886 154.062 73.1767 155.309 63.4859C156.376 55.2643 157.481 46.7446 160.056 38.5904C163.156 28.8954 169.452 15.6042 181.855 7.3615C191.808 0.747976 204.164 -1.47267 217.666 0.956005C230.312 3.31936 242.065 9.11657 251.636 17.7129C253.656 19.5609 255.566 21.5256 257.356 23.5972ZM310.225 109.268C301.367 99.1464 293.387 88.2887 286.372 76.8126C282.325 70.1775 278.92 63.1712 275.626 56.389C268.837 42.4022 262.423 29.1987 250.688 18.6392C241.305 10.209 229.786 4.51911 217.389 2.19101C204.286 -0.162629 192.243 1.98201 182.57 8.41041C170.485 16.4495 164.318 29.466 161.289 38.972C158.718 47.01 157.633 55.4624 156.583 63.6396C155.315 73.4092 154.005 83.4998 150.197 92.8932C141.766 113.474 125.159 128.505 112.728 137.502C101.675 145.489 89.5874 152.292 77.8891 158.877C63.4743 166.987 48.5807 175.373 35.6067 186.037C23.3398 196.104 13.3552 208.8 7.4298 222.023C0.755167 236.885 -0.508148 251.739 3.79086 264.972C11.4614 288.61 28.9796 297.554 47.5281 307.004C54.5008 310.412 61.2891 314.184 67.8649 318.306C80.9967 326.839 92.6391 337.469 102.328 349.772C112.064 362.041 119.622 375.891 124.671 390.718C126.488 396.119 128.021 401.74 129.528 407.194C133.106 420.321 136.791 433.882 144.799 444.948C153.082 456.412 165.724 464.571 181.379 468.55C196.274 472.177 211.838 472.046 226.669 468.167C242.524 464.057 260.095 456.065 278.897 444.421C295.222 434.176 310.744 422.704 325.327 410.104C335.954 400.989 349.114 388.531 356.453 372.507C359.909 365.027 361.78 356.914 361.948 348.676C362.164 340.571 360.151 332.561 356.127 325.522C355.698 324.778 355.223 324.04 354.733 323.324C349.094 315.025 340.582 308.918 332.349 302.999C327.869 299.782 323.23 296.452 319.055 292.773C309.008 283.937 303.97 274.247 304.131 264.019C304.243 255.253 308.151 245.803 315.75 235.946C321.447 228.524 329.034 221.008 339.666 212.128C355.489 198.919 362.96 186.363 362.499 173.745C362.291 166.361 359.248 159.18 353.395 151.809C348.199 145.305 341.478 139.419 334.982 133.772L331.965 131.142C324.247 124.334 316.985 117.027 310.225 109.268Z" fill="white" fill-opacity="0.27"/>
</svg>
