<svg width="26" height="26" viewBox="0 0 26 26" fill="none" xmlns="http://www.w3.org/2000/svg">
<path fill-rule="evenodd" clip-rule="evenodd" d="M4.6573 24.1325C4.53088 24.8531 5.24192 25.4172 5.86989 25.0944L13.0024 21.4285L20.1349 25.0944C20.7628 25.4172 21.4739 24.8531 21.3475 24.1325L19.9992 16.4471L25.7229 10.9925C26.2579 10.4828 25.981 9.55072 25.2644 9.44892L17.3043 8.31813L13.7551 1.2875C13.4354 0.654168 12.5693 0.654168 12.2496 1.2875L8.70043 8.31813L0.74041 9.44892C0.0238023 9.55072 -0.253098 10.4828 0.281821 10.9925L6.00561 16.4471L4.6573 24.1325ZM12.6273 19.6343L6.63794 22.7126L7.7661 16.282C7.81928 15.9789 7.71929 15.6685 7.50164 15.4611L2.77802 10.9597L9.36302 10.0242C9.63524 9.98552 9.87292 9.81166 10.0013 9.55729L13.0024 3.6125L16.0034 9.55729C16.1318 9.81166 16.3695 9.98552 16.6417 10.0242L23.2267 10.9597L18.5031 15.4611C18.2855 15.6685 18.1855 15.9789 18.2387 16.282L19.3668 22.7126L13.3775 19.6343C13.1409 19.5126 12.8639 19.5126 12.6273 19.6343Z" fill="#9D875C"/>
</svg>
