<svg viewBox="0 0 32 32" fill="none" xmlns="http://www.w3.org/2000/svg">
<g transform="translate(-48 0)">
<path fill-rule="evenodd" clip-rule="evenodd" d="M64 0C55.1634 0 48 7.16344 48 16C48 24.8366 55.1634 32 64 32C72.8366 32 80 24.8366 80 16C80 7.16344 72.8366 0 64 0ZM60.4823 7.51835C61.3925 7.47693 61.6834 7.4668 64.0009 7.4668H63.9983C66.3165 7.4668 66.6063 7.47693 67.5165 7.51835C68.425 7.55995 69.0454 7.70378 69.5894 7.9148C70.1512 8.13258 70.6259 8.42414 71.1005 8.89881C71.5752 9.37313 71.8668 9.84922 72.0854 10.4105C72.2952 10.9531 72.4392 11.5732 72.4819 12.4816C72.5228 13.3918 72.5335 13.6827 72.5335 16.0002C72.5335 18.3178 72.5228 18.6079 72.4819 19.5181C72.4392 20.4262 72.2952 21.0465 72.0854 21.5893C71.8668 22.1503 71.5752 22.6264 71.1005 23.1007C70.6264 23.5754 70.151 23.8677 69.59 24.0856C69.047 24.2967 68.4262 24.4405 67.5178 24.4821C66.6075 24.5235 66.3176 24.5336 63.9999 24.5336C61.6825 24.5336 61.3918 24.5235 60.4816 24.4821C59.5733 24.4405 58.953 24.2967 58.4101 24.0856C57.8492 23.8677 57.3731 23.5754 56.899 23.1007C56.4245 22.6264 56.1329 22.1503 55.9148 21.5891C55.7039 21.0465 55.5601 20.4264 55.5183 19.5179C55.4771 18.6077 55.4668 18.3178 55.4668 16.0002C55.4668 13.6827 55.4775 13.3917 55.5182 12.4814C55.5591 11.5733 55.7031 10.9531 55.9146 10.4103C56.1333 9.84922 56.4248 9.37313 56.8995 8.89881C57.3738 8.42432 57.8499 8.13276 58.4112 7.9148C58.9538 7.70378 59.5739 7.55995 60.4823 7.51835Z" fill="currentColor"/>
<path fill-rule="evenodd" clip-rule="evenodd" d="M63.2355 9.00409C63.3841 9.00385 63.544 9.00393 63.7166 9.004L64.001 9.00409C66.2794 9.00409 66.5495 9.01226 67.4492 9.05315C68.2812 9.0912 68.7328 9.23022 69.0336 9.34702C69.4318 9.50169 69.7157 9.68658 70.0142 9.98525C70.3129 10.2839 70.4978 10.5684 70.6528 10.9666C70.7696 11.267 70.9088 11.7186 70.9467 12.5506C70.9876 13.4502 70.9964 13.7204 70.9964 15.9978C70.9964 18.2751 70.9876 18.5453 70.9467 19.4449C70.9086 20.2769 70.7696 20.7285 70.6528 21.0289C70.4981 21.4271 70.3129 21.7107 70.0142 22.0092C69.7155 22.3079 69.432 22.4928 69.0336 22.6474C68.7331 22.7648 68.2812 22.9034 67.4492 22.9415C66.5496 22.9824 66.2794 22.9913 64.001 22.9913C61.7224 22.9913 61.4524 22.9824 60.5528 22.9415C59.7208 22.9031 59.2692 22.7641 58.9682 22.6472C58.57 22.4926 58.2856 22.3077 57.9869 22.009C57.6882 21.7104 57.5033 21.4266 57.3483 21.0282C57.2315 20.7278 57.0923 20.2762 57.0544 19.4442C57.0135 18.5446 57.0054 18.2744 57.0054 15.9956C57.0054 13.7168 57.0135 13.448 57.0544 12.5485C57.0925 11.7165 57.2315 11.2649 57.3483 10.9641C57.503 10.5659 57.6882 10.2814 57.9869 9.98276C58.2856 9.68409 58.57 9.4992 58.9682 9.34418C59.269 9.22684 59.7208 9.08818 60.5528 9.04995C61.34 9.0144 61.6451 9.00373 63.2355 9.00195V9.00409ZM68.5559 10.4209C67.9906 10.4209 67.5319 10.8791 67.5319 11.4446C67.5319 12.0099 67.9906 12.4686 68.5559 12.4686C69.1212 12.4686 69.5799 12.0099 69.5799 11.4446C69.5799 10.8792 69.1212 10.4206 68.5559 10.4206V10.4209ZM59.6188 15.9988C59.6188 13.5787 61.5809 11.6166 64.0009 11.6165C66.421 11.6165 68.3826 13.5787 68.3826 15.9988C68.3826 18.4189 66.4212 20.3802 64.0011 20.3802C61.581 20.3802 59.6188 18.4189 59.6188 15.9988Z" fill="currentColor"/>
<path fill-rule="evenodd" clip-rule="evenodd" d="M64.0007 13.155C65.5716 13.155 66.8452 14.4285 66.8452 15.9995C66.8452 17.5704 65.5716 18.844 64.0007 18.844C62.4297 18.844 61.1562 17.5704 61.1562 15.9995C61.1562 14.4285 62.4297 13.155 64.0007 13.155V13.155Z" fill="currentColor"/>
</g>
</svg>
