<svg viewBox="0 0 32 32" fill="none" xmlns="http://www.w3.org/2000/svg">
<g transform="translate(-96 0)">
<path fill-rule="evenodd" clip-rule="evenodd" d="M112 0C103.163 0 96 7.16344 96 16C96 24.8366 103.163 32 112 32C120.837 32 128 24.8366 128 16C128 7.16344 120.837 0 112 0ZM111.554 13.5582L111.521 13.0046C111.42 11.5697 112.304 10.259 113.703 9.75059C114.218 9.56981 115.091 9.54721 115.662 9.70539C115.886 9.77318 116.311 9.99916 116.613 10.2025L117.161 10.5754L117.766 10.3833C118.102 10.2816 118.549 10.1121 118.751 9.99916C118.941 9.89747 119.109 9.84097 119.109 9.87487C119.109 10.0669 118.695 10.7223 118.348 11.0838C117.878 11.5923 118.012 11.6375 118.963 11.2985C119.534 11.1064 119.545 11.1064 119.433 11.3211C119.366 11.4341 119.019 11.8295 118.65 12.1911C118.023 12.8125 117.99 12.8803 117.99 13.4001C117.99 14.2023 117.609 15.8745 117.229 16.7897C116.523 18.5071 115.013 20.281 113.502 21.1736C111.375 22.4277 108.544 22.7441 106.16 22.0097C105.365 21.7611 104 21.1284 104 21.0154C104 20.9815 104.414 20.9363 104.918 20.925C105.97 20.9024 107.022 20.6086 107.917 20.0889L108.521 19.7273L107.828 19.4901C106.843 19.1511 105.959 18.3715 105.735 17.6371C105.668 17.3998 105.69 17.3885 106.317 17.3885L106.966 17.3772L106.417 17.1173C105.768 16.7897 105.175 16.236 104.884 15.6711C104.672 15.2643 104.403 14.2362 104.481 14.1571C104.504 14.1232 104.739 14.191 105.007 14.2814C105.779 14.5638 105.88 14.496 105.433 14.0215C104.593 13.1628 104.336 11.886 104.739 10.6771L104.929 10.1347L105.668 10.8692C107.178 12.3493 108.958 13.2306 110.995 13.4905L111.554 13.5582Z" fill="currentColor"/>
</g>
</svg>
