<svg viewBox="0 0 32 32" fill="none" xmlns="http://www.w3.org/2000/svg">
<g transform="translate(-144 0)">
<path fill-rule="evenodd" clip-rule="evenodd" d="M160 0C151.163 0 144 7.16344 144 16C144 24.8366 151.163 32 160 32C168.837 32 176 24.8366 176 16C176 7.16344 168.837 0 160 0ZM166.668 10.5003C167.402 10.7018 167.981 11.2956 168.177 12.0496C168.533 13.4161 168.533 16.2674 168.533 16.2674C168.533 16.2674 168.533 19.1187 168.177 20.4853C167.981 21.2393 167.402 21.8331 166.668 22.0347C165.337 22.4008 160 22.4008 160 22.4008C160 22.4008 154.663 22.4008 153.332 22.0347C152.598 21.8331 152.02 21.2393 151.823 20.4853C151.467 19.1187 151.467 16.2674 151.467 16.2674C151.467 16.2674 151.467 13.4161 151.823 12.0496C152.02 11.2956 152.598 10.7018 153.332 10.5003C154.663 10.1341 160 10.1341 160 10.1341C160 10.1341 165.337 10.1341 166.668 10.5003Z" fill="currentColor"/>
<path fill-rule="evenodd" clip-rule="evenodd" d="M158.4 19.1993V13.866L162.667 16.5327L158.4 19.1993Z" fill="currentColor"/>
</g>
</svg>
