<svg xmlns="http://www.w3.org/2000/svg" width="1611" height="450" fill="none" viewBox="0 0 1611 450"><path fill="#fff" fill-opacity=".19" d="M1250.84 450c-74.83 0-193.48-23.5-333.72-135.45-29.49-23.5-58-48.7-85.56-73.08l-.3-.28C767.24 184.61 701.1 126.16 619.2 85.2 447.68-.57 237.77-1 1.05 6.9H.3L0 3.2h.94c237.89-7.93 448.85-7.48 621.8 79.04 82.63 41.3 148.98 99.98 213.19 156.73 27.6 24.4 56.15 49.63 85.7 73.21 85.3 68.1 217.67 146.34 363.89 132.46 126.12-12.09 223.54-87.07 320.43-169.5l.61-.5 4.44 2.3-.6.47c-97.65 83.05-195.82 158.63-324.09 170.9a369 369 0 0 1-35.28 1.69zM160.01 2.45c172.66 0 327.8 15.5 460.33 81.76 82.1 41.05 148.33 99.7 212.35 156.18l.38.33c27.56 24.38 56.07 49.55 85.48 73.03 77.16 61.6 197.44 135 332.29 135q17.6 0 35.02-1.67c127.21-12.19 225.08-87.24 322.28-169.94l-1.43-.75c-96.97 82.45-194.54 157.36-321.11 169.5-147.09 14-279.99-64.54-365.62-132.88-29.56-23.61-58.14-48.86-85.75-73.26-64.01-56.69-130.4-115.29-212.8-156.5C449.18-2.88 238.9-3.45 1.8 4.43v1.2C56.03 3.81 108.79 2.44 160 2.44"/></svg>